<svg width="91" height="121" viewBox="0 0 91 121" fill="none" xmlns="http://www.w3.org/2000/svg">
<path d="M63.3083 86.4062H63.4118L63.4179 86.4001C66.9009 86.371 70.7526 84.8842 74.8626 82.0066L74.8627 82.0066C79.4136 78.8195 83.1706 73.0467 85.8144 68.0134C88.4628 62.9714 90.0144 58.6316 90.1412 58.2743C90.3441 57.7044 90.2592 57.0743 89.911 56.5817C89.5642 56.0909 89.007 55.7956 88.4038 55.7891V55.7891H88.4011H88.2421C87.2965 55.7891 82.6294 55.8332 77.1174 56.6333C71.6145 57.432 65.2279 58.9895 60.8713 62.0393L60.8713 62.0394C56.4525 65.1337 53.6446 68.4959 52.5776 72.0273L52.5775 72.0276C51.5835 75.3295 52.1562 78.6329 54.2187 81.5818L54.2188 81.5819C56.4268 84.7345 59.5733 86.4062 63.3083 86.4062ZM63.0088 65.0945L63.0088 65.0944C65.7996 63.1398 69.8457 61.814 74.0628 60.9477C78.1183 60.1145 82.3077 59.711 85.6398 59.5736C84.6684 61.9172 83.0296 65.568 80.8921 69.193C78.6405 73.0115 75.8509 76.7745 72.7251 78.9628C69.2879 81.3672 66.1904 82.5928 63.5759 82.6661C60.9781 82.7389 58.8359 81.6759 57.2739 79.4444L57.2737 79.4441C55.8552 77.424 55.4816 75.3003 56.1446 73.1087L56.1447 73.1084C56.9501 70.4329 59.2421 67.7317 63.0088 65.0945Z" fill="#00C9A2" stroke="#00C9A2" stroke-width="0.5"/>
<path d="M87.6671 56.1917L87.5237 55.9868L87.3189 56.1302L44.6135 86.0217L44.4087 86.1651L44.552 86.3699L46.4011 89.0117L46.5445 89.2165L46.7493 89.0731L89.4547 59.1816L89.6595 59.0382L89.5162 58.8334L87.6671 56.1917Z" fill="#00C9A2" stroke="#00C9A2" stroke-width="0.5"/>
<path d="M16.1413 82.0125C20.056 84.7518 23.7411 86.2361 27.1003 86.3926L27.0809 86.4121H27.6843C31.4192 86.4121 34.5657 84.7404 36.7737 81.5878L36.7738 81.5877C38.8362 78.6389 39.409 75.3297 38.4149 72.0333L38.1756 72.1055L38.4149 72.0333C37.348 68.4962 34.5457 65.1396 30.1212 62.0453C25.7675 58.9954 19.3822 57.4379 13.8801 56.6392C8.36876 55.8391 3.70172 55.7949 2.75603 55.7949H2.59707V55.7949L2.59435 55.7949C1.99118 55.8015 1.43396 56.0968 1.08716 56.5876L1.08715 56.5876L1.08587 56.5894C0.746204 57.0793 0.65319 57.7141 0.857228 58.2808C0.983801 58.6346 2.53679 62.9744 5.18664 68.0172C7.83188 73.0512 11.5903 78.8254 16.1412 82.0125L16.1413 82.0125ZM10.1089 69.1897C7.97329 65.5671 6.33546 61.9182 5.36625 59.5743C8.69616 59.7123 12.8797 60.1159 16.9297 60.9479C21.1468 61.8142 25.1928 63.14 27.9836 65.0947L27.9837 65.0947C31.7503 67.7319 34.0423 70.433 34.8478 73.1084C35.5054 75.3007 35.137 77.4246 33.7188 79.4443L33.7187 79.4445C32.2072 81.6013 30.1869 82.6818 27.6843 82.6818C24.9927 82.6818 21.8244 81.4416 18.273 78.9573C15.1501 76.7719 12.3606 73.0089 10.1089 69.1897Z" fill="#00C9A2" stroke="#00C9A2" stroke-width="0.5"/>
<path d="M3.67581 56.1049L3.47102 55.9616L3.32763 56.1663L1.47807 58.8078L1.33468 59.0126L1.53947 59.156L44.235 89.0517L44.4398 89.1951L44.5832 88.9903L46.4327 86.3489L46.5761 86.1441L46.3714 86.0007L3.67581 56.1049Z" fill="#00C9A2" stroke="#00C9A2" stroke-width="0.5"/>
<path d="M46.3984 50.3809V49.8809H45.8984H43.0361H42.5361V50.3809V119.101V119.601H43.0361H45.8984H46.3984V119.101V50.3809Z" fill="#020244" stroke="#020244"/>
<path d="M27.3247 22.6338H61.6197V31.3002C61.6197 40.76 53.9268 48.4528 44.4722 48.4528C35.0177 48.4528 27.3247 40.7551 27.3247 31.3002V22.6338ZM23.4624 31.3002C23.4624 42.8894 32.8879 52.3151 44.4722 52.3151C56.0615 52.3151 65.4871 42.8895 65.4871 31.3002V20.7026C65.4871 19.6353 64.6233 18.7715 63.556 18.7715H25.3936C24.3263 18.7715 23.4624 19.6353 23.4624 20.7026V31.3002Z" fill="#020244" stroke="#020244"/>
<path d="M70.1483 19.2676V18.7676H69.6483H19.2959H18.7959V19.2676V22.1299V22.6299H19.2959H69.6483H70.1483V22.1299V19.2676Z" fill="#020244" stroke="#020244"/>
<path d="M34.7425 1V0.5H34.2425H31.3801H30.8801V1V20.6985V21.1985H31.3801H34.2425H34.7425V20.6985V1Z" fill="#020244" stroke="#020244"/>
<path d="M58.0591 1V0.5H57.5591H54.6968H54.1968V1V20.6985V21.1985H54.6968H57.5591H58.0591V20.6985V1Z" fill="#020244" stroke="#020244"/>
</svg>
