<svg width="130" height="112" viewBox="0 0 130 112" fill="none" xmlns="http://www.w3.org/2000/svg">
<path d="M98.1128 16.0646L103.852 20.4177V7.27216H92.4274L92.4382 7.28834V11.7709L80.8407 3L47.3809 28.3309V28.3471H47.4079L54.28 37.4362L57.8563 34.7553L57.8725 56.7634L103.847 56.7796L103.836 56.7634H103.847V34.7823L107.412 37.4632C109.716 34.4263 112.014 31.384 114.311 28.3471L103.847 20.4177" stroke="#0078A6" stroke-width="4.5" stroke-linecap="round" stroke-linejoin="round"/>
<path fill-rule="evenodd" clip-rule="evenodd" d="M86.0411 14.8105C84.6491 19.6115 83.2615 24.4124 81.8695 29.2133H91.1853C85.7126 36.0274 80.2398 42.8373 74.7671 49.6515H73.8809C75.2686 44.8549 76.6562 40.0583 78.0395 35.2617V35.2402H68.7454C74.2138 28.4303 79.6822 21.6247 85.1506 14.8148H86.0368L86.0411 14.8105Z" stroke="#FF5400" stroke-width="4.5" stroke-linecap="round" stroke-linejoin="round"/>
<path d="M45.4773 89.2238C46.558 88.1432 47.6681 86.3952 51.1286 86.3952H90.6938C93.8354 86.3952 111.102 69.0751 113.299 66.6126C115.413 64.2446 124.82 50.1075 127.43 44.0073C125.795 41.7988 121.36 39.9681 116.128 41.1787C111.132 42.3362 108.191 45.9265 104.825 52.4814L91.8689 59.2075" fill="#EBF2F5"/>
<path d="M45.4773 89.2238C46.558 88.1432 47.6681 86.3952 51.1286 86.3952H90.6938C93.8354 86.3952 111.102 69.0751 113.299 66.6126C115.413 64.2446 124.82 50.1075 127.43 44.0073C125.795 41.7988 121.36 39.9681 116.128 41.1787C111.132 42.3362 108.191 45.9265 104.825 52.4814L91.8689 59.2075" stroke="#020244" stroke-width="4.5" stroke-linejoin="round"/>
<path d="M62.4313 69.4427H85.0366C96.3393 69.4427 96.3393 55.3115 85.0366 55.3115H70.1082C67.752 55.3115 63.3408 49.6602 59.6086 49.6602H45.4774C41.6567 49.6602 36.9148 52.7604 34.1747 55.3115C29.9407 59.5455 22.8721 66.6141 22.8721 66.6141" fill="#EBF2F5"/>
<path d="M62.4313 69.4427H85.0366C96.3393 69.4427 96.3393 55.3115 85.0366 55.3115H70.1082C67.752 55.3115 63.3408 49.6602 59.6086 49.6602H45.4774C41.6567 49.6602 36.9148 52.7604 34.1747 55.3115C29.9407 59.5455 22.8721 66.6141 22.8721 66.6141" stroke="#020244" stroke-width="4.5" stroke-linejoin="round"/>
<path d="M17.2222 60.9595L3.0918 75.0898L37.0022 109L51.1326 94.8699L17.2222 60.9595Z" fill="#EBF2F5" stroke="#020244" stroke-width="4.5" stroke-linejoin="round"/>
<path d="M17.2209 75.0938L22.8723 80.7451" stroke="#020244" stroke-width="4.5" stroke-linejoin="round"/>
</svg>
