<svg width="128" height="111" viewBox="0 0 128 111" fill="none" xmlns="http://www.w3.org/2000/svg">
<path d="M113.948 76.4355H61.5383V79.7256H113.948V76.4355Z" fill="#072B60"/>
<path d="M120.707 56.6875H68.2971V59.9776H120.707V56.6875Z" fill="#072B60"/>
<path d="M108.649 41.3101L89.3059 93.9668L92.3942 95.1012L111.737 42.4445L108.649 41.3101Z" fill="#072B60"/>
<path d="M91.0601 41.312L71.7175 93.9688L74.8059 95.1032L94.1485 42.4465L91.0601 41.312Z" fill="#072B60"/>
<path d="M105.935 107.707H71.3733V110.997H105.935V107.707Z" fill="#072B60"/>
<path d="M80.1759 94.2217L77.2727 109.033L80.5014 109.666L83.4046 94.8545L80.1759 94.2217Z" fill="#072B60"/>
<path d="M97.3136 94.2756L94.0684 94.8438L96.6619 109.658L99.9071 109.09L97.3136 94.2756Z" fill="#072B60"/>
<path d="M107.163 96.1859H58.2083C56.3959 96.1859 54.9182 94.7083 54.9182 92.8958C54.9182 92.4985 55.012 92.1905 55.0745 91.9851L72.0071 42.4282C72.4937 41.1024 73.7347 40.2363 75.1097 40.2363H124.042C125.859 40.2363 127.336 41.714 127.336 43.5264C127.336 43.9104 127.269 44.2853 127.14 44.6469L110.283 93.9672C109.828 95.2976 108.573 96.1949 107.167 96.1949L107.163 96.1859ZM75.1052 43.522L58.2128 92.9583L107.163 92.8958L124.037 43.522H75.1052Z" fill="#072B60"/>
<path fill-rule="evenodd" clip-rule="evenodd" d="M28.789 6.40894C32.4113 6.79755 36.0827 7.815 39.8034 9.46835L36.0476 18.908C35.1121 18.477 34.2119 18.0884 33.3327 17.7563C31.722 17.1345 30.2098 16.6753 28.789 16.3785C27.5019 16.1242 26.2992 16.004 25.1668 16.0111C23.5983 16.0111 22.4589 16.2796 21.7556 16.8307C21.0241 17.3889 20.6513 18.0813 20.6443 18.908C20.6443 19.7983 21.1085 20.5896 22.0369 21.2821C22.8387 21.9038 24.8503 22.9707 28.0786 24.4828C28.3108 24.5888 28.5429 24.6877 28.789 24.8007C29.0071 24.9067 29.2251 25.0056 29.4502 25.1187C32.6856 26.5883 35.0981 28.1569 36.6736 29.8244C36.9901 30.1353 37.2714 30.4532 37.5246 30.7712C39.0368 32.7637 39.7964 35.2861 39.8034 38.3384C39.7964 41.1435 39.086 43.6306 37.6653 45.7997C36.2445 47.9689 34.2048 49.6646 31.5391 50.887C30.667 51.2615 29.7526 51.5794 28.789 51.8338V56.815H19.1461V52.5827C17.444 52.4838 15.9459 52.293 14.6377 52.0245C12.6121 51.6077 10.502 50.8799 8.30054 49.8413V38.9532C10.3824 40.0342 12.5417 40.8962 14.7713 41.5604C15.0175 41.6169 15.2707 41.6805 15.5169 41.737C16.7759 42.0762 17.9786 42.3376 19.1391 42.5072C20.2855 42.6697 21.3828 42.7545 22.4308 42.7545C24.2243 42.7545 25.5396 42.4577 26.3836 41.843C27.2206 41.2071 27.6355 40.3945 27.6355 39.3983C27.6355 38.7836 27.4738 38.2395 27.1502 37.7732C26.7986 37.3069 26.25 36.8405 25.5115 36.3742C24.8433 35.9644 23.2256 35.1731 20.6583 34.0002C20.2996 33.8306 19.9198 33.6469 19.526 33.4561C19.3994 33.4067 19.2657 33.3501 19.1461 33.3007C16.5719 32.1136 14.5955 30.9619 13.2099 29.8385C13.1184 29.7467 13.0341 29.6548 12.9496 29.5559C11.4726 28.2911 10.3895 26.8498 9.69315 25.2176C8.96167 23.5925 8.58893 21.6777 8.58189 19.4662C8.59596 15.3045 10.1152 12.0685 13.1396 9.74391C14.7995 8.46503 16.797 7.53944 19.1461 6.96713V2H28.789V6.42307V6.40894Z" stroke="#FFC907" stroke-width="4" stroke-linecap="round" stroke-linejoin="round"/>
<path d="M28.4624 68.4707L30.6676 89.5776" stroke="#00C9A2" stroke-width="4"/>
<path d="M8.30058 63.1152L2 76.3464" stroke="#00C9A2" stroke-width="4"/>
<path d="M42.3237 59.3359L50.1995 70.0469" stroke="#00C9A2" stroke-width="4"/>
<path d="M53.0347 40.4336L65.6358 45.7891" stroke="#00C9A2" stroke-width="4"/>
<path d="M53.0347 9.56055L68.1561 4.83511" stroke="#00C9A2" stroke-width="4"/>
<path d="M54.6099 21.8477L71.3064 23.7378" stroke="#00C9A2" stroke-width="4"/>
</svg>
