<svg xmlns="http://www.w3.org/2000/svg" xmlns:xlink="http://www.w3.org/1999/xlink" viewBox="0 0 872.46 252.71"><defs><style>.cls-1{fill:none;}.cls-2{clip-path:url(#clip-path);}.cls-3{fill:#04c478;}.cls-4{clip-path:url(#clip-path-2);}.cls-5{fill:url(#linear-gradient);}</style><clipPath id="clip-path" transform="translate(0 0)"><rect class="cls-1" width="882.96" height="252.71"/></clipPath><clipPath id="clip-path-2" transform="translate(0 0)"><path class="cls-1" d="M28.23,197.17v-91.8l12.49-7.68v91.8l74.55,45.95-12.5,7.68Zm20.28-12.52V92.85l54.26-33.43,74.54,46v91.8L123.05,230.6ZM185.1,100.52,110.56,54.58l12.49-7.67L197.6,92.85v91.8l-12.5,7.68Zm-82.33-50.6-82.24,50.7V202l82.24,50.7,20.28-12.52,82.25-50.7V88.1L123.05,37.41Z"/></clipPath><linearGradient id="linear-gradient" y1="252.71" x2="1" y2="252.71" gradientTransform="matrix(184.77, 0, 0, -184.77, 20.53, 46837.3)" gradientUnits="userSpaceOnUse"><stop offset="0" stop-color="#015ada"/><stop offset="0.36" stop-color="#0476c8"/><stop offset="1" stop-color="#09a4aa"/></linearGradient></defs><title>logo</title><g id="Layer_2" data-name="Layer 2"><g id="Layer_1-2" data-name="Layer 1"><g class="cls-2"><path d="M301.11,150.36h-.64l-.58-.06h-.64l-.58-.06-.58-.06-.58-.11-.58-.06-.58-.12-.58-.11-.58-.18-.52-.17-.58-.17-.52-.18-.52-.17-.52-.23-.58-.24-.58-.29-.53-.23-.52-.29-.52-.29-.52-.35-.47-.29-.52-.34-.47-.35-.46-.35-.47-.41-.41-.4-.47-.35-.41-.46-.4-.41-.41-.41-.35-.46-.41-.46-.35-.47-.35-.46-.29-.52-.35-.47-.3-.52-.29-.52-.29-.52-.29-.53-.23-.58-.24-.58-.23-.52-.18-.52-.17-.52-.18-.58-.17-.52-.12-.58-.11-.58-.12-.53-.12-.58-.06-.58,0-.58-.06-.58-.06-.58v-2.55l.06-.58.06-.58,0-.58.06-.58.12-.58.12-.52.11-.58.12-.58.17-.52.18-.58.17-.52.18-.53.23-.58.24-.52.23-.58.29-.52.29-.52.29-.52.3-.53.35-.52.29-.46.35-.47.35-.46.41-.46.35-.47.41-.46.4-.41.41-.4.41-.35.41-.41.41-.35.47-.34.4-.29.47-.35.47-.29.46-.29.46-.29.53-.29.46-.29.52-.23.52-.24.58-.29.47-.17.52-.17.52-.24.52-.11.53-.18.58-.11.52-.18.58-.11.52-.06.58-.12.58,0,.58-.06.58-.06.58-.06h2.49l.64.06.64.06h.58l.58.11.58.06.58.06.52.12.58.11.64.12.52.17.58.18.58.17.52.17.53.18.52.23.52.23.58.29.52.29.52.29.53.29.46.35.52.29.47.35.46.4.41.35.46.35.46.41.47.4.4.41-.4.46-.35.41-.41.46-.34.41-.41.46-.35.41-.4.46-.35.41-.41.46-.35.41-.4.46-.35.41-.41.46-.34.41-.41.46-.46-.4-.47-.41-.46-.35-.47-.35-.46-.34-.46-.35-.47-.29-.46-.29-.47-.29-.46-.23-.46-.29-.47-.18-.52-.23-.46-.17-.53-.18-.52-.11-.58-.12-.52-.12-.58,0-.58-.06-.58-.06h-1.16l-.64.06-.58.06-.52.11-.58.12-.58.11-.52.18-.52.23-.53.17-.52.29-.46.24-.47.29-.46.34-.46.29-.41.35-.46.35-.35.41-.41.34-.35.47-.34.4-.35.47-.29.46-.29.47-.29.46-.23.52-.24.52-.23.53-.17.58-.18.58-.17.52-.12.58L289,126l-.06.64-.06.58-.06.58v1.39l.06.58.06.58.06.64.11.58.12.58.17.52.18.58.17.52.23.58.24.52.23.52.29.47.29.52.29.46.29.47.35.4.4.41.35.46.41.35.4.41.41.35.46.29.47.34.46.29.46.24.53.23.52.23.52.23.58.18.52.11.58.12.58.11.58.06.58.06H302l.58-.06.58-.06.52-.05.52-.06.52-.12.58-.17.58-.18.58-.17.58-.23.58-.29.53-.23.52-.29.52-.35.52-.35.47-.35.4-.29.41-.35.4-.34.41-.35.46-.35.41-.41.41.41.4.41.41.4.4.41.41.4.41.41.4.41.41.46.4.41.41.4.41.41.4.4.41.41.4.41-.4.4-.41.47-.4.4-.47.35-.4.41-.41.34-.46.41L315,146l-.46.35-.47.35-.46.29-.47.29-.52.29-.46.29-.52.29-.47.23-.52.23-.58.23-.52.23-.58.18-.58.17-.58.18-.58.17-.64.12-.52.11-.52.06-.53.12-.52.05-.52.06-.58.06h-.58l-.58.06h-1.16Z" transform="translate(0 0)"/><path d="M334.46,107.44h8.82v34.1h21.28v8.12h-30.1V107.44Z" transform="translate(0 0)"/><path d="M380.74,107.44h8.93v42.22h-8.93V107.44Z" transform="translate(0 0)"/><path d="M409,107.44h9.55l.29.52.35.46.29.52.29.47.35.52.29.46.29.52.35.47.29.52.29.46.34.52.29.47.29.52.35.46.29.52.29.46.35.52.29.47.29.52.28.46.35.52.29.47.29.52.35.46.29.52.29.47.35.52.28.46.29.52.35.46.29.53.29.46.35.52.29.46.29.52.35.47.29.52.29-.52.34-.47.29-.52.29-.46.35-.52.29-.46.29-.53.35-.46.29-.52.34-.46.29-.52.29-.47.35-.52.29-.46.29-.52.35-.47.29-.52.29-.46.34-.52.29-.47.29-.52.35-.46.29-.52.29-.46.35-.52.29-.47.29-.52.34-.46.29-.52.35-.47.29-.52.29-.46.35-.52.29-.47.29-.52.34-.46.29-.52H451v42.22h-8.82V121.5l-.34.47-.29.52-.35.47-.29.46-.35.52-.29.47-.35.52-.29.47-.35.46-.29.52-.34.47-.29.46-.35.52-.29.47-.35.52-.29.47-.35.46-.29.52-.35.47-.34.46-.29.53-.35.46-.29.47-.35.52-.29.46-.35.53-.29.46-.35.47-.29.52-.34.46-.29.47-.35.52-.29.47-.35.52-.29.46-.35.47-.29.52L430,140h-.23l-.29-.47-.35-.52-.29-.47-.34-.46-.29-.47-.35-.52-.29-.46-.35-.47-.29-.52-.35-.46-.29-.47-.35-.47-.29-.52-.34-.46-.29-.47-.35-.52-.29-.46-.35-.47-.29-.52-.29-.47-.35-.46-.29-.47-.35-.52-.29-.46-.34-.47-.29-.52-.35-.47-.29-.46-.35-.47-.29-.52-.35-.46-.29-.47-.35-.52-.29-.47-.34-.46-.29-.47-.35-.52-.29-.46v28H409V107.44Z" transform="translate(0 0)"/><path d="M484.45,107.15h8.23l.23.52.24.52.23.52.23.58.23.53.18.52.23.52.23.52.23.52.23.58.24.53.23.52.23.52.23.52.23.52.24.58.23.53.17.52.23.52.24.52.23.52.23.58.23.53.23.52.24.52.23.52.23.52.23.58.18.53.23.52.23.52.23.52.23.52.24.58.23.53.23.52.23.52.23.52.24.52.23.53.17.58.23.52.24.52.23.52.23.52.23.53.23.58.24.52.23.52.23.52.23.52.18.53.23.58.23.52.23.52.23.52.24.52.23.53.23.58.23.52.23.52.24.52.17.52.23.53.23.58.24.52.23.52.23.52.23.52.23.53.24.58.23.52.23.52.23.52.18.52.23.53.23.58.23.52.23.52.24.52H501.5l-.23-.52-.24-.52-.17-.58-.23-.52-.23-.53-.24-.52-.17-.58-.23-.52-.23-.52-.24-.52-.23-.53-.17-.58-.23-.52-.24-.52-.23-.52-.17-.58-.23-.52-.24-.53H479.28l-.23.53-.23.52-.17.58-.24.52-.23.52-.23.52-.17.58-.24.53-.23.52-.23.52-.23.52-.18.58-.23.52-.23.53L476,148l-.18.58-.23.52-.23.52h-9.11l.24-.52.23-.52.23-.52.23-.58.23-.53.24-.52.17-.52.23-.52.23-.52.24-.58.23-.53.23-.52.23-.52.23-.52.24-.52.23-.58.23-.53.23-.52.23-.52.24-.52.17-.52.23-.58.23-.53.24-.52.23-.52.23-.52.23-.52.23-.58.24-.53.23-.52.23-.52.23-.52.23-.52.18-.58.23-.53.23-.52.23-.52.24-.52.23-.52.23-.58.23-.53.23-.52.24-.52.23-.52.23-.52.23-.53.18-.58.23-.52.23-.52.23-.52.23-.52.24-.53.23-.58.23-.52.23-.52.23-.52.24-.52.23-.53.23-.58.23-.52.18-.52.23-.52.23-.52.23-.53.23-.58.24-.52.23-.52.23-.52L482,113l.23-.53.24-.58.23-.52.23-.52.17-.52.24-.52.23-.53.23-.58.23-.52.23-.52Zm9.91,24.94-.23-.52-.23-.52-.17-.53-.24-.57-.23-.52-.23-.53-.17-.52-.24-.52-.23-.52-.23-.52-.23-.58-.18-.52-.23-.52-.23-.52-.23-.52-.18-.52-.23-.58-.23-.52-.23-.52-.23-.52-.18-.53-.23-.52-.23-.52-.23-.58-.18-.52-.23-.52-.23-.52-.23.52-.24.52-.17.52-.23.58-.23.52-.24.52-.23.53-.23.52-.17.52-.24.52-.23.58-.23.52-.23.52-.18.52-.23.52-.23.52-.23.58-.23.52-.18.52-.23.52-.23.52-.23.53-.24.52-.23.57-.17.53-.23.52-.24.52h11.89Z" transform="translate(0 0)"/><path d="M530.67,115.67h-13v-8.23h34.86v8.23H539.6v34h-8.93v-34Z" transform="translate(0 0)"/><path d="M568.37,107.44H600.1v7.94H577.19v9.05h20.18v7.95H577.19v9.34h23.2v7.94h-32V107.44Z" transform="translate(0 0)"/><path d="M640.41,107.44h9.86l.23.52.17.58.23.52.18.52.23.58.17.52.24.52.17.58.23.53.18.52.23.58.17.52.23.52.18.52.23.58.17.52.24.52.17.58.23.52.18.53.23.58.17.52.23.52.18.58.23.52.17.52.24.58.17.52.23.52.18.58.23.52.17.53.23.57.18.53.23.52.17.58.24.52.17.52.23.58.18.52.23.52.17.52.23.58.18.53.23.52.17.58.24.52.17.52.23.58.18.52.23.52.17.58.23.52.18.52.23.58.17.53.24-.53.17-.58.23-.52.18-.52.23-.58.17-.52.23-.52.18-.58.23-.52.17-.52.24-.58.17-.52.23-.53.18-.58.23-.52.17-.52.23-.52.18-.58.23-.52.17-.52.24-.58.17-.52.23-.53.18-.57.23-.53.17-.52.23-.58.18-.52.23-.52.17-.58.24-.52.17-.52.23-.58.18-.52.23-.52.17-.58.23-.53.18-.52.23-.58.17-.52.24-.52.17-.58.23-.52.18-.52.23-.52.17-.58.23-.52.18-.53.23-.58.17-.52.24-.52.17-.58.23-.52.18-.52.23-.58.17-.52h9.63l-.23.52-.18.58-.23.52-.23.52-.23.53-.18.58-.23.52-.23.52-.23.58-.18.52-.23.52-.23.53-.23.58-.18.52-.23.52-.23.52-.23.58-.18.52-.23.53-.23.58-.23.52-.18.52-.23.52-.23.58-.23.52-.18.53-.23.58-.23.52-.23.52-.18.52-.23.58-.23.52-.23.53-.18.52-.23.58-.23.52-.23.52-.18.58-.23.52-.23.53-.23.52-.18.58-.23.52-.23.52-.23.58-.18.52-.23.53-.23.52-.23.58-.18.52-.23.52-.23.52-.23.58-.18.53-.23.52-.23.58-.23.52-.18.52-.23.52-.23.58-.23.53-.18.52-.23.58-.23.52-.23.52-.18.52-.23.58-.23.53-.23.52-.18.52-.23.58-.23.52-.23.52-.18.58-.23.53-.23.52-.23.52-.18.58-.23.52h-7.89l-.23-.52-.17-.58-.23-.52-.24-.52-.23-.53-.17-.58-.23-.52-.24-.52-.23-.58-.17-.52-.23-.52-.24-.53-.23-.58-.17-.52-.23-.52-.24-.52-.23-.58-.17-.52-.23-.53-.24-.58-.23-.52-.17-.52-.23-.52-.24-.58-.23-.52L652,136l-.23-.58-.24-.52-.23-.52-.17-.52-.23-.58-.24-.52-.23-.53-.17-.52-.23-.58-.24-.52-.23-.52-.17-.58-.23-.52-.24-.53-.23-.52-.17-.58-.23-.52-.24-.52-.23-.58-.17-.52-.23-.53-.24-.52-.23-.58-.17-.52-.23-.52-.24-.52-.23-.58-.17-.53-.23-.52-.24-.58-.23-.52-.17-.52-.23-.52-.24-.58-.23-.53-.17-.52-.23-.58-.24-.52-.23-.52-.17-.52-.23-.58-.24-.53-.23-.52-.17-.52-.23-.58-.24-.52-.23-.52-.17-.58-.23-.53-.24-.52-.23-.52-.17-.58Z" transform="translate(0 0)"/><path d="M706.41,107.15h8.24l.23.52.23.52.23.52.23.58.24.53.17.52.23.52.23.52.24.52.23.58.23.53.23.52.23.52.24.52.23.52.23.58.23.53.18.52.23.52.23.52.23.52.23.58.24.53.23.52.23.52.23.52.23.52.24.58.17.53.23.52.23.52.24.52.23.52.23.58.23.53.23.52.24.52.23.52.23.52.23.53.18.58.23.52.23.52.23.52.23.52.24.53.23.58.23.52.23.52.23.52.24.52.17.53.23.58.23.52.24.52.23.52.23.52.23.53.23.58.24.52.23.52.23.52.17.52.24.53.23.58.23.52.23.52.23.52.24.52.23.53.23.58.23.52.23.52.24.52.17.52.23.53.23.58.24.52.23.52.23.52h-9.34l-.23-.52-.23-.52-.18-.58-.23-.52-.23-.53-.23-.52-.18-.58-.23-.52-.23-.52-.23-.52-.23-.53-.18-.58-.23-.52-.23-.52-.23-.52-.18-.58-.23-.52-.23-.53H701.25l-.23.53-.24.52-.17.58-.23.52-.23.52-.24.52-.17.58-.23.53-.23.52-.24.52-.23.52-.17.58-.23.52-.24.53-.23.52-.17.58-.23.52-.24.52h-9.1l.23-.52.23-.52.23-.52.24-.58.23-.53.23-.52.17-.52.24-.52.23-.52.23-.58.23-.53.23-.52.24-.52.23-.52.23-.52.23-.58.23-.53.24-.52.23-.52.23-.52.17-.52.24-.58.23-.53.23-.52.23-.52.23-.52.24-.52.23-.58.23-.53.23-.52.23-.52.24-.52.23-.52.17-.58.23-.53.24-.52.23-.52.23-.52.23-.52.23-.58.24-.53.23-.52.23-.52.23-.52.23-.52.24-.53.17-.58.23-.52.23-.52.24-.52.23-.52.23-.53.23-.58.23-.52.24-.52.23-.52.23-.52.23-.53.23-.58.24-.52.17-.52.23-.52.23-.52.24-.53.23-.58.23-.52.23-.52.23-.52.24-.52.23-.53.23-.58.23-.52.23-.52.18-.52.23-.52.23-.53.23-.58.24-.52.23-.52Zm9.92,24.94-.23-.52-.24-.52-.17-.53-.23-.57-.23-.52-.24-.53-.17-.52-.23-.52-.23-.52-.24-.52-.23-.58-.17-.52-.23-.52-.24-.52-.23-.52-.17-.52-.23-.58-.24-.52-.23-.52-.23-.52-.17-.53-.24-.52-.23-.52-.23-.58-.17-.52-.24-.52-.23-.52-.23.52-.23.52-.18.52-.23.58-.23.52-.23.52-.23.53-.24.52-.17.52-.23.52-.23.58-.24.52-.23.52-.17.52-.23.52-.24.52-.23.58-.23.52-.17.52-.24.52-.23.52-.23.53-.23.52-.23.57-.18.53-.23.52-.23.52h11.89Z" transform="translate(0 0)"/><path d="M764.09,150.3h-1.27l-.64-.06-.64-.06-.58-.05-.58-.06-.57-.12-.58-.11-.58-.12-.52-.12-.58-.17-.52-.12-.53-.23-.58-.17-.52-.23-.52-.24-.52-.23-.46-.29-.52-.29-.47-.29-.46-.35-.41-.34-.46-.35-.4-.35-.35-.41-.41-.34-.34-.47-.41-.4-.29-.47-.35-.46-.29-.47-.28-.46-.29-.52-.29-.52-.24-.58-.23-.53-.23-.58-.17-.52-.18-.52-.11-.52-.18-.52-.11-.53-.12-.58-.06-.58-.11-.58-.06-.58-.06-.63-.06-.64-.05-.64V107.44h8.93V132l.06.7.06.63,0,.64.12.58.12.58.11.58.18.52.17.53.23.52.23.46.29.41.24.46.29.41.34.35.41.4.4.35.47.35.46.29.47.29.52.23.52.23.52.18.58.17.64.06.58.11.7.06h1.33l.64-.06.58-.05.64-.12.58-.17.52-.18.52-.17.52-.23.53-.29.46-.29.41-.29.46-.35.41-.41.29-.35.29-.4.29-.41.29-.4.23-.47.17-.46.23-.52.18-.53.11-.52.12-.58.11-.58.06-.64.06-.63.06-.64V107.44h8.81v25.11l0,.58-.06.64v.58l-.12.58,0,.58-.06.52-.12.58-.11.52-.12.53-.12.52-.17.52-.17.46-.12.47-.23.64-.29.52-.23.58-.29.52-.23.52-.35.52-.29.47-.35.46-.35.47-.34.4-.35.47-.4.34-.41.41-.41.35-.46.35-.4.34-.47.35-.46.29-.52.29-.52.29-.52.23-.53.24-.52.23-.58.17-.52.23-.52.12-.58.17-.58.12-.52.12-.58.11-.63.12-.58.06-.58.05-.64.06-.64.06h-1.27Z" transform="translate(0 0)"/><path d="M800.77,107.44h8.82v34.1h21.29v8.12H800.77V107.44Z" transform="translate(0 0)"/><path d="M850.59,115.67h-13v-8.23h34.86v8.23H859.53v34h-8.94v-34Z" transform="translate(0 0)"/></g><path class="cls-3" d="M7.7,159.86V68.05l12.5-7.67v91.8l74.54,45.95-12.5,7.67ZM28,147.34V55.54L82.24,22.11l74.54,45.94v91.81l-54.26,33.43ZM164.57,63.21,90,17.27l12.49-7.68,74.55,46v91.8L164.57,155ZM102.52,0,82.24,12.51,0,63.21v101.4L82.24,215.3l20.28-12.51,82.25-50.7V50.7Z" transform="translate(0 0)"/><g class="cls-4"><rect class="cls-5" x="20.53" y="37.41" width="184.77" height="215.3"/></g></g></g></svg>