<?xml version="1.0" encoding="utf-8"?>
<!-- Generator: Adobe Illustrator 25.4.1, SVG Export Plug-In . SVG Version: 6.00 Build 0)  -->
<svg version="1.1" id="Layer_1" xmlns="http://www.w3.org/2000/svg" xmlns:xlink="http://www.w3.org/1999/xlink" x="0px" y="0px"
	 viewBox="0 0 1541 217.6" style="enable-background:new 0 0 1541 217.6;" xml:space="preserve">
<style type="text/css">
	.st0{fill:#FFFFFF;}
	.st1{fill:#FED925;}
</style>
<path class="st0" d="M400,129.2c-0.2-0.2-0.5-0.4-0.8-0.4c-0.3,0-0.6,0.1-0.8,0.3l-1.7,1.7c-7.8,7.4-17.5,11.1-29.6,11.1
	c-25.4,0-44.5-18.8-44.5-43.8s19.1-43.8,44.5-43.8c12.2,0,21.9,3.6,29.6,10.9l1.7,1.7c0.2,0.2,0.5,0.3,0.8,0.3
	c0.3,0,0.6-0.2,0.8-0.4l4.6-5.4c0.4-0.5,0.4-1.1-0.1-1.5l-1.5-1.5c-8.8-8.8-21.6-13.6-36-13.6c-30.9,0-54.1,22.9-54.1,53.3
	s23.3,53.3,54.1,53.3c14.4,0,27.2-4.9,36-13.7l1.5-1.5c0.4-0.4,0.4-1.1,0.1-1.5L400,129.2z"/>
<path class="st0" d="M524.1,141.4h-57.8V46.3c0-0.6-0.5-1.1-1.1-1.1h-7.4c-0.6,0-1.1,0.5-1.1,1.1v103.5c0,0.6,0.5,1.1,1.1,1.1h66.3
	c0.6,0,1.1-0.5,1.1-1.1v-7.2C525.2,141.9,524.7,141.4,524.1,141.4z"/>
<path class="st0" d="M796.8,149.3l-48-103.5c-0.2-0.4-0.6-0.7-1-0.7H742c-0.4,0-0.8,0.3-1,0.7l-48,103.5c-0.2,0.4-0.1,0.8,0.1,1.1
	c0.2,0.3,0.6,0.5,1,0.5h8.3c0.4,0,0.8-0.3,1-0.7l41.6-89.7l41.6,89.7c0.2,0.4,0.6,0.7,1,0.7h8.3c0.4,0,0.8-0.2,1-0.5
	C797,150,797,149.6,796.8,149.3z"/>
<path class="st0" d="M929.6,149.1l-25.6-35.4c14.1-5.3,22.2-17.1,22.2-32.6c0-22.5-15.8-35.9-42.3-35.9h-35.8
	c-0.6,0-1.1,0.5-1.1,1.1v7.2c0,0.6,0.5,1.1,1.1,1.1l36.1,0c20.9,0,32.3,9.4,32.3,26.4s-11.5,26.4-32.3,26.4h-36.1
	c-0.6,0-1.1,0.5-1.1,1.1v41.2c0,0.6,0.5,1.1,1.1,1.1h7.4c0.6,0,1.1-0.5,1.1-1.1V117H884c3.7,0,7.1-0.2,10.1-0.7l24.6,34.1
	c0.2,0.3,0.6,0.5,0.9,0.5h9.2c0.4,0,0.8-0.2,1-0.6C929.9,149.9,929.9,149.4,929.6,149.1z"/>
<path class="st0" d="M1364.6,45.1h-83c-0.6,0-1.1,0.5-1.1,1.1v11.1c0,0.6,0.5,1.1,1.1,1.1h34.5v91.3c0,0.6,0.5,1.1,1.1,1.1h11.8
	c0.6,0,1.1-0.5,1.1-1.1V58.5h34.5c0.6,0,1.1-0.5,1.1-1.1V46.3C1365.7,45.7,1365.2,45.1,1364.6,45.1z"/>
<g>
	<path class="st0" d="M574.3,54.7h68.3c0.6,0,1.1-0.5,1.1-1.1v-7.2c0-0.6-0.5-1.1-1.1-1.1h-68.3c-0.6,0-1.1,0.5-1.1,1.1v7.2
		C573.2,54.2,573.7,54.7,574.3,54.7z"/>
	<path class="st0" d="M642.7,141.4h-68.3c-0.6,0-1.1,0.5-1.1,1.1v7.2c0,0.6,0.5,1.1,1.1,1.1h68.3c0.6,0,1.1-0.5,1.1-1.1v-7.2
		C643.8,141.9,643.3,141.4,642.7,141.4z"/>
	<path class="st0" d="M642.7,93.3h-68.3c-0.6,0-1.1,0.5-1.1,1.1v7.2c0,0.6,0.5,1.1,1.1,1.1h68.3c0.6,0,1.1-0.5,1.1-1.1v-7.2
		C643.8,93.8,643.3,93.3,642.7,93.3z"/>
</g>
<path class="st0" d="M1034.2,45.1h-41.4c-0.6,0-1.1,0.5-1.1,1.1l0,93.8c0,0,0,0.1,0,0.1v9.5c0,0.6,0.5,1.1,1.1,1.1h41.4
	c33,0,56-21.7,56-52.9S1067.1,45.1,1034.2,45.1z M1033.6,137.6h-28.7V58.5h28.7c25.4,0,42.5,15.9,42.5,39.5S1059,137.6,1033.6,137.6
	z"/>
<path class="st1" d="M189.9,84.5h-1.6c-21.2,0-34-2.8-53.7-19.6l-1-0.9c-0.6-0.5-1.5-0.5-2.1,0l-1,0.9C110.8,81.7,98,84.5,76.8,84.5
	h-1.6c-0.9,0-1.6,0.7-1.6,1.6v24.6c0,0.9,0.7,1.6,1.6,1.6h3.1c0.9,0,1.6-0.7,1.6-1.6V90.8c19.2-0.3,33.4-3.5,52.6-19.3
	c19.3,15.8,33.4,19,52.6,19.3v57.1c0,17.3-7.7,33.5-20.2,42.2c-0.7,0.5-0.9,1.5-0.4,2.2l1.8,2.6c0.2,0.3,0.6,0.6,1,0.7
	c0.1,0,0.2,0,0.3,0c0.3,0,0.6-0.1,0.9-0.3c14.1-9.9,22.9-28.1,22.9-47.4V86.1C191.5,85.2,190.8,84.5,189.9,84.5z"/>
<path class="st0" d="M205.9,60.1c-7.8-18.6-26.5-31.1-46.7-31.1c-4,0-7.9,0.5-11.8,1.4C134.6,11.3,113.3,0,90.4,0
	C54.4,0,23.6,29.2,21.8,65.2C8.3,73.8,0,89,0,104.9c0,25.9,21.1,47,47,47h26.8c1.9,28.1,23.9,44,57.1,65l0.8,0.5
	c0.3,0.2,0.5,0.2,0.8,0.2c0.3,0,0.6-0.1,0.8-0.2l0.8-0.5c5.4-3.4,10.5-6.5,14.9-9.2l0.4-0.2c2.9-1.8,5.7-3.5,8.4-5.1
	c0.7-0.5,1-1.4,0.5-2.2l-1.7-2.7c-0.2-0.4-0.6-0.6-1-0.7c-0.4-0.1-0.8,0-1.2,0.2c-2.7,1.7-5.6,3.5-8.7,5.3l-0.4,0.2
	c-4.1,2.5-8.4,5.1-12.9,7.9c-31.8-20.1-52.6-35.4-52.6-62.5v-1.6c0-0.9-0.7-1.6-1.6-1.6l-31.4,0c-22,0-39.9-17.9-39.9-39.9
	c0-14.2,7.6-27.4,19.9-34.5l0.7-0.4c0.6-0.4,1-1,1-1.7l0-0.9C29.6,34.1,57.2,7.1,90.4,7.1c21.5,0,41.1,10.9,52.4,29.2l0.6,1
	c0.5,0.8,1.4,1.1,2.3,0.9l1.1-0.3c4-1.2,8.1-1.8,12.3-1.8c18,0,34.4,11.3,40.7,28.2l0.3,0.7c0.2,0.6,0.7,1.1,1.4,1.3l0.7,0.2
	c17.3,4.7,29.3,20.5,29.3,38.5c0,18.7-13.3,35.1-31.7,38.9c-0.5,0.1-1,0.4-1.3,0.9c-0.3,0.5-0.4,1-0.3,1.5l0.6,3
	c0.1,0.5,0.4,1,0.9,1.3c0.5,0.3,1,0.4,1.5,0.3c21.7-4.5,37.4-23.8,37.4-45.9C238.7,84.6,225.2,66.2,205.9,60.1z"/>
<path class="st0" d="M1244.6,149.3L1197,45.8c-0.2-0.4-0.6-0.7-1-0.7h-10.1c-0.4,0-0.8,0.3-1,0.7l-47.6,103.5
	c-0.2,0.4-0.1,0.8,0.1,1.1c0.2,0.3,0.6,0.5,1,0.5h12.8c0.4,0,0.9-0.3,1-0.7l11.9-26.3h53.8l12,26.3c0.2,0.4,0.6,0.7,1,0.7h12.8
	c0.4,0,0.7-0.2,1-0.5C1244.8,150,1244.8,149.6,1244.6,149.3z M1170.7,109.2l20.1-44.4l20.2,44.4H1170.7z"/>
<path class="st0" d="M1508.9,149.3l-47.6-103.5c-0.2-0.4-0.6-0.7-1-0.7h-10.1c-0.4,0-0.8,0.3-1,0.7l-47.6,103.5
	c-0.2,0.4-0.1,0.8,0.1,1.1c0.2,0.3,0.6,0.5,1,0.5h12.8c0.4,0,0.9-0.3,1-0.7l11.9-26.3h53.8l12,26.3c0.2,0.4,0.6,0.7,1,0.7h12.8
	c0.4,0,0.7-0.2,1-0.5C1509,150,1509,149.6,1508.9,149.3z M1435,109.2l20.1-44.4l20.2,44.4H1435z"/>
<path class="st0" d="M101.2,151.9h20.6v20.6c0,0.4,0.4,0.8,0.8,0.8h20.6c0.4,0,0.8-0.4,0.8-0.8v-20.6h20.6c0.4,0,0.8-0.4,0.8-0.8
	v-20.6c0-0.4-0.4-0.8-0.8-0.8h-20.6V109c0-0.4-0.4-0.8-0.8-0.8h-20.6c-0.4,0-0.8,0.4-0.8,0.8v20.6h-20.6c-0.4,0-0.8,0.4-0.8,0.8
	v20.6C100.4,151.5,100.8,151.9,101.2,151.9z M125.9,134.5c0.4,0,0.8-0.4,0.8-0.8v-20.6h12.5v20.6c0,0.4,0.4,0.8,0.8,0.8h20.6V147
	h-20.6c-0.4,0-0.8,0.4-0.8,0.8v20.6h-12.5v-20.6c0-0.4-0.4-0.8-0.8-0.8h-20.6v-12.5H125.9z"/>
<g>
	<path class="st0" d="M1514.5,46.6h-5.7v-1.4h13v1.4h-5.7v15.3h-1.6V46.6z"/>
	<path class="st0" d="M1524.2,45.1h2.3l6.1,14.1l6.1-14.1h2.2v16.8h-1.6V47.1h0l-6.4,14.8h-0.7l-6.5-14.8h0v14.8h-1.6V45.1z"/>
</g>
</svg>
