<svg xmlns="http://www.w3.org/2000/svg" viewBox="0 0 1509 217.5">
  <g id="a463d49c-26b0-413c-98e4-7f2108d6b267" data-name="Layer 2">
    <g id="ba4ce671-7313-4779-ac57-8df3d32a5224" data-name="Layer 1">
      <path d="M400,129.1a1.234,1.234,0,0,0-.8-.4,1.135,1.135,0,0,0-.8.3l-1.7,1.7c-7.8,7.4-17.5,11.1-29.6,11.1-25.4,0-44.5-18.8-44.5-43.8s19.1-43.8,44.5-43.8c12.2,0,21.9,3.6,29.6,10.9l1.7,1.7a1.135,1.135,0,0,0,.8.3,1.234,1.234,0,0,0,.8-.4l4.6-5.4a1,1,0,0,0-.1-1.5L403,58.3c-8.8-8.8-21.6-13.6-36-13.6-30.9,0-54.1,22.9-54.1,53.3s23.3,53.3,54.1,53.3c14.4,0,27.2-4.9,36-13.7l1.5-1.5a1.209,1.209,0,0,0,.1-1.5Z" style="fill: #24272a"/>
      <path d="M524,141.3H466.2V46.2a1.11,1.11,0,0,0-1.1-1.1h-7.4a1.11,1.11,0,0,0-1.1,1.1V149.7a1.11,1.11,0,0,0,1.1,1.1H524a1.11,1.11,0,0,0,1.1-1.1v-7.2A1.03,1.03,0,0,0,524,141.3Z" style="fill: #24272a"/>
      <path d="M796.8,149.2l-48-103.5a1.2,1.2,0,0,0-1-.7H742a1.2,1.2,0,0,0-1,.7L693,149.2a1.073,1.073,0,0,0,.1,1.1,1.231,1.231,0,0,0,1,.5h8.3a1.2,1.2,0,0,0,1-.7L745,60.4l41.6,89.7a1.2,1.2,0,0,0,1,.7h8.3a1.231,1.231,0,0,0,1-.5C796.9,149.9,797,149.5,796.8,149.2Z" style="fill: #24272a"/>
      <path d="M929.6,149,904,113.6c14.1-5.3,22.2-17.1,22.2-32.6,0-22.5-15.8-35.9-42.3-35.9H848.1a1.11,1.11,0,0,0-1.1,1.1v7.2a1.11,1.11,0,0,0,1.1,1.1h36.1c20.9,0,32.3,9.4,32.3,26.4s-11.5,26.4-32.3,26.4H848.1a1.11,1.11,0,0,0-1.1,1.1v41.2a1.11,1.11,0,0,0,1.1,1.1h7.4a1.11,1.11,0,0,0,1.1-1.1V116.9h27.2a62.391,62.391,0,0,0,10.1-.7l24.6,34.1a1.193,1.193,0,0,0,.9.5h9.2a1.1,1.1,0,0,0,1-.6A1.051,1.051,0,0,0,929.6,149Z" style="fill: #24272a"/>
      <path d="M1364.5,45h-83a1.11,1.11,0,0,0-1.1,1.1V57.2a1.11,1.11,0,0,0,1.1,1.1H1316v91.3a1.11,1.11,0,0,0,1.1,1.1h11.8a1.11,1.11,0,0,0,1.1-1.1V58.3h34.5a1.11,1.11,0,0,0,1.1-1.1V46.1A1,1,0,0,0,1364.5,45Z" style="fill: #24272a"/>
      <g>
        <path d="M574.3,54.6h68.3a1.11,1.11,0,0,0,1.1-1.1V46.3a1.11,1.11,0,0,0-1.1-1.1H574.3a1.11,1.11,0,0,0-1.1,1.1v7.2A1.182,1.182,0,0,0,574.3,54.6Z" style="fill: #24272a"/>
        <path d="M642.7,141.3H574.4a1.11,1.11,0,0,0-1.1,1.1v7.2a1.11,1.11,0,0,0,1.1,1.1h68.3a1.11,1.11,0,0,0,1.1-1.1v-7.2A1.11,1.11,0,0,0,642.7,141.3Z" style="fill: #24272a"/>
        <path d="M642.7,93.2H574.4a1.11,1.11,0,0,0-1.1,1.1v7.2a1.11,1.11,0,0,0,1.1,1.1h68.3a1.11,1.11,0,0,0,1.1-1.1V94.3A1.11,1.11,0,0,0,642.7,93.2Z" style="fill: #24272a"/>
      </g>
      <path d="M1034.2,45H992.8a1.11,1.11,0,0,0-1.1,1.1V149.5a1.11,1.11,0,0,0,1.1,1.1h41.4c33,0,56-21.7,56-52.9S1067.1,45,1034.2,45Zm-.6,92.5h-28.7V58.4h28.7c25.4,0,42.5,15.9,42.5,39.5S1059,137.5,1033.6,137.5Z" style="fill: #24272a"/>
      <path d="M189.9,84.4h-1.6c-21.2,0-34-2.8-53.7-19.6l-1-.9a1.657,1.657,0,0,0-2.1,0l-1,.9C110.8,81.5,98,84.4,76.8,84.4H75.2A1.58,1.58,0,0,0,73.6,86v24.6a1.58,1.58,0,0,0,1.6,1.6h3.1a1.58,1.58,0,0,0,1.6-1.6V90.7c19.2-.3,33.4-3.5,52.6-19.3,19.3,15.8,33.4,19,52.6,19.3v57.1c0,17.3-7.7,33.5-20.2,42.2a1.6,1.6,0,0,0-.4,2.2l1.8,2.6a1.834,1.834,0,0,0,1,.7h.3a1.613,1.613,0,0,0,.9-.3c14.1-9.9,22.9-28.1,22.9-47.4V86A1.561,1.561,0,0,0,189.9,84.4Z" style="fill: #fed925"/>
      <path d="M205.8,60a51.134,51.134,0,0,0-46.7-31.1,52.148,52.148,0,0,0-11.8,1.4A68.588,68.588,0,0,0,90.3,0C54.2,0,23.5,29.2,21.7,65.2A46.994,46.994,0,0,0,47,151.8H73.8c1.9,28.1,23.9,44,57.1,65l.8.5a1.2,1.2,0,0,0,.8.2,1.884,1.884,0,0,0,.8-.2l.8-.5c5.4-3.4,10.5-6.5,14.9-9.2l.4-.2q4.35-2.7,8.4-5.1a1.6,1.6,0,0,0,.5-2.2l-1.7-2.7a1.445,1.445,0,0,0-1-.7,1.721,1.721,0,0,0-1.2.2c-2.7,1.7-5.6,3.5-8.7,5.3l-.4.2c-4.1,2.5-8.4,5.1-12.9,7.9-31.8-20.1-52.6-35.4-52.6-62.5v-1.6a1.58,1.58,0,0,0-1.6-1.6H46.8a39.884,39.884,0,0,1-20-74.4l.7-.4a2.062,2.062,0,0,0,1-1.7v-.9C29.2,34,56.8,7,90.1,7a61.18,61.18,0,0,1,52.4,29.2l.6,1a2.09,2.09,0,0,0,2.3.9l1.1-.3A42.577,42.577,0,0,1,158.8,36a43.613,43.613,0,0,1,40.7,28.2l.3.7a2.037,2.037,0,0,0,1.4,1.3l.7.2a39.827,39.827,0,0,1-2.4,77.4,1.964,1.964,0,0,0-1.3.9,2.059,2.059,0,0,0-.3,1.5l.6,3a1.964,1.964,0,0,0,.9,1.3,2.059,2.059,0,0,0,1.5.3,47.061,47.061,0,0,0,37.4-45.9A46.509,46.509,0,0,0,205.8,60Z" style="fill: #24272a"/>
      <path d="M1244.6,149.2,1197,45.7a1.2,1.2,0,0,0-1-.7h-10.1a1.2,1.2,0,0,0-1,.7l-47.6,103.5a1.073,1.073,0,0,0,.1,1.1,1.231,1.231,0,0,0,1,.5h12.8a1.087,1.087,0,0,0,1-.7l11.9-26.3h53.8l12,26.3a1.2,1.2,0,0,0,1,.7h12.8a.986.986,0,0,0,.9-1.6Zm-73.9-40.1,20.1-44.4,20.2,44.4Z" style="fill: #24272a"/>
      <path d="M1508.9,149.2,1461.3,45.7a1.2,1.2,0,0,0-1-.7h-10.1a1.2,1.2,0,0,0-1,.7l-47.6,103.5a1.073,1.073,0,0,0,.1,1.1,1.231,1.231,0,0,0,1,.5h12.8a1.087,1.087,0,0,0,1-.7l11.9-26.3h53.8l12,26.3a1.2,1.2,0,0,0,1,.7H1508a1.389,1.389,0,0,0,1-.5A3.75,3.75,0,0,0,1508.9,149.2ZM1435,109.1l20.1-44.4,20.2,44.4Z" style="fill: #24272a"/>
      <path d="M101.2,151.8h20.6v20.6a.86.86,0,0,0,.8.8h20.6a.86.86,0,0,0,.8-.8V151.8h20.6a.86.86,0,0,0,.8-.8V130.4a.86.86,0,0,0-.8-.8H144V108.9a.86.86,0,0,0-.8-.8H122.6a.86.86,0,0,0-.8.8v20.6H101.2a.86.86,0,0,0-.8.8v20.6A.882.882,0,0,0,101.2,151.8Zm24.7-17.4a.86.86,0,0,0,.8-.8V113h12.5v20.6a.86.86,0,0,0,.8.8h20.6v12.5H140a.86.86,0,0,0-.8.8v20.6H126.7V147.7a.86.86,0,0,0-.8-.8H105.3V134.4Z" style="fill: #24272a"/>
    </g>
  </g>
</svg>
