<svg xmlns="http://www.w3.org/2000/svg" width="450" height="500" fill="none" xmlns:v="https://vecta.io/nano"><mask id="A" mask-type="alpha" maskUnits="userSpaceOnUse" x="0" y="0" width="450" height="500"><path fill="#c4c4c4" d="M0 0h450v500H0z"/></mask><g mask="url(#A)"><path d="M685.953 7.857a35 35 0 0 1 29.931 17.281l200.84 342.136c6.376 10.862 6.424 24.31.127 35.22L721.477 740.89a35 35 0 0 1-30.564 17.499l-396.718-2.864a35 35 0 0 1-29.931-17.281L63.425 396.107a35 35 0 0 1-.127-35.218L258.67 22.49c6.298-10.907 17.97-17.6 30.564-17.5l396.718 2.864z" fill="url(#B)"/><path d="M642.72 44.857a35 35 0 0 1 29.931 17.281l200.84 342.136a35 35 0 0 1 .127 35.219L678.242 777.89a35 35 0 0 1-30.563 17.499l-396.718-2.864a35 35 0 0 1-29.931-17.281L20.2 433.107a35 35 0 0 1-.127-35.218L215.437 59.49a35 35 0 0 1 30.564-17.499l396.718 2.864z" stroke="#0a487d"/></g><defs><linearGradient id="B" x1="160.984" y1="191.69" x2="819.164" y2="571.69" gradientUnits="userSpaceOnUse"><stop stop-color="#084276"/><stop offset="1" stop-color="#063965"/></linearGradient></defs></svg>