<svg xmlns="http://www.w3.org/2000/svg" width="562" height="426" fill="none" xmlns:v="https://vecta.io/nano"><mask id="A" mask-type="alpha" maskUnits="userSpaceOnUse" x="0" y="0" width="562" height="426"><path fill="#c4c4c4" d="M0 0h562v426H0z"/></mask><g mask="url(#A)"><path d="M-96.274 422.523a35 35 0 0 1-29.931-17.281l-200.84-342.135a35 35 0 0 1-.127-35.218l195.373-338.398c6.298-10.907 17.97-17.6 30.564-17.5l396.718 2.864a35 35 0 0 1 29.931 17.281l200.84 342.136a35 35 0 0 1 .127 35.218L331.008 407.89a35 35 0 0 1-30.564 17.499l-396.718-2.865z" fill="url(#B)"/><path d="M-53.04 385.523a35 35 0 0 1-29.931-17.28L-283.8 26.107a35 35 0 0 1-.127-35.218L-88.563-347.51A35 35 0 0 1-58-365.008l396.718 2.864a35 35 0 0 1 29.931 17.281L569.49-2.727a35 35 0 0 1 .127 35.218L374.242 370.89a35 35 0 0 1-30.563 17.499l-396.718-2.865z" stroke="#0a487d"/></g><defs><linearGradient id="B" x1="428.695" y1="238.69" x2="-229.484" y2="-141.31" gradientUnits="userSpaceOnUse"><stop stop-color="#084276"/><stop offset="1" stop-color="#063965"/></linearGradient></defs></svg>