<svg xmlns="http://www.w3.org/2000/svg" width="899" height="784" fill="none" xmlns:v="https://vecta.io/nano"><path d="M233.375 781.138a34.67 34.67 0 0 1-29.65-17.119L4.77 425.096a34.67 34.67 0 0 1-.126-34.887l193.54-335.22a34.67 34.67 0 0 1 30.276-17.335l392.993 2.838a34.67 34.67 0 0 1 29.65 17.118l198.954 338.923a34.67 34.67 0 0 1 .126 34.887l-193.54 335.22a34.67 34.67 0 0 1-30.276 17.334l-392.993-2.837z" fill="url(#A)"/><path d="M276.203 744.485a34.67 34.67 0 0 1-29.65-17.118L47.6 388.443a34.67 34.67 0 0 1-.126-34.887l193.54-335.22a34.67 34.67 0 0 1 30.276-17.335l392.993 2.838a34.67 34.67 0 0 1 29.65 17.118L892.886 359.88c6.316 10.76 6.364 24.083.126 34.888l-193.54 335.22a34.67 34.67 0 0 1-30.276 17.334l-392.993-2.837z" stroke="#0a487d" stroke-width=".991"/><defs><linearGradient id="A" x1="753.414" y1="599.03" x2="101.415" y2="222.598" gradientUnits="userSpaceOnUse"><stop stop-color="#084276"/><stop offset="1" stop-color="#063965"/></linearGradient></defs></svg>