<svg width="18" height="18" viewBox="0 0 18 18" fill="none" xmlns="http://www.w3.org/2000/svg">
<path d="M5.125 16V6.65625H2.21875V16H5.125ZM3.65625 5.40625C4.59375 5.40625 5.34375 4.625 5.34375 3.6875C5.34375 2.78125 4.59375 2 3.65625 2C2.75 2 2 2.78125 2 3.6875C2 4.625 2.75 5.40625 3.65625 5.40625ZM16 16V10.875C16 8.375 15.4375 6.4375 12.5 6.4375C11.0938 6.4375 10.1562 7.21875 9.75 7.9375H9.71875V6.65625H6.9375V16H9.84375V11.375C9.84375 10.1562 10.0625 9 11.5938 9C13.0625 9 13.0938 10.375 13.0938 11.4688V16H16Z" fill="white"/>
</svg>
