<svg width="161" height="103" viewBox="0 0 161 103" fill="none" xmlns="http://www.w3.org/2000/svg">
<path d="M55.9421 1.15553L49.1454 0V8.5134C52.0518 8.66073 54.9427 8.91495 57.8181 9.27316V1.58164C57.1914 1.44875 56.5745 1.26531 55.9421 1.15553Z" fill="#E0807C"/>
<path d="M26.0182 26.0876C20.2646 26.0876 11.5636 39.0686 11.5636 58.6275C11.5636 78.1863 20.2646 91.1673 26.0182 91.1673C31.7717 91.1673 40.4727 78.1863 40.4727 58.6275C40.4727 39.0686 31.7717 26.0876 26.0182 26.0876ZM26.0182 73.4183C20.3436 73.4183 15.9 66.9098 15.9 58.6275C15.9 50.3452 20.3436 43.8366 26.0182 43.8366C31.6927 43.8366 36.1363 50.3452 36.1363 58.6275C36.1363 66.9098 31.6927 73.4183 26.0182 73.4183Z" fill="#E0807C"/>
<path d="M30.3545 58.6275C30.3545 53.7266 28.4136 49.753 26.0181 49.753C23.6227 49.753 21.6818 53.7266 21.6818 58.6275C21.6818 63.5284 23.6227 67.502 26.0181 67.502C28.4136 67.502 30.3545 63.5284 30.3545 58.6275Z" fill="#E0807C"/>
<path d="M40.9498 14.255C47.0661 19.8189 51.5973 26.9745 54.0605 34.9621H57.7165C80.7322 34.9982 103.483 39.9815 124.497 49.5869C103.221 27.0872 73.9595 14.3431 43.3636 14.255H40.9498Z" fill="#E0807C"/>
<path d="M63.5999 3.14739V10.1543C66.5191 10.6786 69.4071 11.3387 72.2726 12.0811V6.88554C69.4932 5.38335 66.591 4.13248 63.5999 3.14739Z" fill="#E0807C"/>
<path d="M161 26.4011C151.95 27.9365 144.657 34.8264 142.441 43.9349L138.852 58.6275L142.441 73.3201C144.657 82.4286 151.95 89.3185 161 90.8539L153.304 59.3439C153.19 58.873 153.19 58.3819 153.304 57.911L161 26.4011Z" fill="#E0807C"/>
<path d="M78.0544 13.722C80.2918 14.4283 82.508 15.2011 84.703 16.0417C82.6223 14.0455 80.3991 12.2097 78.0544 10.5486V13.722Z" fill="#E0807C"/>
<path d="M55.7332 40.8785C57.1222 46.6879 57.8223 52.6461 57.8181 58.6275C57.8181 77.8223 50.9748 94.527 40.9498 103H43.3636C77.6282 102.908 110.01 86.9511 131.443 59.5981C108.715 47.335 83.4142 40.9117 57.7193 40.8785H55.7332ZM63.6634 60.9559C63.9274 59.6891 64.9677 58.7445 66.2283 58.6275L98.0282 55.6693C99.1829 55.561 100.29 56.1691 100.839 57.2134C101.388 58.2592 101.273 59.5389 100.548 60.4648L88.9843 75.2556C88.095 76.3924 86.5295 76.6971 85.293 75.9735L65.0567 64.1408C63.9641 63.5024 63.4009 62.214 63.6634 60.9559Z" fill="#E0807C"/>
<path d="M26.0181 14.255C11.6709 14.255 0 34.1605 0 58.6275C0 83.0945 11.6709 103 26.0181 103C40.3654 103 52.0363 83.0945 52.0363 58.6275C52.0363 34.1605 40.3654 14.255 26.0181 14.255ZM26.0181 97.0837C15.2379 97.0837 5.78181 79.1122 5.78181 58.6275C5.78181 38.1427 15.2379 20.1713 26.0181 20.1713C36.7983 20.1713 46.2545 38.1427 46.2545 58.6275C46.2545 79.1122 36.7983 97.0837 26.0181 97.0837Z" fill="#E0807C"/>
<path d="M91.7947 62.201L75.9004 63.6801L86.0157 69.5935L91.7947 62.201Z" fill="#E0807C"/>
</svg>
