<svg width="81" height="52" viewBox="0 0 81 52" fill="none" xmlns="http://www.w3.org/2000/svg">
<path d="M28.1448 0.583377L24.7253 0V4.29803C26.1876 4.37241 27.642 4.50075 29.0886 4.6816V0.798497C28.7733 0.731408 28.463 0.638797 28.1448 0.583377Z" fill="#E0807C"/>
<path d="M13.0899 13.1705C10.1952 13.1705 5.81772 19.724 5.81772 29.5983C5.81772 39.4727 10.1952 46.0262 13.0899 46.0262C15.9845 46.0262 20.362 39.4727 20.362 29.5983C20.362 19.724 15.9845 13.1705 13.0899 13.1705ZM13.0899 37.0656C10.235 37.0656 7.99937 33.7797 7.99937 29.5983C7.99937 25.417 10.235 22.1311 13.0899 22.1311C15.9448 22.1311 18.1804 25.417 18.1804 29.5983C18.1804 33.7797 15.9448 37.0656 13.0899 37.0656Z" fill="#E0807C"/>
<path d="M15.2715 29.5983C15.2715 27.1241 14.295 25.118 13.0899 25.118C11.8847 25.118 10.9082 27.1241 10.9082 29.5983C10.9082 32.0726 11.8847 34.0787 13.0899 34.0787C14.295 34.0787 15.2715 32.0726 15.2715 29.5983Z" fill="#E0807C"/>
<path d="M20.6021 7.19668C23.6792 10.0056 25.9589 13.6182 27.1981 17.6508H29.0375C40.6168 17.669 52.0627 20.1848 62.635 25.0341C51.9313 13.6751 37.2094 7.24116 21.8165 7.19668H20.6021Z" fill="#E0807C"/>
<path d="M31.9975 1.58897V5.12642C33.4661 5.39113 34.9191 5.72438 36.3608 6.0992V3.4762C34.9624 2.71781 33.5023 2.0863 31.9975 1.58897Z" fill="#E0807C"/>
<path d="M81 13.3287C76.4471 14.1039 72.7776 17.5822 71.6627 22.1807L69.8574 29.5983L71.6627 37.016C72.7776 41.6144 76.4471 45.0928 81 45.868L77.1281 29.96C77.0706 29.7223 77.0706 29.4744 77.1281 29.2366L81 13.3287Z" fill="#E0807C"/>
<path d="M39.2696 6.9276C40.3953 7.28418 41.5102 7.67432 42.6145 8.09872C41.5677 7.09094 40.4492 6.1641 39.2696 5.3255V6.9276Z" fill="#E0807C"/>
<path d="M28.0397 20.6377C28.7385 23.5706 29.0907 26.5786 29.0886 29.5983C29.0886 39.289 25.6457 47.7224 20.6021 52H21.8165C39.0552 51.9533 55.3465 43.8976 66.1297 30.0884C54.6953 23.8973 41.9661 20.6544 29.0389 20.6377H28.0397ZM32.0294 30.7738C32.1622 30.1343 32.6856 29.6574 33.3198 29.5983L49.3186 28.1049C49.8995 28.0502 50.4562 28.3572 50.7325 28.8844C51.0088 29.4124 50.9512 30.0585 50.5862 30.5259L44.7685 37.9931C44.3211 38.567 43.5335 38.7209 42.9114 38.3555L32.7304 32.3818C32.1807 32.0595 31.8973 31.409 32.0294 30.7738Z" fill="#E0807C"/>
<path d="M13.0899 7.19668C5.8717 7.19668 0 17.2461 0 29.5983C0 41.9506 5.8717 52 13.0899 52C20.3081 52 26.1798 41.9506 26.1798 29.5983C26.1798 17.2461 20.3081 7.19668 13.0899 7.19668ZM13.0899 49.0131C7.6663 49.0131 2.90886 39.9401 2.90886 29.5983C2.90886 19.2565 7.6663 10.1836 13.0899 10.1836C18.5135 10.1836 23.2709 19.2565 23.2709 29.5983C23.2709 39.9401 18.5135 49.0131 13.0899 49.0131Z" fill="#E0807C"/>
<path d="M46.1824 31.4024L38.1859 32.1492L43.275 35.1346L46.1824 31.4024Z" fill="#E0807C"/>
</svg>
