<svg width="164" height="42" viewBox="0 0 164 42" fill="none" xmlns="http://www.w3.org/2000/svg">
<path d="M78.228 33.476C77.004 33.476 75.78 33.34 74.556 33.068C73.3547 32.8187 72.3007 32.4673 71.394 32.014L71.904 27.39C74.216 28.6593 76.4147 29.294 78.5 29.294C79.588 29.294 80.438 29.0787 81.05 28.648C81.662 28.1947 81.968 27.56 81.968 26.744C81.968 26.132 81.8093 25.6107 81.492 25.18C81.1973 24.7267 80.71 24.296 80.03 23.888C79.3727 23.4573 78.4207 22.9587 77.174 22.392C75.1567 21.4853 73.6833 20.522 72.754 19.502C71.8473 18.482 71.394 17.1447 71.394 15.49C71.394 14.1753 71.7113 13.008 72.346 11.988C72.9807 10.968 73.8987 10.1747 75.1 9.608C76.3013 9.01867 77.7293 8.724 79.384 8.724C81.4467 8.724 83.5093 9.18867 85.572 10.118L85.13 14.606C83.974 14.0393 82.9087 13.62 81.934 13.348C80.982 13.0533 80.0187 12.906 79.044 12.906C78.0013 12.906 77.1967 13.11 76.63 13.518C76.086 13.926 75.814 14.5267 75.814 15.32C75.814 15.932 75.9953 16.4533 76.358 16.884C76.7207 17.292 77.1627 17.6547 77.684 17.972C78.228 18.2667 79.2027 18.7427 80.608 19.4C82.6253 20.3747 84.0873 21.3947 84.994 22.46C85.9233 23.5253 86.388 24.8967 86.388 26.574C86.388 28.682 85.6627 30.3593 84.212 31.606C82.7613 32.8527 80.7667 33.476 78.228 33.476ZM95.9704 33.34C94.2478 33.34 92.7858 32.9433 91.5844 32.15C90.3831 31.3567 89.4764 30.2913 88.8644 28.954C88.2751 27.6167 87.9804 26.132 87.9804 24.5C87.9804 22.8227 88.2638 21.3267 88.8304 20.012C89.3971 18.6747 90.2358 17.632 91.3464 16.884C92.4571 16.1133 93.7831 15.728 95.3244 15.728C97.2511 15.728 98.7698 16.408 99.8804 17.768C100.991 19.128 101.546 20.9527 101.546 23.242C101.546 23.8993 101.478 24.6247 101.342 25.418H92.1964C92.3324 26.9593 92.7858 28.1153 93.5564 28.886C94.3271 29.634 95.2791 30.008 96.4124 30.008C97.9538 30.008 99.4158 29.5547 100.798 28.648L100.9 32.218C99.5178 32.966 97.8744 33.34 95.9704 33.34ZM97.4324 22.562C97.4324 20.2273 96.6391 19.06 95.0524 19.06C93.4884 19.06 92.5478 20.2273 92.2304 22.562H97.4324ZM107.336 33.34C106.067 33.34 104.99 32.932 104.106 32.116C103.245 31.2773 102.814 30.11 102.814 28.614C102.814 27.05 103.279 25.8033 104.208 24.874C105.16 23.922 106.248 23.242 107.472 22.834C108.719 22.426 109.852 22.1993 110.872 22.154C110.872 21.1567 110.691 20.4427 110.328 20.012C109.966 19.5813 109.342 19.366 108.458 19.366C107.778 19.366 107.121 19.4793 106.486 19.706C105.852 19.91 105.138 20.2273 104.344 20.658L104.072 17.224C105.886 16.2267 107.71 15.728 109.546 15.728C111.246 15.728 112.572 16.238 113.524 17.258C114.499 18.2553 114.986 19.842 114.986 22.018V27.152C114.986 27.9907 115.02 28.6027 115.088 28.988C115.156 29.3733 115.258 29.6227 115.394 29.736C115.553 29.8267 115.791 29.872 116.108 29.872H116.652L116.38 33.34H114.578C113.944 33.34 113.332 33.1587 112.742 32.796C112.176 32.4333 111.756 31.9573 111.484 31.368C110.872 32.0253 110.249 32.524 109.614 32.864C108.98 33.1813 108.22 33.34 107.336 33.34ZM108.73 30.11C109.501 30.11 110.226 29.702 110.906 28.886V25.01C109.818 25.146 108.912 25.4747 108.186 25.996C107.461 26.4947 107.098 27.2313 107.098 28.206C107.098 28.8633 107.246 29.3507 107.54 29.668C107.835 29.9627 108.232 30.11 108.73 30.11ZM126.473 15.728C127.856 15.728 129.035 16.1247 130.009 16.918C131.007 17.7113 131.755 18.7767 132.253 20.114C132.775 21.4513 133.035 22.9247 133.035 24.534C133.035 26.1433 132.775 27.6167 132.253 28.954C131.755 30.2913 131.007 31.3567 130.009 32.15C129.035 32.9433 127.856 33.34 126.473 33.34C124.909 33.34 123.549 32.83 122.393 31.81L122.291 33H118.483V7.5H122.563V17.19C123.697 16.2153 125 15.728 126.473 15.728ZM125.691 30.008C126.689 30.008 127.471 29.5093 128.037 28.512C128.604 27.5147 128.887 26.1887 128.887 24.534C128.887 22.8793 128.604 21.5533 128.037 20.556C127.471 19.5587 126.689 19.06 125.691 19.06C124.581 19.06 123.742 19.5587 123.175 20.556C122.631 21.5307 122.359 22.8567 122.359 24.534C122.359 26.2113 122.631 27.5487 123.175 28.546C123.742 29.5207 124.581 30.008 125.691 30.008ZM138.481 33.34C137.211 33.34 136.135 32.932 135.251 32.116C134.389 31.2773 133.959 30.11 133.959 28.614C133.959 27.05 134.423 25.8033 135.353 24.874C136.305 23.922 137.393 23.242 138.617 22.834C139.863 22.426 140.997 22.1993 142.017 22.154C142.017 21.1567 141.835 20.4427 141.473 20.012C141.11 19.5813 140.487 19.366 139.603 19.366C138.923 19.366 138.265 19.4793 137.631 19.706C136.996 19.91 136.282 20.2273 135.489 20.658L135.217 17.224C137.03 16.2267 138.855 15.728 140.691 15.728C142.391 15.728 143.717 16.238 144.669 17.258C145.643 18.2553 146.131 19.842 146.131 22.018V27.152C146.131 27.9907 146.165 28.6027 146.233 28.988C146.301 29.3733 146.403 29.6227 146.539 29.736C146.697 29.8267 146.935 29.872 147.253 29.872H147.797L147.525 33.34H145.723C145.088 33.34 144.476 33.1587 143.887 32.796C143.32 32.4333 142.901 31.9573 142.629 31.368C142.017 32.0253 141.393 32.524 140.759 32.864C140.124 33.1813 139.365 33.34 138.481 33.34ZM139.875 30.11C140.645 30.11 141.371 29.702 142.051 28.886V25.01C140.963 25.146 140.056 25.4747 139.331 25.996C138.605 26.4947 138.243 27.2313 138.243 28.206C138.243 28.8633 138.39 29.3507 138.685 29.668C138.979 29.9627 139.376 30.11 139.875 30.11ZM153.482 32.218L147.668 16H151.918L155.522 27.56L159.126 16H163.376L154.094 41.228H149.946L153.482 32.218Z" fill="#204383"/>
<path d="M19.1107 5.39266L16.7888 5V7.8929C17.7817 7.94297 18.7693 8.02935 19.7515 8.15107V5.53745C19.5374 5.49229 19.3267 5.42996 19.1107 5.39266Z" fill="#E0807C"/>
<path d="M8.88819 13.8647C6.92268 13.8647 3.95031 18.2757 3.95031 24.922C3.95031 31.5682 6.92268 35.9792 8.88819 35.9792C10.8537 35.9792 13.8261 31.5682 13.8261 24.922C13.8261 18.2757 10.8537 13.8647 8.88819 13.8647ZM8.88819 29.948C6.94968 29.948 5.43167 27.7363 5.43167 24.922C5.43167 22.1076 6.94968 19.8959 8.88819 19.8959C10.8267 19.8959 12.3447 22.1076 12.3447 24.922C12.3447 27.7363 10.8267 29.948 8.88819 29.948Z" fill="#E0807C"/>
<path d="M10.3696 24.922C10.3696 23.2566 9.70651 21.9064 8.88819 21.9064C8.06987 21.9064 7.40682 23.2566 7.40682 24.922C7.40682 26.5873 8.06987 27.9376 8.88819 27.9376C9.70651 27.9376 10.3696 26.5873 10.3696 24.922Z" fill="#E0807C"/>
<path d="M13.9891 9.84392C16.0785 11.7346 17.6264 14.1661 18.4679 16.8803H19.7168C27.5793 16.8926 35.3512 18.5859 42.5299 21.8499C35.262 14.2044 25.2657 9.87386 14.8136 9.84392H13.9891Z" fill="#E0807C"/>
<path d="M21.7267 6.0695V8.45048C22.7239 8.62864 23.7105 8.85295 24.6894 9.10523V7.33975C23.7399 6.82929 22.7485 6.40424 21.7267 6.0695Z" fill="#E0807C"/>
<path d="M55 13.9712C51.9085 14.493 49.4169 16.8342 48.6598 19.9293L47.434 24.922L48.6598 29.9146C49.4169 33.0097 51.9085 35.3509 55 35.8727L52.371 25.1654C52.3319 25.0054 52.3319 24.8385 52.371 24.6785L55 13.9712Z" fill="#E0807C"/>
<path d="M26.6646 9.6628C27.4289 9.90282 28.186 10.1654 28.9358 10.4511C28.225 9.77275 27.4655 9.14891 26.6646 8.58447V9.6628Z" fill="#E0807C"/>
<path d="M19.0393 18.8907C19.5138 20.8648 19.753 22.8895 19.7515 24.922C19.7515 31.4445 17.4137 37.1208 13.9891 40H14.8136C26.5189 39.9686 37.5809 34.5465 44.9029 25.2518C37.1388 21.0847 28.4955 18.902 19.7178 18.8907H19.0393ZM21.7484 25.7132C21.8386 25.2827 22.1939 24.9617 22.6246 24.922L33.4879 23.9168C33.8824 23.8799 34.2604 24.0866 34.448 24.4414C34.6356 24.7968 34.5965 25.2317 34.3487 25.5463L30.3984 30.5723C30.0946 30.9586 29.5598 31.0621 29.1374 30.8162L22.2243 26.7954C21.8511 26.5785 21.6587 26.1407 21.7484 25.7132Z" fill="#E0807C"/>
<path d="M8.88819 9.84392C3.98695 9.84392 0 16.6079 0 24.922C0 33.236 3.98695 40 8.88819 40C13.7894 40 17.7764 33.236 17.7764 24.922C17.7764 16.6079 13.7894 9.84392 8.88819 9.84392ZM8.88819 37.9896C5.20551 37.9896 1.97515 31.8828 1.97515 24.922C1.97515 17.9611 5.20551 11.8543 8.88819 11.8543C12.5709 11.8543 15.8012 17.9611 15.8012 24.922C15.8012 31.8828 12.5709 37.9896 8.88819 37.9896Z" fill="#E0807C"/>
<path d="M31.3584 26.1363L25.9287 26.6389L29.3843 28.6483L31.3584 26.1363Z" fill="#E0807C"/>
</svg>
