<svg width="94" height="73" viewBox="0 0 94 73" fill="none" xmlns="http://www.w3.org/2000/svg">
<path d="M8.39499 64.476C7.17099 64.476 5.94699 64.34 4.72299 64.068C3.52166 63.8187 2.46766 63.4673 1.56099 63.014L2.07099 58.39C4.38299 59.6593 6.58166 60.294 8.66699 60.294C9.75499 60.294 10.605 60.0787 11.217 59.648C11.829 59.1947 12.135 58.56 12.135 57.744C12.135 57.132 11.9763 56.6107 11.659 56.18C11.3643 55.7267 10.877 55.296 10.197 54.888C9.53966 54.4573 8.58766 53.9587 7.34099 53.392C5.32366 52.4853 3.85033 51.522 2.92099 50.502C2.01433 49.482 1.56099 48.1447 1.56099 46.49C1.56099 45.1753 1.87833 44.008 2.51299 42.988C3.14766 41.968 4.06566 41.1747 5.26699 40.608C6.46833 40.0187 7.89633 39.724 9.55099 39.724C11.6137 39.724 13.6763 40.1887 15.739 41.118L15.297 45.606C14.141 45.0393 13.0757 44.62 12.101 44.348C11.149 44.0533 10.1857 43.906 9.21099 43.906C8.16833 43.906 7.36366 44.11 6.79699 44.518C6.25299 44.926 5.98099 45.5267 5.98099 46.32C5.98099 46.932 6.16233 47.4533 6.52499 47.884C6.88766 48.292 7.32966 48.6547 7.85099 48.972C8.39499 49.2667 9.36966 49.7427 10.775 50.4C12.7923 51.3747 14.2543 52.3947 15.161 53.46C16.0903 54.5253 16.555 55.8967 16.555 57.574C16.555 59.682 15.8297 61.3593 14.379 62.606C12.9283 63.8527 10.9337 64.476 8.39499 64.476ZM26.1374 64.34C24.4147 64.34 22.9527 63.9433 21.7514 63.15C20.5501 62.3567 19.6434 61.2913 19.0314 59.954C18.4421 58.6167 18.1474 57.132 18.1474 55.5C18.1474 53.8227 18.4307 52.3267 18.9974 51.012C19.5641 49.6747 20.4027 48.632 21.5134 47.884C22.6241 47.1133 23.9501 46.728 25.4914 46.728C27.4181 46.728 28.9367 47.408 30.0474 48.768C31.1581 50.128 31.7134 51.9527 31.7134 54.242C31.7134 54.8993 31.6454 55.6247 31.5094 56.418H22.3634C22.4994 57.9593 22.9527 59.1153 23.7234 59.886C24.4941 60.634 25.4461 61.008 26.5794 61.008C28.1207 61.008 29.5827 60.5547 30.9654 59.648L31.0674 63.218C29.6847 63.966 28.0414 64.34 26.1374 64.34ZM27.5994 53.562C27.5994 51.2273 26.8061 50.06 25.2194 50.06C23.6554 50.06 22.7147 51.2273 22.3974 53.562H27.5994ZM37.5032 64.34C36.2339 64.34 35.1572 63.932 34.2732 63.116C33.4119 62.2773 32.9812 61.11 32.9812 59.614C32.9812 58.05 33.4459 56.8033 34.3752 55.874C35.3272 54.922 36.4152 54.242 37.6392 53.834C38.8859 53.426 40.0192 53.1993 41.0392 53.154C41.0392 52.1567 40.8579 51.4427 40.4952 51.012C40.1326 50.5813 39.5092 50.366 38.6252 50.366C37.9452 50.366 37.2879 50.4793 36.6532 50.706C36.0186 50.91 35.3046 51.2273 34.5112 51.658L34.2392 48.224C36.0526 47.2267 37.8772 46.728 39.7132 46.728C41.4132 46.728 42.7392 47.238 43.6912 48.258C44.6659 49.2553 45.1532 50.842 45.1532 53.018V58.152C45.1532 58.9907 45.1872 59.6027 45.2552 59.988C45.3232 60.3733 45.4252 60.6227 45.5612 60.736C45.7199 60.8267 45.9579 60.872 46.2752 60.872H46.8192L46.5472 64.34H44.7452C44.1106 64.34 43.4986 64.1587 42.9092 63.796C42.3426 63.4333 41.9232 62.9573 41.6512 62.368C41.0392 63.0253 40.4159 63.524 39.7812 63.864C39.1466 64.1813 38.3872 64.34 37.5032 64.34ZM38.8972 61.11C39.6679 61.11 40.3932 60.702 41.0732 59.886V56.01C39.9852 56.146 39.0786 56.4747 38.3532 56.996C37.6279 57.4947 37.2652 58.2313 37.2652 59.206C37.2652 59.8633 37.4126 60.3507 37.7072 60.668C38.0019 60.9627 38.3986 61.11 38.8972 61.11ZM56.6402 46.728C58.0229 46.728 59.2015 47.1247 60.1762 47.918C61.1735 48.7113 61.9215 49.7767 62.4202 51.114C62.9415 52.4513 63.2022 53.9247 63.2022 55.534C63.2022 57.1433 62.9415 58.6167 62.4202 59.954C61.9215 61.2913 61.1735 62.3567 60.1762 63.15C59.2015 63.9433 58.0229 64.34 56.6402 64.34C55.0762 64.34 53.7162 63.83 52.5602 62.81L52.4582 64H48.6502V38.5H52.7302V48.19C53.8635 47.2153 55.1669 46.728 56.6402 46.728ZM55.8582 61.008C56.8555 61.008 57.6375 60.5093 58.2042 59.512C58.7709 58.5147 59.0542 57.1887 59.0542 55.534C59.0542 53.8793 58.7709 52.5533 58.2042 51.556C57.6375 50.5587 56.8555 50.06 55.8582 50.06C54.7475 50.06 53.9089 50.5587 53.3422 51.556C52.7982 52.5307 52.5262 53.8567 52.5262 55.534C52.5262 57.2113 52.7982 58.5487 53.3422 59.546C53.9089 60.5207 54.7475 61.008 55.8582 61.008ZM68.6478 64.34C67.3784 64.34 66.3018 63.932 65.4178 63.116C64.5564 62.2773 64.1258 61.11 64.1258 59.614C64.1258 58.05 64.5904 56.8033 65.5198 55.874C66.4718 54.922 67.5598 54.242 68.7838 53.834C70.0304 53.426 71.1638 53.1993 72.1838 53.154C72.1838 52.1567 72.0024 51.4427 71.6398 51.012C71.2771 50.5813 70.6538 50.366 69.7698 50.366C69.0898 50.366 68.4324 50.4793 67.7978 50.706C67.1631 50.91 66.4491 51.2273 65.6558 51.658L65.3838 48.224C67.1971 47.2267 69.0218 46.728 70.8578 46.728C72.5578 46.728 73.8838 47.238 74.8358 48.258C75.8104 49.2553 76.2978 50.842 76.2978 53.018V58.152C76.2978 58.9907 76.3318 59.6027 76.3998 59.988C76.4678 60.3733 76.5698 60.6227 76.7058 60.736C76.8644 60.8267 77.1024 60.872 77.4198 60.872H77.9638L77.6918 64.34H75.8898C75.2551 64.34 74.6431 64.1587 74.0538 63.796C73.4871 63.4333 73.0678 62.9573 72.7958 62.368C72.1838 63.0253 71.5604 63.524 70.9258 63.864C70.2911 64.1813 69.5318 64.34 68.6478 64.34ZM70.0418 61.11C70.8124 61.11 71.5378 60.702 72.2178 59.886V56.01C71.1298 56.146 70.2231 56.4747 69.4978 56.996C68.7724 57.4947 68.4098 58.2313 68.4098 59.206C68.4098 59.8633 68.5571 60.3507 68.8518 60.668C69.1464 60.9627 69.5431 61.11 70.0418 61.11ZM83.6495 63.218L77.8355 47H82.0855L85.6895 58.56L89.2935 47H93.5435L84.2615 72.228H80.1135L83.6495 63.218Z" fill="#FFFFFF"/>
<path d="M39.1107 0.392657L36.7888 0V2.8929C37.7817 2.94297 38.7693 3.02935 39.7515 3.15107V0.53745C39.5374 0.492294 39.3267 0.42996 39.1107 0.392657Z" fill="#FFFFFF"/>
<path d="M28.8882 8.86473C26.9227 8.86473 23.9503 13.2757 23.9503 19.922C23.9503 26.5682 26.9227 30.9792 28.8882 30.9792C30.8537 30.9792 33.8261 26.5682 33.8261 19.922C33.8261 13.2757 30.8537 8.86473 28.8882 8.86473ZM28.8882 24.948C26.9497 24.948 25.4317 22.7363 25.4317 19.922C25.4317 17.1076 26.9497 14.8959 28.8882 14.8959C30.8267 14.8959 32.3447 17.1076 32.3447 19.922C32.3447 22.7363 30.8267 24.948 28.8882 24.948Z" fill="#FFFFFF"/>
<path d="M30.3696 19.922C30.3696 18.2566 29.7065 16.9064 28.8882 16.9064C28.0699 16.9064 27.4068 18.2566 27.4068 19.922C27.4068 21.5873 28.0699 22.9376 28.8882 22.9376C29.7065 22.9376 30.3696 21.5873 30.3696 19.922Z" fill="#FFFFFF"/>
<path d="M33.9891 4.84392C36.0785 6.73456 37.6264 9.16609 38.4679 11.8803H39.7168C47.5793 11.8926 55.3512 13.5859 62.5299 16.8499C55.262 9.20438 45.2657 4.87386 34.8136 4.84392H33.9891Z" fill="#FFFFFF"/>
<path d="M41.7267 1.0695V3.45048C42.7239 3.62864 43.7105 3.85295 44.6894 4.10523V2.33975C43.7399 1.82929 42.7485 1.40424 41.7267 1.0695Z" fill="#FFFFFF"/>
<path d="M75 8.97124C71.9085 9.49298 69.4169 11.8342 68.6598 14.9293L67.434 19.922L68.6598 24.9146C69.4169 28.0097 71.9085 30.3509 75 30.8727L72.371 20.1654C72.3319 20.0054 72.3319 19.8385 72.371 19.6785L75 8.97124Z" fill="#FFFFFF"/>
<path d="M46.6646 4.6628C47.4289 4.90282 48.186 5.16541 48.9358 5.45106C48.225 4.77275 47.4655 4.14891 46.6646 3.58447V4.6628Z" fill="#FFFFFF"/>
<path d="M39.0393 13.8907C39.5138 15.8648 39.753 17.8895 39.7515 19.922C39.7515 26.4445 37.4137 32.1208 33.9891 35H34.8136C46.5189 34.9686 57.5809 29.5465 64.9029 20.2518C57.1388 16.0847 48.4955 13.902 39.7178 13.8907H39.0393ZM41.7484 20.7132C41.8386 20.2827 42.1939 19.9617 42.6246 19.922L53.4879 18.9168C53.8824 18.8799 54.2604 19.0866 54.448 19.4414C54.6356 19.7968 54.5965 20.2317 54.3487 20.5463L50.3984 25.5723C50.0946 25.9586 49.5598 26.0621 49.1374 25.8162L42.2243 21.7954C41.8511 21.5785 41.6587 21.1407 41.7484 20.7132Z" fill="#FFFFFF"/>
<path d="M28.8882 4.84392C23.987 4.84392 20 11.6079 20 19.922C20 28.236 23.987 35 28.8882 35C33.7894 35 37.7764 28.236 37.7764 19.922C37.7764 11.6079 33.7894 4.84392 28.8882 4.84392ZM28.8882 32.9896C25.2055 32.9896 21.9752 26.8828 21.9752 19.922C21.9752 12.9611 25.2055 6.85432 28.8882 6.85432C32.5709 6.85432 35.8012 12.9611 35.8012 19.922C35.8012 26.8828 32.5709 32.9896 28.8882 32.9896Z" fill="#FFFFFF"/>
<path d="M51.3584 21.1363L45.9287 21.6389L49.3843 23.6483L51.3584 21.1363Z" fill="#FFFFFF"/>
</svg>
