<?xml version="1.0" standalone="no"?>
<!DOCTYPE svg PUBLIC "-//W3C//DTD SVG 1.1//EN" "http://www.w3.org/Graphics/SVG/1.1/DTD/svg11.dtd" >
<svg xmlns="http://www.w3.org/2000/svg">
<metadata>Generated by IcoMoon</metadata>
<defs>
<font id="olliv-icons" horiz-adv-x="1024">
<font-face units-per-em="1024" ascent="960" descent="-64" />
<missing-glyph horiz-adv-x="1024" />
<glyph unicode="&#x20;" horiz-adv-x="512" d="" />
<glyph unicode="&#x2b;" glyph-name="plus" d="M512 960c40.395 0 73.143-32.747 73.143-73.143v-877.714c0-40.395-32.747-73.143-73.143-73.143s-73.143 32.747-73.143 73.143v877.714c0 40.395 32.747 73.143 73.143 73.143zM1024 448c0-40.395-32.747-73.143-73.143-73.143h-877.714c-40.395 0-73.143 32.747-73.143 73.143s32.747 73.143 73.143 73.143h877.714c40.395 0 73.143-32.747 73.143-73.143z" />
<glyph unicode="&#xe900;" glyph-name="announcement" d="M533.421 94.994l-30.094 198.184h-75.575l29.871-209.007c5.403-37.806-23.946-71.631-62.151-71.631-31.243 0-57.731 22.964-62.149 53.879l-32.406 226.76-76.789 2.182 33.397-239.765c9.807-68.623 68.6-119.596 137.947-119.596 84.796 0 149.942 75.077 137.949 158.995zM906.585 950.822l-302.663-172.889h-347.147c-133.909 0-242.463-108.515-242.463-242.376 0-133.858 85.458-240.196 209.817-240.196l76.789-2.182h303.005l302.663-172.886c45.94-26.243 103.102 6.913 103.102 59.809v710.91c0 52.893-57.163 86.051-103.102 59.81zM256.775 701.392h319.030l76.568 16.061 280.747 160.369v-684.534l-280.747 160.367-76.568 16.062h-319.030c-91.622 0-165.896 74.25-165.896 165.837 0 91.589 74.274 165.836 165.896 165.836zM575.805 535.556v-165.837l76.568-16.062v363.796l-76.568-16.061v-165.836z" />
<glyph unicode="&#xe901;" glyph-name="barcode" d="M317.248 900.625c26.89 0 48.687-19.611 48.687-43.803v-817.647c0-24.186-21.799-43.8-48.687-43.8s-48.687 19.613-48.687 43.8v817.647c0 24.191 21.799 43.803 48.687 43.803zM771.671 900.625c26.888 0 48.686-19.611 48.686-43.803v-817.647c0-24.186-21.8-43.8-48.686-43.8-26.894 0-48.693 19.613-48.693 43.8v817.647c0 24.191 21.8 43.803 48.693 43.803zM966.421 900.625c26.888 0 48.686-19.611 48.686-43.803v-817.647c0-24.186-21.8-43.8-48.686-43.8s-48.686 19.613-48.686 43.8v817.647c0 24.191 21.8 43.803 48.686 43.803zM57.58 900.625c-26.89 0-48.687-19.611-48.687-43.803v-817.647c0-24.186 21.799-43.8 48.687-43.8h64.917c26.89 0 48.687 19.613 48.687 43.8v817.647c0 24.191-21.799 43.803-48.687 43.803h-64.917zM512 900.625c-26.89 0-48.687-19.611-48.687-43.803v-817.647c0-24.186 21.799-43.8 48.687-43.8h64.917c26.888 0 48.686 19.613 48.686 43.8v817.647c0 24.191-21.8 43.803-48.686 43.803h-64.917z" />
<glyph unicode="&#xe902;" glyph-name="compass" d="M718.212 708.419l-297.824-136.196c-14.404-6.588-25.955-18.145-32.539-32.557l-136.12-297.991c-15.702-34.374 19.685-69.802 54.060-54.092l297.824 136.197c14.406 6.586 25.954 18.146 32.541 32.558l136.117 297.992c15.703 34.395-19.685 69.802-54.059 54.090zM558.59 401.381c-25.73-25.741-67.451-25.741-93.181 0-25.73 25.747-25.73 67.491 0 93.236s67.451 25.745 93.181 0c25.73-25.745 25.73-67.488 0-93.236zM512 960c-282.618 0-511.712-229.223-511.712-512 0-282.779 229.094-512 511.712-512s511.712 229.221 511.712 512c0 282.777-229.095 512-511.712 512zM512 35.098c-227.546 0-412.671 185.225-412.671 412.902 0 227.675 185.124 412.903 412.671 412.903 227.544 0 412.672-185.228 412.672-412.903 0-227.677-185.127-412.902-412.672-412.902z" />
<glyph unicode="&#xe903;" glyph-name="fingerprint" d="M38.933 769.227c121.077 117.956 288.013 190.773 472.073 190.773 185.149 0 352.971-73.682 474.217-192.873 18.737-18.422 18.971-48.522 0.514-67.23-18.451-18.707-48.606-18.939-67.349-0.517-103.943 102.182-247.96 165.538-407.383 165.538-158.49 0-301.748-62.613-405.55-163.739-18.823-18.338-48.974-17.971-67.344 0.819s-18.002 48.889 0.821 67.227zM513.054 684.115c-201.201 0-364.304-163.581-364.304-365.372v-1.371c0-26.32-21.274-47.657-47.518-47.657s-47.518 21.337-47.518 47.657v1.371c0 254.43 205.651 460.686 459.339 460.686 26.243 0 47.518-21.337 47.518-47.657s-21.274-47.657-47.518-47.657zM640.858 714.371c10.886 23.939 39.109 34.518 63.040 23.629 159.069-72.383 269.817-232.81 269.817-419.217v-0.303c0-26.303-21.314-47.623-47.606-47.623s-47.6 21.32-47.6 47.623v0.303c0 147.711-87.686 275.030-214.034 332.523-23.931 10.89-34.503 39.125-23.617 63.065zM513.143 503.607c-101.789 0-184.304-82.624-184.304-184.55v-180.577c0-26.303-21.294-47.623-47.562-47.623s-47.562 21.32-47.562 47.623v180.577c0 154.531 125.104 279.8 279.429 279.8s279.429-125.269 279.429-279.8v-180.577c0-26.303-21.297-47.623-47.56-47.623-26.269 0-47.566 21.32-47.566 47.623v180.577c0 101.926-82.514 184.55-184.303 184.55zM513.253 323.022c-16.441 0-29.77-13.331-29.77-29.771v-207.103c0-59.314-41.099-131-112.995-148.749-25.539-6.303-51.355 9.286-57.66 34.829-6.305 25.537 9.287 51.354 34.827 57.657 21.6 5.331 40.565 32.24 40.565 56.263v207.103c0 69.051 55.98 125.034 125.033 125.034 69.057 0 125.033-55.983 125.033-125.034v-207.103c0-26.309-21.326-47.634-47.631-47.634s-47.632 21.326-47.632 47.634v207.103c0 16.44-13.327 29.771-29.77 29.771z" />
<glyph unicode="&#xe904;" glyph-name="medal" d="M447.537 698.5l-138.183 230.42c-5.681 9.479-13.72 17.324-23.331 22.771s-20.47 8.31-31.517 8.31h-222.176c-25.886 0-41.038-29.14-26.206-50.36l222.415-317.92c59.407 55.54 134.965 93.66 218.997 106.78zM991.674 960h-222.174c-22.468 0-43.3-11.8-54.853-31.080l-138.179-230.42c84.029-13.12 159.587-51.24 218.993-106.761l222.416 317.901c14.833 21.22-0.317 50.36-26.203 50.36zM512.001 640c-194.29 0-351.803-157.6-351.803-352.002 0-194.398 157.513-351.998 351.803-351.998s351.802 157.599 351.802 351.998c0 194.402-157.513 352.002-351.802 352.002zM696.938 325.478l-75.818-73.916 17.927-104.44c3.199-18.723-16.51-33.020-33.279-24.18l-93.768 49.299-93.748-49.299c-16.79-8.903-36.479 5.48-33.282 24.18l17.93 104.44-75.818 73.916c-13.632 13.283-6.097 36.465 12.693 39.185l104.801 15.276 46.834 95.041c4.217 8.559 12.373 12.78 20.548 12.78 8.217 0 16.429-4.28 20.646-12.78l46.837-95.041 104.797-15.276c18.791-2.72 26.329-25.902 12.694-39.185z" />
<glyph unicode="&#xe905;" glyph-name="menu" d="M36.571 731.428h950.853c20.202 0 36.576 16.373 36.576 36.571v91.427c0 20.198-16.374 36.571-36.576 36.571h-950.853c-20.198 0-36.571-16.373-36.571-36.571v-91.427c0-20.198 16.372-36.571 36.571-36.571zM36.571 365.718h950.853c20.202 0 36.576 16.368 36.576 36.57v91.427c0 20.198-16.374 36.571-36.576 36.571h-950.853c-20.198 0-36.571-16.372-36.571-36.571v-91.427c0-20.202 16.372-36.57 36.571-36.57zM36.571 0.002h950.853c20.202 0 36.576 16.374 36.576 36.57v91.427c0 20.202-16.374 36.576-36.576 36.576h-950.853c-20.198 0-36.571-16.374-36.571-36.576v-91.427c0-20.196 16.372-36.57 36.571-36.57z" />
<glyph unicode="&#xe906;" glyph-name="pie" d="M30.512 387.749h446.663l-297.468-297.545c-11.369-11.374-30.080-12.294-41.769-1.281-72.847 68.65-122.955 161.191-137.656 265.218-2.522 17.811 12.254 33.608 30.231 33.608zM60.31 509.758c15.511 224.925 195.2 404.661 420.064 420.175 17.167 1.186 31.626-13.293 31.626-30.502v-421.305h-421.216c-17.204 0-31.662 14.46-30.475 31.631zM602.351 387.749v446.782c0 17.981 15.792 32.761 33.583 30.238 224.32-31.708 395.781-227.73 387.798-462.651-8.206-241.271-215.884-439.116-457.201-436.085-94.872 1.184-182.532 31.762-254.608 82.902-14.871 10.545-15.85 32.438-2.955 45.337l293.382 293.478z" />
<glyph unicode="&#xe907;" glyph-name="quote" d="M920.566 887.861h-251.427c-52.052 0-94.282-42.219-94.282-94.256v-251.35c0-52.037 42.23-94.256 94.282-94.256h157.145v-125.675c0-69.314-56.372-125.675-125.714-125.675h-15.713c-26.125 0-47.144-21.008-47.144-47.128v-94.256c0-26.119 21.019-47.128 47.144-47.128h15.713c173.643 0 314.284 140.597 314.284 314.186v471.281c0 52.037-42.23 94.256-94.288 94.256zM354.858 887.861h-251.427c-52.053 0-94.285-42.219-94.285-94.256v-251.35c0-52.037 42.232-94.256 94.285-94.256h157.142v-125.675c0-69.314-56.375-125.675-125.714-125.675h-15.714c-26.125 0-47.143-21.008-47.143-47.128v-94.256c0-26.119 21.018-47.128 47.143-47.128h15.714c173.642 0 314.284 140.597 314.284 314.186v471.281c0 52.037-42.232 94.256-94.285 94.256z" />
<glyph unicode="&#xe908;" glyph-name="secure" d="M499.457 958.177c8.324 2.431 17.168 2.43 25.491-0.003l409.080-119.594c19.394-5.669 32.724-23.465 32.724-43.685v-245.258c0-277.375-177.369-523.622-440.317-611.304-9.33-3.111-19.417-3.111-28.747 0-263.014 87.677-440.439 333.977-440.439 611.418v245.144c0 20.225 13.336 38.022 32.735 43.688l409.471 119.594zM148.2 760.767v-211.017c0-233.165 145.925-440.719 363.858-520.052 217.867 79.333 363.744 286.833 363.744 519.938v211.14l-363.611 106.301-363.99-106.31zM771.533 628.095c17.758-17.773 17.758-46.589 0-64.362l-272.852-273.066c-8.528-8.533-20.095-13.329-32.156-13.329s-23.628 4.796-32.156 13.329l-159.162 159.29c-17.76 17.773-17.76 46.589 0 64.362s46.552 17.773 64.311 0l127.007-127.106 240.694 240.882c17.758 17.773 46.555 17.773 64.313 0z" />
<glyph unicode="&#xe909;" glyph-name="star" d="M457.068 904.173l-124.985-253.537-279.638-40.788c-50.148-7.277-70.244-69.13-33.878-104.556l202.312-197.238-47.851-278.625c-8.613-50.359 44.405-88.083 88.81-64.529l250.162 131.557 250.164-131.557c44.402-23.363 97.421 14.171 88.81 64.529l-47.851 278.625 202.308 197.238c36.367 35.426 16.273 97.279-33.875 104.556l-279.64 40.788-124.986 253.537c-22.391 45.193-87.277 45.767-109.862 0z" />
<glyph unicode="&#xe90a;" glyph-name="starempty" d="M971.554 609.714l-279.638 40.754-124.982 253.328c-22.394 45.156-87.281 45.729-109.866 0l-124.985-253.328-279.638-40.754c-50.147-7.271-70.244-69.072-33.878-104.47l202.311-197.075-47.85-278.395c-8.613-50.317 44.406-88.010 88.81-64.476l250.162 131.448 250.164-131.448c44.403-23.343 97.422 14.159 88.807 64.476l-47.848 278.395 202.309 197.075c36.369 35.397 16.27 97.199-33.879 104.47zM704.552 340.313l45.363-264.805-237.914 124.944-237.912-124.944 45.361 264.805-192.55 187.509 266.048 38.649 119.051 241.082 119.052-241.082 266.048-38.649-192.55-187.509z" />
<glyph unicode="&#xe90b;" glyph-name="starhalf" d="M971.556 609.431l-279.631 40.716-124.962 252.951c-11.229 22.603-33.144 34.029-55.056 34.029-21.779 0-43.539-11.272-54.81-34.029l-125-252.932-279.648-40.678c-50.149-7.261-70.247-68.956-33.891-104.303l202.295-196.795-47.875-277.963c-6.802-39.705 24.892-71.554 60.389-71.554 9.419 0 19.104 2.238 28.408 7.167l250.17 131.224 250.148-131.263c9.29-4.875 18.953-7.090 28.335-7.090 35.533 0 67.286 31.736 60.483 71.457l-47.818 277.984 202.334 196.757c36.373 35.347 16.278 97.061-33.87 104.322zM738.98 374.041l-34.618-33.67 45.467-264.296-237.866 124.822 0.057 606.039 118.848-240.589 266.008-38.729-157.896-153.576z" />
<glyph unicode="&#xe90c;" glyph-name="add" d="M512 960c-282.767 0-512-229.228-512-512s229.233-512 512-512c282.767 0 512 229.233 512 512s-229.233 512-512 512zM512 21.335c-235.643 0-426.665 191.022-426.665 426.665s191.022 426.665 426.665 426.665c235.643 0 426.665-191.027 426.665-426.665s-191.022-426.665-426.665-426.665zM725.335 448c0-23.562-19.103-42.665-42.67-42.665h-127.995v-128c0-23.567-19.103-42.67-42.67-42.67s-42.665 19.103-42.665 42.67v128h-128c-23.562 0-42.665 19.103-42.665 42.665s19.103 42.665 42.665 42.665h128v128c0 23.562 19.103 42.665 42.665 42.665s42.67-19.103 42.67-42.665v-128h127.995c23.567 0 42.67-19.103 42.67-42.665z" />
<glyph unicode="&#xe90d;" glyph-name="minus" d="M960 448c0-35.346-28.654-64-64-64h-768c-35.346 0-64 28.654-64 64s28.654 64 64 64h768c35.346 0 64-28.654 64-64z" />
<glyph unicode="&#xe90e;" glyph-name="back" d="M682.792 945.003c19.996-19.994 19.996-52.412 0-72.408l-352.188-352.188c-39.99-39.99-39.99-104.827 0-144.813l352.188-352.193c19.996-19.992 19.996-52.409 0-72.407-19.994-19.992-52.412-19.992-72.408 0l-352.188 352.187c-79.979 79.983-79.979 209.655 0 289.634l352.188 352.188c19.996 19.996 52.414 19.996 72.408 0z" />
<glyph unicode="&#xe90f;" glyph-name="next" d="M341.208-49.003c-19.996 19.994-19.996 52.412 0 72.408l352.188 352.188c39.99 39.99 39.99 104.827 0 144.813l-352.188 352.193c-19.996 19.992-19.996 52.409 0 72.407 19.994 19.992 52.412 19.992 72.408 0l352.188-352.187c79.979-79.983 79.979-209.655 0-289.634l-352.188-352.188c-19.996-19.996-52.414-19.996-72.408 0z" />
<glyph unicode="&#xe910;" glyph-name="trendup" d="M200.177 832.642c0.744-64.141 53.341-115.534 117.482-114.79l286.747 3.323-571.334-584.729c-44.828-45.882-43.975-119.414 1.904-164.237 45.881-44.832 119.412-43.977 164.24 1.905l588.772 602.572 3.726-322.033c0.744-64.139 53.343-115.531 117.482-114.787 64.148 0.744 115.54 53.343 114.797 117.482l-6.727 580.68c-0.39 33.108-14.587 62.818-37.055 83.716-21.418 21.984-51.457 35.495-84.562 35.11l-580.68-6.729c-64.141-0.744-115.534-53.341-114.79-117.482z" />
<glyph unicode="&#xe911;" glyph-name="arrowleft" d="M465.382 69.174c34.667 34.67 34.667 90.872 0 125.541l-154.979 154.977h624.827c49.021 0 88.769 39.748 88.769 88.772 0 49.026-39.748 88.769-88.769 88.769h-643.899l174.052 174.052c34.667 34.666 34.667 90.872 0 125.538s-90.872 34.667-125.538 0l-313.846-313.846c-17.894-17.894-26.552-41.526-25.972-64.974-0.581-23.446 8.077-47.087 25.972-64.983l313.846-313.845c34.666-34.663 90.872-34.663 125.538 0z" />
<glyph unicode="&#xe912;" glyph-name="arrowright" d="M558.618 826.822c-34.67-34.667-34.67-90.872 0-125.539l154.977-154.978h-624.825c-49.026 0-88.769-39.744-88.769-88.769 0-49.027 39.744-88.768 88.769-88.768h643.899l-174.051-174.051c-34.67-34.67-34.67-90.872 0-125.54 34.663-34.663 90.872-34.663 125.54 0l313.845 313.845c17.888 17.895 26.553 41.53 25.971 64.976 0.583 23.449-8.074 47.084-25.971 64.979l-313.845 313.846c-34.67 34.666-90.879 34.666-125.54 0z" />
<glyph unicode="&#xe913;" glyph-name="trenddown" d="M899.31 751.286c-63.997 0-115.887-51.885-115.887-115.887v-286.133l-576.789 576.793c-45.258 45.256-118.632 45.256-163.89 0s-45.256-118.632 0-163.89l594.393-594.393h-321.336c-64.002 0-115.887-51.89-115.887-115.887 0-64.006 51.885-115.887 115.887-115.887h579.44c33.033 0 62.838 13.823 83.95 35.999 22.185 21.11 36.008 50.916 36.008 83.959v579.438c0 64.002-51.881 115.887-115.887 115.887z" />
<glyph unicode="&#xe914;" glyph-name="bullet" d="M696 448c0-101.618-82.382-184-184-184s-184 82.382-184 184c0 101.618 82.382 184 184 184s184-82.382 184-184z" />
<glyph unicode="&#xe915;" glyph-name="eyeshow" horiz-adv-x="1023" d="M978.827 517.191c-40.296 45.243-105.111 110.531-185.046 164.675-97.943 66.337-194.525 99.973-287.058 99.973s-189.395-34.137-285.635-101.463c-78.165-54.684-140.548-120.382-179.126-165.877-19.687-23.215-30.528-52.509-30.528-82.5 0-29.987 10.839-59.283 30.528-82.497 38.569-45.487 100.953-111.192 179.126-165.877 96.24-67.324 192.345-101.463 285.635-101.463s189.115 33.637 287.065 99.981c79.936 54.145 144.752 119.439 185.040 164.675 21.108 23.693 32.739 53.946 32.739 85.188 0 31.245-11.623 61.49-32.732 85.191l-0.008-0.008zM907.876 410.019c-36.707-41.208-95.541-100.551-167.381-149.206-81.928-55.489-160.586-83.63-233.781-83.63-73.193 0-151.205 28.36-231.173 84.298-69.849 48.862-126.167 108.25-161.118 149.472-10.672 12.587-10.672 29.511 0 42.098 34.951 41.215 91.269 100.603 161.118 149.465 79.965 55.938 157.743 84.298 231.173 84.298s151.846-28.14 233.781-83.63c71.832-48.656 130.675-107.991 167.381-149.206 11.531-12.945 11.531-31.024 0-43.969v0.008zM512.569 652.305c-58.836 0-114.152-22.91-155.752-64.513s-64.513-96.917-64.513-155.753c0-58.835 22.91-114.15 64.513-155.75s96.917-64.513 155.752-64.513c58.835 0 114.15 22.91 155.75 64.513s64.513 96.917 64.513 155.75c0 58.838-22.91 114.153-64.513 155.753s-96.917 64.513-155.75 64.513zM512.569 306.785c-69.067 0-125.249 56.189-125.249 125.247 0 69.061 56.189 125.25 125.249 125.25 69.058 0 125.247-56.189 125.247-125.25 0-69.058-56.189-125.247-125.247-125.247z" />
<glyph unicode="&#xe916;" glyph-name="arrowdown" d="M882.683 406.408c-34.121 34.124-89.452 34.124-123.573 0l-152.562-152.562v615.068c0 48.26-39.12 87.382-87.382 87.382-48.257 0-87.378-39.123-87.378-87.382v-633.837l-171.332 171.332c-34.125 34.124-89.452 34.124-123.577 0-34.125-34.128-34.125-89.452 0-123.579l308.943-308.941c17.614-17.615 40.877-26.138 63.957-25.565 23.082-0.574 46.346 7.948 63.963 25.565l308.941 308.941c34.128 34.128 34.128 89.452 0 123.579z" />
<glyph unicode="&#xe917;" glyph-name="caretdown" d="M825.083 717.162c42.477 42.474 111.335 42.474 153.811 0 42.468-42.472 42.468-111.335 0-153.807l-384.519-384.521c-22.631-22.631-52.743-33.202-82.373-31.713-29.627-1.488-59.742 9.083-82.37 31.713l-384.521 384.521c-42.474 42.472-42.474 111.335 0 153.807s111.335 42.474 153.807 0l313.083-313.085 313.079 313.085z" />
<glyph unicode="&#xe918;" glyph-name="eyehide" horiz-adv-x="1023" d="M995.079 336.77c-8.642-8.642-19.974-12.969-31.308-12.969s-22.661 4.321-31.301 12.963l-93.387 93.38c-37.684-32.342-75.814-59.819-113.788-82.039l58.473-101.271c12.227-21.172 4.972-48.252-16.207-60.479-6.971-4.024-14.585-5.935-22.093-5.935-15.3 0-30.182 7.941-38.384 22.142l-61.533 106.583c-33.489-13.090-66.684-21.888-99.344-26.35v-120.162c0-24.452-19.82-44.271-44.271-44.271s-44.268 19.82-44.268 44.271v118.83c-39.256 4.235-79.114 14.854-119.135 31.74l-63.877-110.642c-8.203-14.201-23.085-22.142-38.377-22.142-7.508 0-15.124 1.913-22.093 5.935-21.172 12.227-28.432 39.299-16.207 60.479l62.021 107.427c-29.338 18.289-58.608 39.836-87.536 64.444l-81.941-81.941c-8.642-8.642-19.974-12.969-31.301-12.969s-22.661 4.321-31.301 12.969c-17.291 17.291-17.291 45.319 0 62.609l79.985 79.985c-52.325 53.975-83.378 98.346-85.029 100.719-13.954 20.081-8.988 47.673 11.093 61.621 20.081 13.954 47.664 8.988 61.618-11.093 0.446-0.638 47.87-68.159 122.571-134.325 42.918-38.016 86.311-68.156 128.981-89.583 51.29-25.755 101.532-38.809 149.338-38.809 47.803 0 98.867 13.119 151.376 38.986 43.682 21.527 88.429 51.794 132.991 89.967 77.47 66.363 127.628 134.049 128.13 134.722 14.464 19.713 42.16 23.956 61.874 9.491s23.956-42.184 9.498-61.897c-1.602-2.188-29.623-40.127-76.699-88.351l91.432-91.426c17.291-17.291 17.291-45.319 0-62.609z" />
<glyph unicode="&#xe919;" glyph-name="cash" d="M554.665 917.333v-85.333h298.67c23.562 0 42.665-19.103 42.665-42.666s-19.103-42.667-42.665-42.667h-298.67v-272.254h136.131c113.331 0 205.204-91.872 205.204-205.209 0-113.331-91.873-205.204-205.204-205.204h-136.131v-85.335c0-23.562-19.103-42.665-42.666-42.665s-42.666 19.103-42.666 42.665v85.335h-298.665c-23.564 0-42.666 19.103-42.666 42.665 0 23.567 19.103 42.67 42.666 42.67h298.665v239.744h-119.871c-122.309 0-221.46 99.152-221.46 221.461s99.151 221.46 221.46 221.46h119.871v85.333c0 23.564 19.103 42.667 42.666 42.667s42.666-19.103 42.666-42.667zM469.332 746.667h-119.871c-75.181 0-136.127-60.946-136.127-136.127s60.946-136.127 136.127-136.127h119.871v272.254zM554.665 389.079v-239.744h136.131c66.202 0 119.869 53.668 119.869 119.869 0 66.207-53.668 119.875-119.869 119.875h-136.131z" />
<glyph unicode="&#xe91a;" glyph-name="check" d="M995.512 823.683c22.757-20.735 24.397-55.993 3.666-78.752l-609.493-668.95c-10.563-11.599-25.522-18.203-41.207-18.203s-30.644 6.602-41.207 18.203l-282.448 310c-20.735 22.757-19.096 58.019 3.664 78.752s58.016 19.096 78.752-3.664l241.238-264.778 568.285 623.729c20.731 22.757 55.991 24.399 78.75 3.662z" />
<glyph unicode="&#xe91b;" glyph-name="close" d="M124.945 931.912c-26.724 26.726-70.054 26.726-96.78 0s-26.726-70.055 0-96.78l387.071-387.071-387.194-387.191c-26.724-26.731-26.724-70.057 0-96.778 26.726-26.731 70.055-26.731 96.78 0l387.194 387.188 387.163-387.163c26.721-26.721 70.049-26.721 96.778 0 26.721 26.731 26.721 70.057 0 96.786l-387.163 387.157 387.040 387.040c26.721 26.726 26.721 70.054 0 96.78s-70.057 26.726-96.778 0l-387.040-387.040-387.073 387.071z" />
<glyph unicode="&#xe91c;" glyph-name="check-circle" d="M512-64c-282.77 0-512 229.233-512 512 0 282.77 229.23 512 512 512 282.767 0 512-229.23 512-512 0-282.767-229.233-512-512-512zM778.204 595.265c15.872 17.419 14.618 44.404-2.806 60.275-17.418 15.87-44.401 14.615-60.273-2.804l-289.171-317.386-117.083 128.508c-15.87 17.419-42.856 18.674-60.275 2.804s-18.674-42.858-2.803-60.277l148.622-163.118c8.086-8.878 19.534-13.932 31.539-13.932s23.454 5.053 31.539 13.932l320.711 351.998z" />
<glyph unicode="&#xe91d;" glyph-name="warning" d="M512-56c278.349 0 504 225.651 504 504 0 278.352-225.651 504-504 504-278.352 0-504-225.648-504-504 0-278.349 225.648-504 504-504zM512.005 700.001c23.194 0 41.998-18.805 41.998-41.999v-210.001c0-23.195-18.805-41.998-41.998-41.998-23.198 0-42.002 18.805-42.002 41.998v210.001c0 23.196 18.805 41.999 42.002 41.999zM575 259c0-34.791-28.204-63-63-63-34.793 0-62.999 28.209-62.999 63 0 34.796 28.206 63 62.999 63 34.796 0 63-28.204 63-63z" />
<glyph unicode="&#xe91e;" glyph-name="info" d="M511.999 44.796h0.006c-222.68 0-403.202 180.522-403.202 403.204s180.516 403.198 403.196 403.198c222.681 0 403.204-180.516 403.204-403.198s-180.522-403.204-403.204-403.204zM511.999-56c278.355 0 504 225.645 504 504s-225.645 504-504 504c-278.354 0-503.999-225.651-503.999-504s225.651-504 503.999-504zM562.397 700.003c0 27.833-22.566 50.398-50.398 50.398s-50.397-22.566-50.397-50.398 22.56-50.398 50.397-50.398c27.839 0 50.398 22.566 50.398 50.398zM511.999 548.802c-27.831 0-50.397-22.566-50.397-50.398v-302.401c0-27.833 22.56-50.398 50.397-50.398 27.839 0 50.398 22.566 50.398 50.398v302.401c0 27.833-22.56 50.398-50.398 50.398z" />
<glyph unicode="&#xe91f;" glyph-name="account" d="M512 472.383c134.653 0 243.811 109.159 243.811 243.811s-109.159 243.806-243.811 243.806c-134.653 0-243.806-109.159-243.806-243.811s109.159-243.811 243.806-243.811v0.006zM512 862.48c80.797 0 146.286-65.495 146.286-146.286s-65.489-146.286-146.286-146.286c-80.797 0-146.286 65.495-146.286 146.286s65.495 146.286 146.286 146.286zM950.857-15.234c0-26.928-21.832-48.76-48.76-48.76s-48.766 21.832-48.766 48.76c0 188.515-152.816 341.337-341.331 341.337s-341.331-152.827-341.331-341.343c0-26.928-21.832-48.76-48.76-48.76s-48.766 21.832-48.766 48.76c0 242.378 196.485 438.857 438.857 438.857s438.857-196.479 438.857-438.857v0.006z" />
<glyph unicode="&#xe920;" glyph-name="caretleft" d="M778.955 806.384c33.315 33.312 33.315 87.321 0 120.633-33.308 33.311-87.321 33.311-120.627 0l-413.284-413.282c-18.035-18.035-26.305-42.135-24.813-65.735-1.492-23.601 6.778-47.696 24.813-65.732l413.284-413.283c33.308-33.315 87.321-33.315 120.627 0 33.315 33.308 33.315 87.321 0 120.634l-358.381 358.38 358.381 358.383z" />
<glyph unicode="&#xe921;" glyph-name="remove" d="M512 64c-212.076 0-384 171.924-384 384s171.924 384 384 384c212.076 0 384-171.924 384-384s-171.924-384-384-384zM512-64c282.767 0 512 229.233 512 512s-229.233 512-512 512c-282.767 0-512-229.228-512-512s229.228-512 512-512zM576 512.123h85.294c35.343 0 64-28.652 64-64s-28.657-64-64-64h-298.67c-35.348 0-64 28.657-64 64s28.652 64 64 64h213.376z" />
<glyph unicode="&#xe922;" glyph-name="coin" d="M512 952c-278.354 0-504-225.646-504-504s225.646-504 504-504c278.354 0 504 225.651 504 504s-225.651 504-504 504zM512 28.002c-231.961 0-419.998 188.037-419.998 419.998s188.037 419.998 419.998 419.998c231.961 0 419.998-188.042 419.998-419.998s-188.037-419.998-419.998-419.998zM698.632 592.703c23.194 0 41.998 18.805 41.998 41.998s-18.805 41.998-41.998 41.998h-144.628v27.972c0 23.194-18.805 41.998-42.003 41.998s-41.998-18.805-41.998-41.998v-27.972h-46.927c-77.198 0-139.779-62.582-139.779-139.779s62.582-139.779 139.779-139.779h46.927v-93.779h-144.703c-23.194 0-41.998-18.805-41.998-41.998s18.805-41.998 41.998-41.998h144.703v-28.027c0-23.194 18.805-41.998 41.998-41.998s42.003 18.805 42.003 41.998v28.027h55.737c72.289 0 130.888 58.6 130.888 130.888s-58.6 130.888-130.888 130.888h-55.737v111.555l144.628 0.005zM470.002 481.148h-46.927c-30.804 0-55.778 24.974-55.778 55.778s24.974 55.778 55.778 55.778h46.927v-111.555zM609.741 397.146c25.896 0 46.892-20.992 46.892-46.887s-20.997-46.892-46.892-46.892h-55.737v93.779h55.737z" />
<glyph unicode="&#xe923;" glyph-name="copy" d="M679.998 615.998v210.002c0 69.587-56.413 126-126 126h-419.998c-69.587 0-126-56.413-126-126v-419.998c0-69.587 56.413-126 126-126h210.002v-210.002c0-69.587 56.413-126 126-126h419.998c69.587 0 126 56.413 126 126v419.998c0 69.587-56.413 126-126 126h-210.002zM553.998 867.998c23.199 0 42.003-18.805 42.003-41.998v-210.002h-126c-69.587 0-126-56.413-126-126v-126h-210.002c-23.194 0-41.998 18.805-41.998 42.003v419.998c0 23.194 18.805 41.998 41.998 41.998h419.998zM470.002 531.997h419.998c23.199 0 41.998-18.805 41.998-41.998v-419.998c0-23.194-18.805-41.998-41.998-41.998h-419.998c-23.194 0-41.998 18.805-41.998 41.998v419.998c0 23.194 18.805 41.998 41.998 41.998z" />
<glyph unicode="&#xe924;" glyph-name="olliv" d="M256.549 23.768c84.995 0 153.901 68.902 153.901 153.901s-68.902 153.896-153.901 153.896c-85 0-153.901-68.902-153.901-153.896s68.902-153.901 153.901-153.901zM512.001-56v142.062c0 55.042 46.182 97.892 97.257 118.349 96.611 38.708 165.015 133.303 165.015 243.589 0 144.633-117.639 262.272-262.272 262.272-110.245 0-204.805-68.347-243.538-164.903-20.518-51.151-63.595-97.372-118.939-97.372h-141.524c0 277.991 226.013 504.004 503.999 504.004s503.999-226.013 503.999-503.999c0-277.987-226.013-503.999-503.999-503.999z" />
<glyph unicode="&#xe925;" glyph-name="graduate" d="M500.302 925.644c-9.951-1.357-18.832-4.107-27.776-8.602-3.897-1.958-407-264.282-433.943-282.393-11.801-7.932-22.969-20.531-29.177-32.916-17.911-35.731-9.687-79.231 19.967-105.61 4.267-3.796 14.144-10.42 63.158-42.36l31.842-20.75-2.189-4.23c-1.204-2.326-2.744-6.005-3.421-8.177l-1.232-3.948v-411.626l1.234-3.929c5.114-16.288 17.942-27.779 34.537-30.922 5.527-1.054 14.338-0.653 19.707 0.884 14.728 4.223 25.987 15.445 30.672 30.564l1.217 3.929 0.526 374.592 14.736-9.595c8.105-5.271 14.817-9.652 14.915-9.732s-0.422-1.169-1.154-2.422c-0.732-1.254-2.115-4.529-3.073-7.278l-1.742-5.003-0.138-115.195c-0.137-114.3-0.131-115.233 0.933-119.75 1.301-5.525 4.882-12.87 8.439-17.315 5.367-6.703 14.19-12.47 22.908-14.966 5.969-1.706 17.082-1.717 23.009-0.022 5.381 1.543 11.23 4.534 16.429 8.394 16.607 12.349 36.523 20.148 51.446 20.148 13.839 0 23.024-5.261 35.388-20.269 9.387-11.39 14.549-19.348 26.462-40.791 4.745-8.542 10.781-19.126 13.413-23.529 18.385-30.717 39.412-46.81 68.027-52.066 7.459-1.369 25.699-1.369 33.157 0 25.388 4.661 44.994 18.037 61.434 41.908 4.819 6.993 8.315 12.865 17.378 29.211 12.612 22.734 16.435 28.895 24.814 40.007 6.172 8.178 13.802 15.825 17.952 17.994 6.341 3.312 10.132 4.118 19.211 4.076 9.379-0.042 14.929-1.016 25.788-4.539 10.18-3.297 25.757-10.532 31.66-14.703 0.769-0.542 3.397-1.948 5.835-3.117 11.644-5.587 26.393-5.455 37.931 0.332 5.335 2.68 8.083 4.687 12.207 8.91 4.529 4.645 8.089 10.516 10.369 17.099l1.732 5.003v233.182l-1.738 5.003c-0.958 2.749-2.343 6.025-3.075 7.278s-1.248 2.343-1.154 2.417c0.1 0.074 42.455 27.689 94.126 61.365 106.696 69.541 106.201 69.212 111.672 74.058 11.286 9.998 19.853 23.028 24.65 37.481 2.644 7.972 3.555 12.439 4.313 21.236 2.464 28.5-9.616 56.933-31.834 74.922-5.497 4.452-432.372 282.873-439.065 286.371-7.204 3.767-12.018 5.596-19.742 7.495-11.055 2.721-22.039 3.356-32.741 1.897zM720.422 702.188c114.195-74.489 209.332-136.531 211.412-137.872l3.791-2.438-211.37-137.88c-116.254-75.833-211.66-137.952-212.011-138.036-0.569-0.142-222.676 144.322-224.343 145.917-0.546 0.523 21.838 14.162 113.49 69.16 62.794 37.68 115.499 69.592 117.124 70.916 6.072 4.947 11.685 13.697 14.013 21.848 1.416 4.941 1.933 13.778 1.1 18.704-3.039 17.963-15.864 31.832-33.303 36.014-3.070 0.736-6.186 1.048-10.43 1.045-6.555-0.005-10.654-0.753-16.248-2.966-1.919-0.759-63.214-37.209-136.211-81.002l-132.722-79.622-116.31 75.854 211.666 138.082c116.416 75.946 211.905 137.998 212.198 137.896s93.964-61.132 208.153-135.621zM393.054 257.755c40.382-26.346 75.552-49.027 78.157-50.401 13.804-7.288 27.797-10.364 44.419-9.768 13.418 0.48 23.203 2.928 35.057 8.763 4.529 2.228 27.51 16.941 81.313 52.050l75 48.949 0.132-59.523c0.074-32.734 0.042-59.617-0.074-59.728-0.116-0.116-3.255 0.374-6.977 1.096-12.422 2.386-16.103 2.702-31.502 2.702-15.683 0-19.969-0.426-31.58-3.165-23.144-5.455-44.436-18.195-61.113-36.573-15.909-17.536-28.847-36.778-47.431-70.534-9.848-17.894-14.153-24.214-16.493-24.214-2.254 0-6.774 6.641-16.293 23.95-15.818 28.758-25.728 44.22-38.434 59.965-9.679 11.996-17.415 19.922-26.587 27.231-30.027 23.924-68.315 32.392-108.249 23.94l-5.658-1.2v116.265l1.447-0.953c0.797-0.522 34.487-22.508 74.868-48.848z" />
<glyph unicode="&#xe926;" glyph-name="support" d="M1015.999 447.998c0 86.192-59.512 158.477-139.687 178.040-20.2 183.336-175.595 325.958-364.313 325.958s-344.124-142.622-364.318-325.958c-80.169-19.562-139.681-91.847-139.681-178.040 0-101.221 82.055-183.27 183.27-183.27 25.302 0 45.816 20.514 45.816 45.816v274.906c0 151.827 123.081 274.908 274.908 274.908s274.907-123.081 274.907-274.908v-229.090c0-105.119-70.81-193.706-167.336-220.663-20.947 22.976-51.123 37.392-84.666 37.392-63.256 0-114.542-51.281-114.542-114.543s51.281-114.543 114.542-114.543c59.979 0 109.183 46.096 114.13 104.795 104.658 30.993 186.992 113.949 217.112 218.98 85.261 15.709 149.852 90.417 149.852 180.218h0.005zM99.637 447.998c0 33.916 18.429 63.53 45.816 79.369v-158.746c-27.386 15.845-45.816 45.458-45.816 79.376zM534.904 35.636c-12.651 0-22.905 10.26-22.905 22.91s10.254 22.91 22.905 22.91c12.651 0 22.91-10.26 22.91-22.91s-10.254-22.91-22.91-22.91zM878.54 368.621v158.752c27.392-15.845 45.822-45.458 45.822-79.374 0-33.918-18.429-63.532-45.822-79.376z" />
<glyph unicode="&#xe927;" glyph-name="bank" horiz-adv-x="1034" d="M885.84 220.612v322.727h47.64c95.793 0 128.058 127.976 43.706 173.392l-416.479 224.25c-12.639 6.938-27.695 11.018-43.706 11.018s-31.066-4.081-44.187-11.259l0.48 0.241-416.49-224.255c-84.341-45.416-52.076-173.386 43.717-173.386h47.667v-322.721c-76.386 0-138.31-61.924-138.31-138.31s61.924-138.31 138.31-138.31h737.652c76.386 0 138.31 61.919 138.31 138.31s-61.924 138.299-138.31 138.305zM100.521 635.542l416.479 224.25 416.479-224.255zM793.62 542.785v-322.721h-92.202v322.721zM609.208 542.785v-322.721h-184.412v322.721zM332.588 542.785v-322.721h-92.208v322.721zM885.829 36.173h-737.64c-0.151-0.002-0.328-0.003-0.505-0.003-25.464 0-46.107 20.642-46.107 46.107s20.642 46.107 46.107 46.107c0.177 0 0.355-0.001 0.532-0.003h737.626c25.245-0.285 45.602-20.818 45.602-46.104s-20.356-45.82-45.576-46.104h-0.027z" />
<glyph unicode="&#xe928;" glyph-name="credit" d="M830.816 812.364h-637.636c-100.613 0-182.179-81.566-182.179-182.179v-364.364c0-100.619 81.566-182.185 182.179-182.185h637.636c100.619 0 182.185 81.566 182.185 182.185v364.364c0 100.613-81.566 182.179-182.185 182.179zM193.18 721.271h637.636c50.309 0 91.092-40.783 91.092-91.092h-819.815c0 50.309 40.783 91.092 91.092 91.092h-0.005zM830.811 174.729h-637.631c-50.309 0-91.092 40.783-91.092 91.092v273.271h819.821v-273.271c0-50.309-40.783-91.092-91.092-91.092h-0.005zM329.815 356.908v-45.543c0-25.152-20.392-45.543-45.543-45.543h-45.543c-25.152 0-45.543 20.392-45.543 45.543v45.543c0 25.157 20.392 45.549 45.543 45.549h45.543c25.152 0 45.543-20.392 45.543-45.549z" />
<glyph unicode="&#xe929;" glyph-name="delete" d="M924.29 755.203h-156.297v51.198c0 84.83-68.77 153.599-153.599 153.599h-204.797c-84.83 0-153.599-68.77-153.599-153.599v-51.198h-156.29c-26.788 0-48.506-22.923-48.506-51.204s21.719-51.198 48.506-51.198h824.584c26.788 0 48.506 22.923 48.506 51.198s-21.719 51.198-48.506 51.198v0.006zM358.4 806.401c0 28.274 22.923 51.198 51.198 51.198h204.797c28.281 0 51.204-22.923 51.204-51.198v-51.198h-307.199v51.198zM204.8 601.604c28.274 0 51.198-22.923 51.198-51.198v-460.801c0-28.281 22.923-51.204 51.198-51.204h409.594c28.281 0 51.204 22.923 51.204 51.204v460.795c0 28.274 22.923 51.198 51.198 51.198s51.198-22.923 51.198-51.198v-460.801c0-84.83-68.77-153.599-153.599-153.599h-409.588c-84.83 0-153.599 68.77-153.599 153.599v460.801c0 28.274 22.923 51.198 51.198 51.198v0.006zM409.598 576.002c28.274 0 51.198-22.923 51.198-51.198v-358.398c0-28.281-22.923-51.204-51.198-51.204s-51.198 22.923-51.198 51.204v358.398c0 28.274 22.923 51.198 51.198 51.198zM614.394 576.002c28.281 0 51.204-22.923 51.204-51.198v-358.398c0-28.281-22.923-51.204-51.204-51.204s-51.198 22.923-51.198 51.204v358.398c0 28.274 22.923 51.198 51.198 51.198z" />
<glyph unicode="&#xe92a;" glyph-name="history" d="M245.301 750.401c71.112 62.772 164.415 100.802 266.699 100.802 222.681 0 403.204-180.522 403.204-403.204s-180.522-403.204-403.204-403.204c-222.68 0-403.196 180.522-403.196 403.204 0 27.833-22.566 50.398-50.398 50.398s-50.404-22.566-50.404-50.398c0-278.355 225.651-504 503.999-504s504 225.645 504 504-225.645 504-504 504c-135.232 0-258.122-53.331-348.602-140.006-1.506-1.446-2.91-2.964-4.197-4.542v43.746c0 27.833-22.566 50.398-50.398 50.398s-50.398-22.566-50.398-50.398v-100.802c0-55.672 45.13-100.802 100.802-100.802h100.802c27.833 0 50.398 22.566 50.398 50.398s-22.566 50.398-50.398 50.398l-14.709 0.012zM512 750.395c27.833 0 50.398-22.566 50.398-50.398v-228.906l133.704-115.246c21.083-18.175 23.442-49.999 5.274-71.082-18.175-21.083-49.999-23.442-71.082-5.268l-133.703 115.239c-22.214 19.148-34.988 47.024-34.988 76.356v228.9c0 27.833 22.566 50.398 50.397 50.398v0.006z" />
<glyph unicode="&#xe92b;" glyph-name="documents" d="M388.809 803.557c8.626 60.308 60.491 106.667 123.186 106.667h337.777c78.546 0 142.223-63.675 142.223-142.222v-462.223c0-58.911-47.759-106.665-106.67-106.665-19.635 0-35.553 15.918-35.553 35.553 0 19.64 15.918 35.558 35.553 35.558 19.64 0 35.558 15.918 35.558 35.553v462.223c0 39.273-31.836 71.111-71.112 71.111h-337.777c-23.223 0-42.979-14.841-50.3-35.556h210.326c78.546 0 142.223-63.675 142.223-142.222v-462.222c0-58.911-47.759-106.665-106.665-106.665-19.64 0-35.558 15.918-35.558 35.553s15.918 35.553 35.558 35.553c19.635 0 35.553 15.923 35.553 35.558v462.222c0 39.273-31.836 71.111-71.112 71.111h-337.777c-23.222 0-42.977-14.841-50.299-35.556h210.284c78.546 0 142.223-63.675 142.223-142.222v-426.666c0-78.546-63.677-142.223-142.223-142.223h-319.999c-78.547 0-142.222 63.677-142.222 142.223v426.666c0 78.547 63.675 142.222 142.222 142.222h36.83c8.627 60.307 60.492 106.666 123.185 106.666h54.566zM174.229 625.78c-39.273 0-71.111-31.838-71.111-71.111v-426.666c0-39.276 31.837-71.112 71.111-71.112h319.999c39.276 0 71.112 31.836 71.112 71.112v426.666c0 39.273-31.836 71.111-71.112 71.111h-319.999z" />
<glyph unicode="&#xe92c;" glyph-name="home" d="M562.492 800.226c0 83.822 67.947 151.774 151.774 151.774h149.961c83.821 0 151.774-67.951 151.774-151.774v-149.961c0-83.822-67.953-151.774-151.774-151.774h-149.961c-83.826 0-151.774 67.951-151.774 151.774v149.961zM8 800.226c0 83.822 67.951 151.774 151.774 151.774h149.961c83.822 0 151.774-67.951 151.774-151.774v-149.961c0-83.822-67.951-151.774-151.774-151.774h-149.961c-83.822 0-151.774 67.951-151.774 151.774v149.961zM8 245.735c0 83.826 67.951 151.774 151.774 151.774h149.961c83.822 0 151.774-67.947 151.774-151.774v-149.961c0-83.821-67.951-151.774-151.774-151.774h-149.961c-83.822 0-151.774 67.953-151.774 151.774v149.961zM714.266 397.509h149.961c83.821 0 151.774-67.947 151.774-151.774v-149.961c0-83.821-67.953-151.774-151.774-151.774h-149.961c-83.826 0-151.774 67.953-151.774 151.774v149.961c0 83.826 67.947 151.774 151.774 151.774zM715.474 297.134c-29.055 0-52.607-23.552-52.607-52.607v-147.542c0-29.055 23.552-52.607 52.607-52.607h147.542c29.049 0 52.607 23.552 52.607 52.607v147.542c0 29.055-23.559 52.607-52.607 52.607h-147.542z" />
<glyph unicode="&#xe92d;" glyph-name="id" d="M830.816 812.364h-637.636c-100.613 0-182.179-81.566-182.179-182.179v-364.364c0-100.619 81.566-182.185 182.179-182.185h637.636c100.619 0 182.185 81.566 182.185 182.185v364.364c0 100.613-81.566 182.179-182.185 182.179zM921.908 265.821c0-50.309-40.783-91.092-91.092-91.092h-637.636c-50.309 0-91.092 40.783-91.092 91.092v364.364c0 50.309 40.783 91.092 91.092 91.092h637.636c50.309 0 91.092-40.783 91.092-91.092v-364.364zM375.364 630.185h-45.543c-75.461 0-136.636-61.175-136.636-136.636v-91.087c0-75.461 61.175-136.636 136.636-136.636h45.543c75.461 0 136.636 61.175 136.636 136.636v91.087c0 75.461-61.175 136.636-136.636 136.636zM420.908 402.462c0-25.157-20.392-45.543-45.543-45.543h-45.543c-25.152 0-45.543 20.386-45.543 45.543v91.087c0 25.152 20.392 45.543 45.543 45.543h45.543c25.152 0 45.543-20.392 45.543-45.543v-91.087z" />
<glyph unicode="&#xe92e;" glyph-name="learn" d="M832.219 905.456h-182.981c-101.062 0-182.981-81.925-182.981-182.981v-548.949c0-101.062 81.92-182.981 182.981-182.981h182.981c101.062 0 182.981 81.92 182.981 182.981v548.949c0 101.056-81.92 182.981-182.981 182.981zM923.712 173.525c0-50.531-40.962-91.493-91.493-91.493h-182.981c-50.531 0-91.493 40.962-91.493 91.493v548.949c0 50.531 40.962 91.493 91.493 91.493h182.981c50.531 0 91.493-40.962 91.493-91.493v-548.949zM374.768 768.218c0-25.262-20.482-45.744-45.744-45.744h-274.48c-25.262 0-45.744 20.482-45.744 45.744s20.482 45.744 45.744 45.744h274.475c25.262 0 45.744-20.482 45.744-45.744h0.005zM374.768 448c0-25.262-20.482-45.744-45.744-45.744h-274.48c-25.262 0-45.744 20.482-45.744 45.744s20.482 45.744 45.744 45.744h274.475c25.262 0 45.744-20.482 45.744-45.744h0.005zM374.768 127.781c0-25.268-20.482-45.749-45.744-45.749h-274.48c-25.262 0-45.744 20.482-45.744 45.749s20.482 45.744 45.744 45.744h274.475c25.262 0 45.744-20.482 45.744-45.744h0.005z" />
<glyph unicode="&#xe92f;" glyph-name="question" d="M512-56c-278.354 0-504 225.646-504 504s225.651 504 504 504c278.349 0 504-225.651 504-504s-225.651-504-504-504zM689.967 648.87c-9.022 21.995-22.589 42.497-39.217 59.341-24.751 24.979-68.736 54.795-137.915 54.795-25.2 0-49.054-4.098-70.822-12.227-20.276-7.529-38.914-18.487-55.39-32.649-26.914-23.184-48.006-54.865-60.908-91.773-8.8-25.2 4.47-52.779 29.67-61.579s52.779 4.47 61.579 29.67c5.071 14.54 14.908 35.114 32.654 50.395 16.849 14.459 37.498 21.47 63.217 21.47 28.778 0 52.038-8.8 69.184-26.097 16.698-16.919 24.081-38.839 23.93-53.157-0.221-24.081-7.082-37.049-13.049-45.627-8.76-12.736-22.247-23.945-36.58-35.855l-0.544-0.454c-19.081-15.805-40.698-33.768-56.957-59.492-22.735-35.93-34.298-72.163-34.298-107.796 0-26.692 21.617-48.313 48.308-48.313s48.308 21.617 48.308 48.313c0 11.703 3.357 30.86 19.309 56.060 8.064 12.721 21.329 23.754 36.676 36.514l0.378 0.312 0.015 0.015c35.558 29.519 84.223 69.925 85.121 155.272 0.221 20.352-4.178 42.049-12.676 62.774v0.086h0.005zM566.145 189.050c0 0.449 0 0.892-0.076 1.341 0 0.449 0 0.897-0.152 1.341 0 0.449-0.071 0.897-0.152 1.27 0 0.232-0.040 0.469-0.081 0.69-0.035 0.202-0.066 0.398-0.066 0.58 0 0.318-0.081 0.635-0.152 0.932-0.015 0.060-0.031 0.121-0.040 0.181-0.015 0.055-0.026 0.106-0.035 0.157-0.071 0.444-0.152 0.892-0.221 1.265-0.152 0.822-0.373 1.719-0.599 2.535-0.106 0.393-0.217 0.806-0.323 1.22-0.116 0.444-0.232 0.887-0.347 1.31-0.221 0.822-0.519 1.638-0.822 2.46-0.297 0.822-0.599 1.638-0.968 2.46-0.297 0.822-0.67 1.638-1.043 2.389-0.378 0.822-0.746 1.562-1.194 2.308-0.373 0.746-0.822 1.567-1.265 2.308l-0.055 0.091c-0.428 0.711-0.862 1.431-1.36 2.147-0.176 0.292-0.393 0.58-0.585 0.837l-0.076 0.095c-0.031 0.040-0.055 0.076-0.081 0.111-0.176 0.292-0.393 0.58-0.59 0.837-0.055 0.076-0.106 0.141-0.157 0.212-0.157 0.257-0.347 0.478-0.549 0.716-0.091 0.106-0.181 0.212-0.272 0.328-0.066 0.081-0.126 0.161-0.186 0.237l-0.152 0.197c-0.157 0.197-0.307 0.393-0.484 0.61-0.146 0.146-0.272 0.312-0.404 0.473-0.131 0.171-0.267 0.343-0.418 0.494-0.1 0.1-0.202 0.212-0.302 0.323-0.050 0.055-0.095 0.111-0.146 0.161-0.146 0.166-0.297 0.338-0.449 0.484-0.146 0.152-0.297 0.318-0.444 0.484-0.152 0.166-0.302 0.338-0.449 0.484-0.297 0.297-0.599 0.599-0.897 0.968-0.292 0.297-0.595 0.599-0.963 0.892-0.152 0.152-0.318 0.302-0.484 0.449-0.1 0.086-0.197 0.176-0.292 0.262-0.066 0.060-0.131 0.126-0.192 0.186-0.152 0.146-0.318 0.297-0.484 0.449-0.171 0.146-0.338 0.297-0.484 0.444-0.297 0.297-0.67 0.599-1.048 0.822-0.152 0.126-0.292 0.232-0.433 0.343-0.152 0.116-0.297 0.232-0.459 0.358-0.050 0.040-0.1 0.081-0.152 0.121-0.207 0.166-0.388 0.302-0.57 0.449-0.152 0.116-0.307 0.237-0.473 0.373-0.192 0.116-0.358 0.242-0.524 0.373s-0.338 0.262-0.524 0.373c-0.186 0.111-0.373 0.242-0.559 0.373-0.1 0.071-0.202 0.141-0.302 0.207-0.086 0.060-0.171 0.111-0.257 0.166-0.368 0.221-0.741 0.464-1.114 0.706s-0.751 0.484-1.119 0.706c-0.746 0.449-1.492 0.897-2.308 1.27-0.347 0.171-0.706 0.363-1.068 0.549-0.242 0.126-0.484 0.257-0.721 0.378-0.176 0.091-0.352 0.176-0.524 0.262-0.181 0.086-0.363 0.166-0.539 0.252h-0.015c-0.61 0.287-1.2 0.559-1.83 0.796-0.413 0.146-0.822 0.312-1.229 0.484-0.409 0.166-0.822 0.333-1.229 0.478l-0.202 0.076c-0.756 0.272-1.502 0.544-2.258 0.751-0.242 0.066-0.494 0.136-0.746 0.212-0.599 0.171-1.215 0.352-1.79 0.459-0.409 0.111-0.832 0.202-1.26 0.297-0.428 0.091-0.862 0.186-1.27 0.297-0.226 0.035-0.428 0.076-0.635 0.111-0.207 0.040-0.413 0.076-0.635 0.116-0.449 0.071-0.892 0.152-1.27 0.221-0.232 0-0.464 0.040-0.69 0.081-0.202 0.035-0.398 0.071-0.575 0.071-0.449 0-0.897 0.071-1.27 0.152-0.106 0-0.212 0.005-0.323 0.010-0.116 0.005-0.232 0.015-0.347 0.026-0.226 0.020-0.449 0.035-0.67 0.035-0.449 0-0.897 0-1.346 0.076h-5.292c-0.449 0-0.897 0-1.341-0.076-0.449 0-0.897 0-1.27-0.071-0.449 0-0.897-0.076-1.27-0.152-0.232 0-0.469-0.040-0.69-0.081-0.207-0.035-0.398-0.071-0.58-0.071-0.318 0-0.64-0.076-0.932-0.146-0.116-0.031-0.232-0.055-0.338-0.076-0.318 0-0.64-0.081-0.932-0.152-0.116-0.026-0.232-0.055-0.338-0.076-0.822-0.152-1.719-0.373-2.535-0.595-0.398-0.111-0.811-0.217-1.225-0.328-0.212-0.050-0.418-0.106-0.625-0.161-0.232-0.060-0.459-0.121-0.68-0.181-0.822-0.226-1.638-0.524-2.46-0.827-0.822-0.292-1.638-0.595-2.46-0.963-0.822-0.297-1.638-0.675-2.389-1.048-0.822-0.373-1.567-0.741-2.308-1.189-0.746-0.373-1.567-0.822-2.308-1.27l-0.086-0.050c-0.716-0.433-1.436-0.862-2.147-1.36-0.292-0.176-0.58-0.393-0.837-0.59-0.071-0.055-0.141-0.106-0.207-0.157-0.292-0.176-0.58-0.393-0.837-0.59-0.071-0.050-0.141-0.106-0.207-0.157-0.262-0.152-0.484-0.343-0.721-0.544-0.106-0.091-0.212-0.181-0.328-0.278-0.157-0.121-0.297-0.232-0.433-0.338-0.197-0.157-0.393-0.302-0.61-0.484-0.1-0.076-0.192-0.152-0.283-0.221l-0.152-0.116c-0.106-0.081-0.207-0.161-0.312-0.242-0.095-0.076-0.197-0.157-0.302-0.242-0.146-0.146-0.318-0.297-0.484-0.444-0.166-0.152-0.338-0.302-0.484-0.449-0.055-0.055-0.116-0.116-0.176-0.171-0.1-0.091-0.202-0.186-0.307-0.278-0.166-0.146-0.338-0.297-0.484-0.449-0.297-0.292-0.599-0.595-0.968-0.892-0.333-0.262-0.549-0.535-0.801-0.851-0.031-0.035-0.060-0.076-0.095-0.116-0.146-0.146-0.297-0.312-0.444-0.484-0.152-0.166-0.297-0.333-0.449-0.484-0.146-0.146-0.297-0.318-0.449-0.484-0.081-0.091-0.161-0.176-0.237-0.262-0.071-0.076-0.141-0.152-0.207-0.221-0.297-0.297-0.599-0.67-0.822-0.968-0.106-0.136-0.207-0.262-0.302-0.383-0.086-0.116-0.176-0.226-0.262-0.338-0.050-0.066-0.1-0.126-0.152-0.197-0.035-0.040-0.066-0.081-0.1-0.126-0.121-0.157-0.232-0.292-0.338-0.433-0.060-0.081-0.121-0.157-0.186-0.237-0.095-0.121-0.192-0.242-0.297-0.373-0.111-0.192-0.242-0.358-0.373-0.524s-0.262-0.338-0.373-0.524c-0.176-0.292-0.393-0.58-0.585-0.837-0.055-0.076-0.106-0.141-0.152-0.207-0.221-0.373-0.464-0.746-0.706-1.119s-0.484-0.746-0.706-1.119c-0.449-0.741-0.892-1.492-1.27-2.308-0.106-0.207-0.217-0.423-0.328-0.64-0.071-0.141-0.146-0.283-0.221-0.428-0.131-0.242-0.257-0.489-0.383-0.73-0.091-0.176-0.176-0.343-0.257-0.509-0.086-0.192-0.171-0.373-0.257-0.554-0.283-0.615-0.554-1.2-0.791-1.835-0.146-0.409-0.318-0.816-0.484-1.229-0.091-0.221-0.181-0.438-0.267-0.661-0.076-0.192-0.146-0.378-0.217-0.57l-0.071-0.197c-0.272-0.756-0.544-1.507-0.751-2.263l-0.040-0.152c-0.212-0.771-0.418-1.543-0.63-2.379-0.111-0.409-0.207-0.837-0.297-1.26-0.095-0.433-0.186-0.862-0.302-1.275-0.071-0.444-0.152-0.892-0.221-1.265-0.035-0.226-0.076-0.454-0.116-0.67-0.035-0.212-0.076-0.413-0.111-0.599 0-0.237-0.040-0.469-0.081-0.69-0.035-0.207-0.071-0.398-0.071-0.58 0-0.449-0.076-0.892-0.152-1.27 0-0.444-0.076-0.892-0.152-1.341 0-0.449 0-0.892-0.071-1.341v-5.368c0-0.449 0-0.892 0.071-1.341 0-0.449 0.071-0.897 0.152-1.341 0-0.449 0.071-0.897 0.152-1.27 0-0.232 0.040-0.469 0.081-0.69 0.035-0.207 0.071-0.398 0.071-0.58 0-0.318 0.076-0.635 0.146-0.932 0.020-0.071 0.035-0.141 0.050-0.212 0.010-0.040 0.020-0.086 0.026-0.126 0.071-0.444 0.152-0.892 0.221-1.265 0.152-0.822 0.373-1.719 0.599-2.535 0.106-0.393 0.212-0.801 0.323-1.215 0.116-0.449 0.232-0.892 0.347-1.315 0.221-0.822 0.519-1.638 0.822-2.46 0.297-0.822 0.599-1.638 0.968-2.46 0.060-0.131 0.116-0.262 0.171-0.393 0.091-0.212 0.181-0.418 0.267-0.63 0.197-0.469 0.388-0.927 0.604-1.366 0.373-0.822 0.746-1.562 1.189-2.308 0.221-0.373 0.428-0.761 0.635-1.154s0.413-0.782 0.635-1.154l0.055-0.091c0.428-0.716 0.862-1.431 1.36-2.147 0.221-0.373 0.449-0.741 0.741-1.119 0.076-0.121 0.157-0.242 0.237-0.363 0.116-0.166 0.237-0.323 0.347-0.473 0.055-0.071 0.106-0.141 0.157-0.207 0.076-0.121 0.157-0.237 0.242-0.347 0.095-0.126 0.202-0.247 0.307-0.373 0.091-0.1 0.181-0.212 0.272-0.323 0.121-0.157 0.232-0.297 0.338-0.433 0.157-0.202 0.307-0.393 0.484-0.615l0.111-0.136c0.242-0.312 0.449-0.57 0.711-0.832 0.146-0.146 0.297-0.312 0.449-0.484 0.040-0.045 0.086-0.091 0.126-0.141 0.106-0.116 0.212-0.237 0.323-0.343 0.146-0.146 0.297-0.312 0.449-0.484 0.152-0.166 0.297-0.333 0.449-0.484 0.297-0.292 0.599-0.595 0.892-0.963 0.262-0.338 0.535-0.549 0.847-0.801l0.015-0.015 0.1-0.081c0.146-0.146 0.318-0.297 0.484-0.449 0.166-0.146 0.338-0.297 0.484-0.444 0.146-0.152 0.318-0.297 0.484-0.449s0.333-0.297 0.484-0.449c0.297-0.297 0.67-0.595 1.043-0.822 0.066-0.050 0.126-0.1 0.186-0.146 0.086-0.066 0.166-0.131 0.247-0.192 0.197-0.157 0.393-0.307 0.61-0.484 0.157-0.121 0.297-0.232 0.433-0.338 0.197-0.157 0.393-0.307 0.61-0.484 0.186-0.111 0.352-0.242 0.524-0.373 0.166-0.126 0.338-0.257 0.524-0.368 0.292-0.176 0.58-0.393 0.837-0.59 0.071-0.055 0.141-0.106 0.207-0.157 0.373-0.221 0.746-0.464 1.119-0.706s0.746-0.484 1.119-0.711c0.741-0.444 1.492-0.892 2.308-1.265 0.146-0.076 0.297-0.152 0.449-0.232 0.202-0.106 0.409-0.212 0.615-0.323 0.418-0.217 0.842-0.438 1.24-0.64 0.192-0.086 0.373-0.171 0.554-0.257 0.61-0.283 1.2-0.554 1.83-0.787 0.413-0.146 0.822-0.318 1.229-0.484s0.816-0.338 1.229-0.484l0.202-0.071c0.756-0.272 1.507-0.544 2.258-0.751 0.242-0.066 0.494-0.136 0.746-0.212 0.599-0.176 1.215-0.352 1.79-0.459 0.181-0.050 0.368-0.095 0.559-0.141 0.232-0.055 0.469-0.106 0.701-0.157 0.428-0.095 0.862-0.186 1.27-0.302 0.1-0.015 0.197-0.031 0.292-0.050 0.116-0.020 0.232-0.040 0.343-0.060 0.207-0.035 0.413-0.076 0.635-0.111 0.318 0 0.64-0.076 0.932-0.146 0.116-0.031 0.226-0.055 0.333-0.076 0.232 0 0.469-0.045 0.69-0.081 0.207-0.040 0.398-0.071 0.58-0.071 0.449 0 0.892-0.076 1.27-0.152 0.449 0 0.892-0.076 1.27-0.152 0.449 0 0.892 0 1.341-0.076h5.368c0.449 0 0.892 0 1.341 0.076 0.449 0 0.897 0 1.341 0.152 0.449 0 0.897 0.071 1.27 0.152 0.232 0 0.469 0.040 0.69 0.081 0.207 0.035 0.398 0.071 0.58 0.071 0.318 0 0.635 0.076 0.932 0.146 0.060 0.015 0.116 0.026 0.176 0.040 0.055 0.015 0.106 0.026 0.161 0.035 0.444 0.071 0.892 0.152 1.265 0.221 0.822 0.152 1.719 0.378 2.535 0.599 0.393 0.106 0.806 0.217 1.22 0.323 0.444 0.116 0.887 0.232 1.31 0.347 0.822 0.221 1.638 0.519 2.46 0.822 0.822 0.297 1.638 0.599 2.46 0.968 0.822 0.297 1.638 0.67 2.389 1.043 0.822 0.378 1.567 0.746 2.308 1.194 0.746 0.373 1.567 0.822 2.308 1.265l0.091 0.055c0.716 0.428 1.431 0.862 2.147 1.36 0.186 0.111 0.373 0.242 0.559 0.373s0.368 0.257 0.559 0.373c0.292 0.171 0.58 0.393 0.837 0.585 0.071 0.055 0.141 0.106 0.207 0.157 0.262 0.157 0.484 0.347 0.721 0.549 0.106 0.091 0.212 0.181 0.323 0.272 0.197 0.157 0.368 0.287 0.544 0.423 0.161 0.126 0.323 0.252 0.504 0.398 0.121 0.1 0.237 0.197 0.352 0.292 0.226 0.197 0.444 0.383 0.69 0.53 0.081 0.081 0.171 0.166 0.262 0.247 0.071 0.066 0.146 0.136 0.221 0.202 0.166 0.152 0.338 0.297 0.484 0.449 0.152 0.146 0.318 0.297 0.484 0.444 0.166 0.152 0.338 0.302 0.484 0.449 0.146 0.152 0.318 0.297 0.484 0.449s0.338 0.297 0.484 0.449c0.297 0.292 0.599 0.595 0.892 0.963 0.152 0.152 0.297 0.318 0.449 0.484 0.152 0.171 0.297 0.338 0.449 0.484 0.146 0.152 0.297 0.318 0.449 0.484 0.146 0.171 0.297 0.338 0.444 0.484 0.297 0.297 0.599 0.67 0.822 0.968 0.186 0.186 0.343 0.404 0.509 0.63 0.1 0.136 0.202 0.278 0.312 0.418 0.126 0.152 0.232 0.292 0.343 0.433 0.152 0.197 0.302 0.388 0.478 0.61 0.116 0.186 0.242 0.352 0.373 0.524 0.131 0.166 0.262 0.333 0.373 0.519 0.111 0.192 0.242 0.373 0.373 0.559s0.257 0.373 0.368 0.559c0.226 0.373 0.469 0.746 0.711 1.119s0.484 0.746 0.706 1.119c0.449 0.741 0.897 1.492 1.27 2.308 0.171 0.343 0.363 0.706 0.549 1.063 0.221 0.423 0.444 0.847 0.64 1.245 0.086 0.192 0.171 0.373 0.257 0.554 0.283 0.615 0.554 1.2 0.791 1.835 0.373 0.822 0.67 1.638 0.963 2.46l0.076 0.202c0.272 0.751 0.544 1.502 0.746 2.258 0.071 0.252 0.146 0.499 0.221 0.751 0.171 0.58 0.347 1.16 0.454 1.779 0.111 0.409 0.202 0.837 0.297 1.26 0.091 0.433 0.186 0.862 0.297 1.275 0.076 0.444 0.152 0.892 0.226 1.265 0.071 0.449 0.152 0.897 0.221 1.27 0 0.086 0.005 0.176 0.015 0.262 0.015 0.146 0.040 0.287 0.066 0.428 0.035 0.207 0.071 0.398 0.071 0.58 0 0.449 0.071 0.892 0.152 1.27 0 0.444 0.071 0.892 0.152 1.341 0 0.449 0 0.892 0.071 1.341v5.368h-0.055z" />
<glyph unicode="&#xe930;" glyph-name="caretright" d="M245.042 806.382c-33.311 33.312-33.311 87.321 0 120.633s87.321 33.311 120.633 0l413.28-413.281c18.036-18.035 26.307-42.135 24.811-65.735 1.494-23.601-6.776-47.696-24.811-65.732l-413.28-413.283c-33.312-33.315-87.321-33.315-120.633 0-33.311 33.308-33.311 87.321 0 120.634l358.385 358.38-358.385 358.382z" />
<glyph unicode="&#xe931;" glyph-name="list" d="M261.717 748.344c0 27.644 22.412 50.055 50.055 50.055h650.744c27.65 0 50.055-22.412 50.055-50.055s-22.406-50.055-50.055-50.055h-650.744c-27.644 0-50.055 22.412-50.055 50.055zM111.545 798.399h-50.061c-27.644 0-50.055-22.412-50.055-50.055s22.412-50.055 50.055-50.055h50.055c27.644 0 50.055 22.412 50.055 50.055s-22.406 50.055-50.049 50.055zM962.516 498.055h-650.744c-27.644 0-50.055-22.412-50.055-50.055s22.412-50.055 50.055-50.055h650.744c27.65 0 50.055 22.412 50.055 50.055s-22.406 50.055-50.055 50.055zM111.545 498.055h-50.061c-27.644 0-50.055-22.412-50.055-50.055s22.412-50.055 50.055-50.055h50.055c27.644 0 50.055 22.412 50.055 50.055s-22.412 50.055-50.055 50.055h0.006zM962.516 197.711h-650.744c-27.644 0-50.055-22.412-50.055-50.055s22.412-50.055 50.055-50.055h650.744c27.65 0 50.055 22.412 50.055 50.055s-22.406 50.055-50.055 50.055zM111.545 197.711h-50.061c-27.644 0-50.055-22.412-50.055-50.055s22.412-50.055 50.055-50.055h50.055c27.644 0 50.055 22.412 50.055 50.055s-22.412 50.055-50.055 50.055h0.006z" />
<glyph unicode="&#xe932;" glyph-name="filter" d="M210.645 472.926c93.675 0 172.387 64.068 194.702 150.777h545.795c27.755 0 50.257 22.503 50.257 50.257s-22.503 50.257-50.257 50.257h-545.789c-22.321 86.714-101.032 150.783-194.708 150.783-111.026 0-201.034-90.008-201.034-201.034s90.008-201.034 201.034-201.034v-0.006zM210.645 774.48c55.516 0 100.52-45.003 100.52-100.52s-45.003-100.52-100.52-100.52c-55.516 0-100.52 45.003-100.52 100.52s45.003 100.52 100.52 100.52zM813.753 422.669c-93.675 0-172.387-64.074-194.702-150.783h-545.831c-27.755 0-50.257-22.503-50.257-50.257s22.503-50.257 50.257-50.257h545.831c22.315-86.708 101.026-150.777 194.702-150.777 111.032 0 201.034 90.008 201.034 201.034s-90.003 201.040-201.034 201.040zM813.753 121.115c-55.516 0-100.52 45.003-100.52 100.514s45.003 100.52 100.52 100.52c55.516 0 100.52-45.003 100.52-100.52s-45.003-100.514-100.52-100.514z" />
<glyph unicode="&#xe933;" glyph-name="location" horiz-adv-x="1030" d="M514.996 952c203.987 0 369.604-165.614 369.604-369.599 0-106.478-55.34-230.194-123.313-339.729-98.648-159.030-221.961-288.253-221.961-288.253-6.351-6.652-15.153-10.419-24.33-10.419-9.17 0-17.974 3.766-24.324 10.419 0 0-123.312 129.223-221.961 288.253-67.973 109.535-123.312 233.251-123.312 339.729 0 203.985 165.614 369.599 369.597 369.599zM514.996 750.401c-92.733 0-167.997-75.263-167.997-168s75.263-167.999 167.997-167.999c92.738 0 168.002 75.263 168.002 167.999s-75.265 168-168.002 168z" />
<glyph unicode="&#xe934;" glyph-name="logout" d="M690.53 264.73v-137.454c0-101.221-82.050-183.276-183.269-183.276h-274.908c-101.215 0-183.27 82.055-183.27 183.276v641.454c0 101.215 82.055 183.27 183.27 183.27h274.908c101.221 0 183.269-82.055 183.269-183.27v-137.454c0-25.302-20.514-45.816-45.816-45.816s-45.816 20.514-45.816 45.816v137.454c0 50.611-41.027 91.637-91.637 91.637h-274.908c-50.611 0-91.637-41.027-91.637-91.637v-641.454c0-50.611 41.027-91.637 91.637-91.637h274.908c50.61 0 91.637 41.027 91.637 91.637v137.454c0 25.302 20.514 45.816 45.816 45.816s45.816-20.514 45.816-45.816zM948.080 512.796l-97.196 97.196c-17.89 17.89-46.905 17.89-64.795 0s-17.89-46.905 0-64.795l51.379-51.379h-376.023c-25.302 0-45.816-20.514-45.816-45.816s20.514-45.816 45.816-45.816h376.023l-51.379-51.379c-17.89-17.89-17.89-46.9 0-64.795 17.89-17.89 46.905-17.89 64.795 0l97.196 97.196c35.782 35.788 35.782 93.804 0 129.591z" />
<glyph unicode="&#xe935;" glyph-name="market" d="M830.008 628.252c18.192-18.714 18.192-48.982 0-67.696l-142.313-146.383c-8.794-9.091-20.821-14.201-33.365-14.201h-122.761l-128.518-132.191c-8.794-9.085-20.821-14.201-33.369-14.201h-142.319c-26.256 0-47.017 21.826-47.017 48.038s20.756 48.033 47.017 48.033h122.761l128.518 132.199c8.794 9.085 20.821 14.196 33.365 14.196h122.761l128.53 132.202c18.368 18.895 48.341 18.895 66.707 0l0.005 0.005zM1015.199 676.728v-457.46c0-126.323-102.406-228.723-228.728-228.723h-548.943c-126.323 0.005-228.728 102.406-228.728 228.728v457.454c0 126.323 102.406 228.728 228.728 228.728h548.943c126.323 0 228.728-102.406 228.728-228.728zM923.707 676.728c0 75.793-61.443 137.236-137.236 137.236h-548.943c-75.793 0-137.236-61.443-137.236-137.236v-457.46c0-75.793 61.443-137.236 137.236-137.236h548.943c75.793 0 137.236 61.443 137.236 137.236v457.46z" />
<glyph unicode="&#xe936;" glyph-name="arrowup" d="M128.797 489.234c35.068-35.071 91.923-35.071 126.991 0l168.698 168.698v-632.136c0-49.595 40.203-89.796 89.794-89.796 49.595 0 89.796 40.2 89.796 89.796v627.576l164.139-164.137c35.064-35.071 91.923-35.071 126.985 0 35.071 35.067 35.071 91.923 0 126.989l-317.474 317.475c-18.095 18.101-42.003 26.859-65.723 26.272-23.72 0.586-47.628-8.17-65.729-26.272l-317.475-317.475c-35.068-35.067-35.068-91.923 0-126.989z" />
<glyph unicode="&#xe937;" glyph-name="caretup" d="M198.918 178.839c-42.473-42.477-111.336-42.477-153.808 0-42.473 42.468-42.473 111.335 0 153.802l384.52 384.523c22.627 22.627 52.743 33.201 82.369 31.718 29.629 1.482 59.74-9.091 82.371-31.718l384.518-384.523c42.477-42.468 42.477-111.335 0-153.802-42.477-42.477-111.335-42.477-153.81 0l-313.078 313.078-313.080-313.078z" />
<glyph unicode="&#xe938;" glyph-name="mylocation" d="M512.082 599.202c-80.292 0-145.383-67.694-145.383-151.202s65.092-151.202 145.383-151.202c80.292 0 145.383 67.699 145.383 151.202s-65.092 151.202-145.383 151.202zM512.082 397.601c-26.762 0-48.466 22.563-48.466 50.399s21.697 50.399 48.466 50.399c26.767 0 48.459-22.563 48.459-50.399s-21.697-50.399-48.459-50.399zM948.153 498.399h-51.462c-21.868 182.382-160.862 326.938-336.23 349.682v53.519c0 27.836-21.697 50.399-48.466 50.399s-48.459-22.563-48.459-50.399v-53.519c-175.368-22.745-314.367-167.3-336.235-349.682h-51.462c-26.762 0-48.459-22.563-48.459-50.399s21.697-50.399 48.459-50.399h51.462c21.868-182.382 160.862-326.938 336.235-349.682v-53.519c0-27.836 21.697-50.399 48.459-50.399s48.466 22.563 48.466 50.399v53.519c175.368 22.745 314.362 167.3 336.23 349.682h51.462c26.767 0 48.466 22.563 48.466 50.399s-21.697 50.399-48.466 50.399zM511.996 145.601c-160.584 0-290.768 135.388-290.768 302.399s130.184 302.399 290.768 302.399c160.584 0 290.773-135.388 290.773-302.404s-130.184-302.399-290.773-302.399v0.005z" />
<glyph unicode="&#xe939;" glyph-name="xcircle" d="M512-56c278.349 0 504 225.651 504 504s-225.651 504-504 504c-278.349 0-504-225.646-504-504s225.651-504 504-504zM289.287 670.748c24.601 24.601 64.492 24.601 89.097 0l133.646-133.646 133.631 133.631c24.605 24.605 64.492 24.605 89.097 0 24.605-24.601 24.605-64.492 0-89.097l-133.631-133.631 133.641-133.641c24.601-24.605 24.601-64.492 0-89.097-24.605-24.605-64.492-24.605-89.097 0l-133.641 133.641-133.655-133.655c-24.605-24.601-64.492-24.601-89.097 0-24.605 24.605-24.605 64.492 0 89.097l133.655 133.655-133.646 133.646c-24.605 24.605-24.605 64.492 0 89.097z" />
<glyph unicode="&#xe93a;" glyph-name="notification" d="M887.272 264.486c-12.555 25.121-19.095 52.817-19.095 80.903v169.394c0 181.66-136.002 331.558-311.742 353.425 0.053 0.908 0.091 1.827 0.091 2.752v44.52c0 24.587-19.934 44.52-44.526 44.52s-44.52-19.934-44.52-44.52v-44.52c0-0.925 0.038-1.838 0.091-2.746-175.74-21.872-311.742-171.765-311.742-353.43v-169.394c0-28.086-6.54-55.782-19.1-80.903-44.777-89.553 20.345-194.92 120.471-194.92h121.235c0-73.766 59.8-133.566 133.566-133.566s133.567 59.8 133.567 133.566h121.24c100.121 0 165.248 105.368 120.466 194.92zM511.999 25.046c-24.587 0-44.52 19.928-44.52 44.52h89.041c0-24.592-19.934-44.52-44.521-44.52zM766.806 158.606h-509.607c-33.931 0-56.002 35.71-40.828 66.062 18.742 37.484 28.497 78.814 28.497 120.722v169.394c0 147.532 119.6 267.131 267.131 267.131s267.132-119.6 267.132-267.131v-169.394c0-41.907 9.756-83.239 28.497-120.722 15.178-30.352-6.892-66.062-40.823-66.062z" />
<glyph unicode="&#xe93b;" glyph-name="share" d="M1015.734 641.393v239.344c0.121 1.733 0.145 3.441 0.081 5.135-0.032 0.71-0.073 1.411-0.121 2.121-0.186 5.345-1.096 10.73-2.628 15.971-2.927 10.803-8.239 20.919-16.631 28.61-0.331 0.297-0.654 0.597-0.984 0.887-4.604 4.402-10.286 8.336-16.47 11.446-8.433 4.41-17.712 7.134-27.352 7.094-0.662 0-1.323-0.008-1.975-0.032-0.105 0-0.202-0.008-0.297-0.016h-244.108c-16.961 0-34.695-7.377-46.7-19.378-11.456-11.456-20.040-30.287-19.378-46.7 0.765-17.074 6.385-34.801 19.378-46.7 12.883-11.89 28.747-19.378 46.7-19.378h84.903l-270.372-270.372c-5.868-5.868-11.777-11.73-17.686-17.59-11.834-11.738-23.685-23.491-35.284-35.382l-0.775-0.775c-12.003-12.003-19.378-29.739-19.378-46.692s7.159-35.566 19.378-46.692c12.56-11.567 29.077-20.153 46.7-19.388 17.51 0.775 34.14 6.723 46.692 19.388l324.149 324.141v-85.032c0-16.961 7.377-34.687 19.378-46.7 11.456-11.456 30.287-20.040 46.7-19.378 17.066 0.775 34.801 6.385 46.692 19.378 11.898 12.883 19.388 28.739 19.388 46.7v-0.008zM883.631 339.744v91.409h-0.008c0 17.96 7.488 33.817 19.378 46.594 11.898 12.995 29.634 18.614 46.7 19.378 16.412 0.662 35.245-7.932 46.7-19.378 12.003-12.003 19.378-29.737 19.378-46.7v-251.097c0-15.091-1.984-29.957-4.297-44.822-3.297-21.371-11.23-41.307-20.259-60.799-17.849-38.323-48.683-70.15-83.588-93.279-41.082-27.312-89.321-37.003-137.891-37.003h-475.76c-5.692 0-11.382-0.016-17.074-0.024-11.382-0.024-22.758-0.049-34.14 0.024-82.815 0.331-161.889 45.266-203.292 117.399-20.371 35.462-31.165 76.325-31.279 117.18v492.39c0 5.184-0.016 10.359-0.024 15.519-0.024 10.301-0.049 20.572 0.024 30.842 0.218 42.839 12.003 86.893 35.018 123.234 11.012 17.51 24.45 34.471 39.863 48.457 15.64 14.099 33.148 27.199 52.092 36.566 34.148 16.856 70.272 26.215 108.483 26.215h251.428c17.841 0 33.809-7.488 46.692-19.378 12.995-11.898 18.614-29.626 19.388-46.7 0.662-16.412-7.932-35.245-19.388-46.7-12.003-12.003-29.739-19.378-46.692-19.378h-235.127c-1.347 0-2.684 0-4.031 0-8.98 0.016-17.944 0.032-26.884-0.612-8.948-1.692-17.72-4.063-26.256-7.126-8.142-3.942-15.945-8.552-23.394-13.746-6.343-5.482-12.286-11.431-17.759-17.776-5.176-7.433-9.738-15.276-13.697-23.451-3.096-8.666-5.482-17.51-7.175-26.561-0.339-4.362-0.525-8.73-0.525-13.14-0.073-13.285-0.049-26.618-0.024-39.969v-0.016c0.016-6.682 0.024-13.366 0.024-20.040v-431.276c0-5.651-0.089-11.351-0.17-17.074-0.218-14.469-0.434-29.101 0.718-43.451 1.7-9.069 4.087-17.952 7.199-26.603 3.942-8.15 8.552-15.945 13.746-23.394 5.482-6.343 11.431-12.286 17.776-17.767 7.433-5.168 15.276-9.731 23.451-13.689 8.666-3.096 17.518-5.482 26.561-7.175 4.362-0.339 8.73-0.517 13.14-0.517 13.277-0.081 26.603-0.057 39.945-0.032h0.024c6.682 0.016 13.366 0.032 20.048 0.032h431.285c5.643 0 11.335-0.089 17.058-0.178h0.016c14.469-0.218 29.101-0.434 43.451 0.718 9.069 1.7 17.952 4.087 26.603 7.191 8.142 3.942 15.945 8.552 23.394 13.754 6.343 5.482 12.286 11.431 17.759 17.776 5.176 7.433 9.738 15.276 13.697 23.451 3.047 8.521 5.392 17.211 7.086 26.094 0.718 9.795 0.669 19.622 0.628 29.455-0.008 2.354-0.024 4.707-0.024 7.062v138.109zM219.766 818.156c0.225 0.032 0.452 0.057 0.677 0.089l-0.677-0.089z" />
<glyph unicode="&#xe93c;" glyph-name="options" d="M125.333 525.333c42.712 0 77.333-34.621 77.333-77.333s-34.621-77.333-77.333-77.333c-42.712 0-77.333 34.621-77.333 77.333s34.621 77.333 77.333 77.333zM512 525.333c42.712 0 77.333-34.621 77.333-77.333s-34.621-77.333-77.333-77.333c-42.712 0-77.333 34.621-77.333 77.333s34.621 77.333 77.333 77.333zM898.667 525.333c42.712 0 77.333-34.621 77.333-77.333s-34.621-77.333-77.333-77.333c-42.712 0-77.333 34.621-77.333 77.333s34.621 77.333 77.333 77.333z" />
<glyph unicode="&#xe93d;" glyph-name="edit" d="M969.822 831.488l-74.329 74.329c-61.578 61.578-161.419 61.578-222.996 0l-541.977-541.973c-20.454-20.454-36.462-44.906-47.032-71.827l-66.067-168.268c-41.93-106.787 63.538-212.261 170.331-170.331l168.262 66.067c26.925 10.57 51.372 26.579 71.827 47.032l541.977 541.973c61.578 61.578 61.578 161.413 0 222.99l0.006 0.006zM149.334 51.267c-21.356-8.389-42.454 12.709-34.065 34.065l66.067 168.262c2.579 6.579 5.816 12.861 9.637 18.757l145.38-145.373c-5.897-3.822-12.18-7.057-18.751-9.637l-168.268-66.073zM895.491 682.821l-483.169-483.166-148.659 148.659 483.169 483.172c20.523 20.523 53.801 20.523 74.329 0l74.329-74.329c20.523-20.523 20.523-53.807 0-74.329v-0.006z" />
<glyph unicode="&#xe93e;" glyph-name="portfolio" horiz-adv-x="1025" d="M832.499 356.416c0-37.931-30.75-68.687-68.687-68.687s-68.687 30.756-68.687 68.687c0 37.931 30.756 68.687 68.687 68.687s68.687-30.75 68.687-68.687zM1015.668 493.79v-320.538c0-101.162-82.006-183.163-183.168-183.163h-641.076c-101.157 0-183.163 82.001-183.163 183.163v503.7c0 126.449 102.508 228.958 228.958 228.958h641.076c25.287 0 45.789-20.502 45.789-45.789s-20.502-45.789-45.789-45.789h-641.076c-75.869 0-137.374-61.504-137.374-137.374v-24.502c26.941 15.584 58.219 24.502 91.584 24.502h641.071c101.162 0 183.168-82.006 183.168-183.163v-0.005zM924.084 493.79c0 50.581-41.003 91.584-91.584 91.584h-641.076c-50.581 0-91.584-41.003-91.584-91.584v-320.538c0-50.581 41.003-91.584 91.584-91.584h641.076c50.581 0 91.584 41.003 91.584 91.584v320.538z" />
<glyph unicode="&#xe93f;" glyph-name="qrscan" d="M1016 826c0 69.587-56.413 126-126 126h-104.998c-23.199 0-42.003-18.805-42.003-41.998s18.805-41.998 42.003-41.998h104.998c23.194 0 41.998-18.805 41.998-41.998v-104.998c0-23.194 18.805-41.998 42.003-41.998s41.998 18.805 41.998 41.998v104.993zM8 826c0 69.587 56.413 126 126 126h104.998c23.199 0 42.003-18.805 42.003-41.998s-18.805-41.998-41.998-41.998h-105.003c-23.194 0-41.998-18.805-41.998-41.998v-104.998c0-23.194-18.805-41.998-41.998-41.998s-42.003 18.794-42.003 41.993v104.998zM890-56c69.587 0 126 56.413 126 126v104.998c0 23.199-18.805 42.003-41.998 42.003s-42.003-18.805-42.003-42.003v-104.998c0-23.194-18.805-41.998-41.998-41.998h-104.998c-23.199 0-42.003-18.805-42.003-42.003s18.805-41.998 42.003-41.998h104.998zM134-56c-69.587 0-126 56.413-126 126v104.998c0 23.199 18.805 42.003 41.998 42.003s41.998-18.805 41.998-42.003v-104.998c0-23.194 18.805-41.998 41.998-41.998h104.998c23.194 0 41.998-18.805 41.998-42.003s-18.805-41.998-41.998-41.998h-104.993zM218.002 658.002c0 46.394 37.608 84.002 84.002 84.002h84.002c46.394 0 84.002-37.608 84.002-84.002v-84.002c0-46.394-37.608-84.002-84.002-84.002h-84.002c-46.394 0-84.002 37.608-84.002 84.002v84.002zM218.002 322c0 46.394 37.608 84.002 84.002 84.002h84.002c46.394 0 84.002-37.608 84.002-84.002v-84.002c0-46.388-37.608-83.997-84.002-83.997h-84.002c-46.394 0-84.002 37.608-84.002 83.997v84.002zM638 406.002c-46.388 0-83.997-37.608-83.997-84.002v-84.002c0-46.388 37.608-83.997 83.997-83.997h84.002c46.394 0 84.002 37.608 84.002 83.997v84.002c0 46.394-37.608 84.002-84.002 84.002h-84.002zM554.003 658.002c0 46.394 37.608 84.002 83.997 84.002h84.002c46.394 0 84.002-37.608 84.002-84.002v-84.002c0-46.394-37.608-84.002-84.002-84.002h-84.002c-46.388 0-83.997 37.608-83.997 84.002v84.002z" />
<glyph unicode="&#xe940;" glyph-name="search" d="M703.282 167.009c1.896-2.819 4.087-5.495 6.584-7.987l191.385-191.392c20.841-20.841 54.641-20.841 75.483 0 20.849 20.841 20.849 54.641 0 75.483l-191.385 191.392c-1.172 1.172-2.388 2.274-3.637 3.317 64.748 74.854 103.907 172.447 103.907 279.184 0 235.821-191.169 426.994-426.993 426.994-235.821 0-426.994-191.173-426.994-426.994 0-235.823 191.173-426.998 426.994-426.998 91.010 0 175.369 28.477 244.658 77zM778.873 517.007c0-176.865-143.379-320.248-320.249-320.248-176.866 0-320.245 143.379-320.245 320.248s143.378 320.246 320.245 320.246c176.868 0 320.249-143.378 320.249-320.246z" />
<glyph unicode="&#xe941;" glyph-name="swap" d="M1014.428 758.652l-40.406-207.589c-4.609-23.686-24.962-41.059-49.077-41.898-24.121-0.84-45.624 15.077-51.87 38.39-51.185 191.012-258.301 306.426-466.928 250.525-123.096-32.985-216.546-117.97-261.398-221.453-11.383-26.268-41.904-38.335-68.172-26.945-26.268 11.383-38.335 41.904-26.945 68.172 57.398 132.432 175.954 239.168 329.683 280.358 201.81 54.077 409.182-20.289 522.604-174.964l10.748 55.216c5.467 28.102 32.68 46.446 60.783 40.978s46.446-32.68 40.978-60.783v-0.006zM895.804 339.205c-26.623 10.524-56.74-2.526-67.265-29.147-40.393-102.171-126.019-183.798-238.758-214.008-190.247-50.973-387.417 63.744-439.442 257.89-6.252 23.331-27.798 39.255-51.938 38.385s-44.479-18.306-49.033-42.029l-39.821-207.427c-5.399-28.108 13.018-55.278 41.134-60.67 28.114-5.399 55.278 13.018 60.677 41.127l10.052 52.38c109.1-153.113 304.080-230.994 495.2-179.784 146.097 39.148 256.516 144.96 308.336 276.028 10.524 26.623-2.52 56.734-29.141 67.265v-0.006z" />
<glyph unicode="&#xe942;" glyph-name="convert" d="M440.005 879.995v-863.998c0-39.761-32.236-71.996-71.996-71.996s-71.996 32.236-71.996 71.996v682.904l-163.657-173.282c-27.302-28.91-72.869-30.214-101.779-2.911s-30.214 72.869-2.911 101.779l287.995 304.946c20.252 21.445 51.538 28.365 78.942 17.471s45.403-37.411 45.403-66.907zM993.434 373.284c-28.91 27.302-74.476 25.997-101.779-2.911l-163.649-173.282v682.904c-0.009 39.769-32.244 72.005-72.014 72.005s-71.996-32.236-71.996-71.996v-863.988c0-29.506 17.988-56.013 45.403-66.916 27.406-10.894 58.69-3.974 78.942 17.471l287.995 304.938c27.302 28.91 25.997 74.486-2.911 101.787l0.009-0.009z" />
<glyph unicode="&#xe943;" glyph-name="time" d="M512 952c-278.349 0-504-225.651-504-504s225.651-504 504-504c278.349 0 504 225.645 504 504s-225.645 504-504 504zM512 44.796c-222.681 0-403.204 180.522-403.204 403.204s180.522 403.198 403.204 403.198c222.681 0 403.198-180.522 403.198-403.204s-180.516-403.204-403.198-403.204v0.006zM701.369 284.764c-18.175-21.083-49.993-23.442-71.082-5.268l-133.698 115.239c-22.214 19.148-34.988 47.024-34.988 76.356v228.9c0 27.833 22.566 50.398 50.398 50.398s50.398-22.566 50.398-50.398v-228.906l133.704-115.246c21.083-18.175 23.442-49.999 5.268-71.082v0.006z" />
<glyph unicode="&#xe944;" glyph-name="speedslow" d="M592.094 899.163c-79.807 12.615-161.468 6.201-238.312-18.718s-146.689-67.635-203.821-124.656c-57.134-57.021-99.934-126.729-124.902-203.421-33.412-102.629-33.412-213.179 0-315.808 28.298-86.921 79.33-164.376 147.43-224.583 40.792-36.065 99.585-23.707 128.111 15.479l125.334 172.169c30.472 41.859 16.231 92.49-6.917 121.867-2.417 3.066-4.681 6.252-6.782 9.548l-86.786-29.574c6.324-12.633 13.911-24.573 22.631-35.643 2.986-3.791 4.512-7.921 4.853-10.881 0.156-1.357 0.029-2.118-0.027-2.361l-0.018-0.069-123.872-170.161c-54.441 49.165-95.283 111.856-118.133 182.041-22.849 70.181-26.729 144.859-11.641 216.571l205.191-66.537c-1.223-12.674-1.279-25.435-0.166-38.113l90.117 30.701c0.867 8.090 2.573 16.107 5.119 23.931 2.412 7.408 5.539 14.521 9.316 21.244 8.308 14.792 19.761 27.707 33.654 37.782 20.207 14.654 44.546 22.547 69.528 22.547 18.326 0 36.308-4.248 52.566-12.298 5.904-2.923 11.578-6.345 16.96-10.249 5.67-4.109 10.928-8.69 15.736-13.678 4.804-4.988 9.158-10.384 13.009-16.122l0.174-0.254c2.539-3.804 4.859-7.763 6.948-11.857 8.475-16.601 12.894-34.964 12.894-53.597 0-18.628-4.419-36.995-12.894-53.593-3.507-6.871-7.669-13.357-12.413-19.38-23.148-29.382-37.384-80.009-6.912-121.867l125.332-172.169c28.529-39.186 87.319-51.544 128.11-15.479 68.1 60.207 119.135 137.662 147.43 224.583 16.708 51.314 25.059 104.609 25.059 157.904 0 50.402-7.471 100.354-22.029 148.272-0.977 3.22-1.99 6.431-3.030 9.632-7.311 22.45-16.135 44.269-26.38 65.322-1.43 2.934-2.883 5.855-4.368 8.759-6.115 11.98-12.697 23.699-19.719 35.135-9.566 15.569-19.962 30.609-31.133 45.058-29.61 38.297-64.699 72.437-104.394 101.22-25.627 18.582-52.79 34.653-81.104 48.089-44.127 20.937-91.174 35.534-139.748 43.212zM332.318 500.078l-205.191 66.539c5.199 11.578 10.916 22.906 17.129 33.948 29.613 52.628 70.387 98.576 119.838 134.434 59.819 43.376 129.785 70.136 202.781 77.974v-215.323c-6.504-1.439-12.951-3.191-19.317-5.256-31.297-10.149-59.743-27.546-83.013-50.77-12.476-12.451-23.274-26.389-32.174-41.454l-0.055-0.093zM557.12 597.651v215.324c44.123-4.738 87.14-16.39 127.478-34.445 26.393-11.815 51.645-26.372 75.306-43.53 31.522-22.859 59.524-49.819 83.35-79.995 10.95-13.867 21.021-28.413 30.147-43.553 5.056-8.393 9.827-16.969 14.296-25.713l0.092-0.178c3.181-6.231 6.211-12.548 9.080-18.944l-200.5-64.991c-0.252 0.021-1.018 0.136-2.26 0.703-2.681 1.223-6.087 3.89-8.76 7.808-6.137 9.161-12.99 17.814-20.489 25.88-9.154 9.846-19.288 18.836-30.294 26.815-8.906 6.458-18.266 12.172-27.988 17.109-15.649 7.948-32.265 13.906-49.459 17.709zM724.265 415.947l200.491 65.016c5.963-28.349 9.003-57.334 9.003-86.5 0-43.903-6.881-87.801-20.645-130.071-22.849-70.186-63.691-132.877-118.131-182.041l-123.893 170.23c-0.055 0.243-0.183 1.004-0.023 2.361 0.34 2.961 1.866 7.091 4.85 10.881 8.365 10.616 15.699 22.048 21.883 34.158 14.939 29.267 22.726 61.642 22.726 94.484 0 6.724-0.325 13.426-0.972 20.086 1.563 0.422 3.135 0.889 4.712 1.398zM459.864 429.327l-265.453-90.445c-20.335-6.931-31.192-29.001-24.249-49.293 6.942-20.297 29.055-31.133 49.391-24.202l265.44 90.441c13.971-7.834 31.101-9.924 47.46-4.35 30.505 10.391 46.786 43.495 36.376 73.939-10.414 30.441-43.587 46.694-74.086 36.301-16.355-5.573-28.625-17.674-34.877-32.392z" />
<glyph unicode="&#xe945;" glyph-name="speedmedium" d="M353.782 881.005c76.844 24.951 158.506 31.374 238.31 18.743 48.578-7.688 95.627-22.304 139.751-43.268 28.314-13.453 55.475-29.545 81.103-48.151 40.354-29.3 75.951-64.142 105.867-103.266 12.642-16.531 24.268-33.826 34.816-51.79 5.111-8.71 9.969-17.577 14.565-26.593 1.483-2.908 2.939-5.832 4.367-8.771 10.244-21.081 19.071-42.927 26.381-65.407 1.042-3.205 2.052-6.421 3.031-9.645 14.556-47.98 22.027-97.998 22.027-148.463 0-53.363-8.353-106.73-25.058-158.11-28.296-87.031-79.33-164.584-147.424-224.872-40.799-36.116-99.599-23.736-128.128 15.502l-125.327 172.382c-30.472 41.915-16.233 92.615 6.915 122.040 4.743 6.024 8.904 12.518 12.412 19.396 8.472 16.618 12.89 35.009 12.89 53.661s-4.418 37.044-12.89 53.661c-2.094 4.104-4.418 8.070-6.961 11.883l-0.166 0.247c-3.852 5.744-8.205 11.145-13.009 16.139-4.808 4.994-10.065 9.58-15.732 13.693-5.29 3.84-10.86 7.216-16.651 10.108-16.338 8.159-34.43 12.466-52.871 12.466-9.428 0-18.763-1.125-27.823-3.316l-58.076 75.009c6.977 3.152 14.14 5.925 21.459 8.302 6.364 2.067 12.808 3.821 19.315 5.261v215.586c-72.995-7.85-142.957-34.644-202.772-78.073-49.45-35.903-90.223-81.911-119.835-134.605-6.212-11.055-11.928-22.393-17.126-33.985l205.177-66.621c8.384 14.22 18.47 27.465 30.045 39.384l56.234-72.626c-3.617-4.653-6.884-9.572-9.771-14.72-3.776-6.733-6.904-13.855-9.316-21.27-7.719-23.741-7.719-49.312 0-73.053 4.328-13.307 10.957-25.659 19.51-36.529 23.148-29.42 37.393-80.125 6.916-122.040l-125.325-172.382c-28.53-39.238-87.332-51.618-128.129-15.502-68.097 60.288-119.128 137.84-147.424 224.872-33.412 102.759-33.412 213.455 0 316.217 24.968 76.791 67.768 146.59 124.902 203.685s126.978 99.866 203.822 124.817zM99.251 480.996c-15.085-71.8-11.205-146.571 11.643-216.842 22.847-70.266 63.687-133.037 118.123-182.263l123.882 170.434c0.056 0.243 0.183 1.006 0.027 2.364-0.342 2.967-1.868 7.103-4.855 10.901-15.077 19.162-26.766 40.937-34.397 64.406-8.892 27.345-11.974 56.072-9.246 84.377l-205.177 66.621zM557.124 813.435v-215.586c17.196-3.808 33.81-9.774 49.46-17.731 9.721-4.944 19.080-10.664 27.988-17.131 10.874-7.894 20.898-16.777 29.967-26.5 7.623-8.174 14.584-16.955 20.811-26.259 2.677-3.923 6.080-6.594 8.761-7.819 1.244-0.568 2.011-0.683 2.259-0.705l0.073-0.004 200.415 65.075c-2.87 6.402-5.901 12.724-9.079 18.961l-0.092 0.179c-4.334 8.493-8.954 16.827-13.844 24.99-9.249 15.43-19.465 30.248-30.6 44.362-23.827 30.215-51.824 57.208-83.348 80.096-23.359 16.959-48.266 31.382-74.293 43.131-40.625 18.335-83.986 30.157-128.478 34.941zM924.745 480.996l-200.475-65.096c-1.575-0.51-3.145-0.973-4.711-1.396 0.648-6.668 0.973-13.376 0.973-20.108 0-32.887-7.788-65.306-22.731-94.608-6.181-12.123-13.514-23.571-21.876-34.196-2.984-3.798-4.514-7.935-4.853-10.901-0.157-1.359-0.028-2.121 0.028-2.364l0.019-0.069 123.863-170.365c54.438 49.226 95.273 111.997 118.123 182.263 13.762 42.324 20.641 86.283 20.641 130.241 0 29.2-3.035 58.218-9 86.6zM418.596 466.911l37.935-48.995c-2.905-15.745 0.655-32.617 11.234-46.278 19.723-25.476 56.375-30.146 81.869-10.438 25.49 19.713 30.165 56.343 10.442 81.815-10.575 13.659-26.023 21.338-42.002 22.483l-171.644 221.681c-13.149 16.983-37.586 20.097-54.58 6.957s-20.111-37.56-6.961-54.542l133.707-172.684z" />
<glyph unicode="&#xe946;" glyph-name="speedfast" d="M353.783 881.483c76.844 24.979 158.506 31.409 238.311 18.764 48.576-7.697 95.624-22.328 139.749-43.316 28.316-13.468 55.476-29.578 81.104-48.204 8.171-5.939 16.149-12.11 23.934-18.501 29.77-24.451 56.632-52.141 80.117-82.513 13.346-17.265 25.6-35.395 36.675-54.291 5.092-8.69 9.937-17.541 14.521-26.544 1.487-2.912 2.941-5.838 4.368-8.781 10.245-21.104 19.071-42.976 26.38-65.48 1.042-3.209 2.051-6.427 3.033-9.655 14.557-48.033 22.026-98.104 22.026-148.625 0-53.425-8.354-106.85-25.058-158.289-28.298-87.122-79.328-164.767-147.43-225.12-40.791-36.152-99.587-23.761-128.115 15.521l-125.33 172.575c-30.477 41.96-16.237 92.715 6.914 122.165 4.744 6.037 8.905 12.539 12.41 19.425 8.473 16.64 12.891 35.046 12.891 53.723 0 18.673-4.418 37.084-12.891 53.721-2.092 4.107-4.418 8.078-6.96 11.895l-0.165 0.247c-1.087 1.624-2.216 3.22-3.381 4.787l55.017 74.37c1.046-1.081 2.079-2.174 3.101-3.277 7.442-8.042 14.25-16.665 20.347-25.79 2.674-3.927 6.079-6.601 8.763-7.827 1.243-0.569 2.010-0.684 2.257-0.705l0.073-0.005 200.423 65.149c-2.872 6.41-5.9 12.741-9.084 18.986-4.721 9.27-9.772 18.345-15.145 27.208-8.593 14.181-18.007 27.822-28.174 40.856-24.155 30.956-52.595 58.493-84.563 81.731-23.283 16.922-48.099 31.32-74.034 43.060-40.703 18.425-84.159 30.301-128.747 35.101v-215.834c14.195-3.148 27.999-7.766 41.185-13.765l-55.893-75.556c-9.864 2.625-20.086 3.977-30.412 3.977-24.98 0-49.319-7.911-69.525-22.6-13.894-10.098-25.345-23.044-33.653-37.872-3.777-6.738-6.903-13.867-9.316-21.295-7.719-23.769-7.719-49.37 0-73.135 4.328-13.328 10.959-25.691 19.513-36.578 23.148-29.449 37.391-80.205 6.917-122.165l-125.33-172.575c-28.528-39.281-87.325-51.672-128.119-15.521-68.098 60.352-119.129 137.992-147.427 225.12-33.413 102.877-33.413 213.694 0 316.569 24.969 76.876 67.768 146.752 124.903 203.91s126.978 99.977 203.822 124.955zM99.246 481.037c-15.087-71.882-11.206-146.736 11.642-217.086s63.689-133.193 118.128-182.476l123.887 170.634c0.057 0.243 0.184 1.005 0.027 2.367-0.342 2.968-1.867 7.107-4.854 10.909-15.078 19.181-26.769 40.983-34.399 64.482-8.893 27.375-11.973 56.137-9.244 84.471l-205.185 66.697zM127.134 566.903l205.224-66.63c8.902 15.111 19.705 29.089 32.189 41.578 23.27 23.28 51.716 40.719 83.013 50.893 6.366 2.069 12.813 3.826 19.318 5.268v215.834c-72.998-7.858-142.963-34.682-202.779-78.161-49.451-35.943-90.225-82.003-119.837-134.755-6.213-11.068-11.929-22.421-17.128-34.027zM924.751 481.038l-200.483-65.17c-1.578-0.514-3.147-0.977-4.712-1.399 0.647-6.675 0.973-13.397 0.973-20.132 0-32.922-7.79-65.376-22.728-94.711-6.184-12.139-13.516-23.605-21.879-34.239-2.987-3.804-4.509-7.941-4.854-10.909-0.156-1.362-0.028-2.124 0.028-2.367l0.018-0.069 123.871-170.566c54.434 49.283 95.279 112.126 118.127 182.476 13.759 42.369 20.64 86.374 20.64 130.386 0 29.234-3.037 58.285-9.001 86.7zM542.412 508.69l-34.303-46.366c-15.961-1.483-31.248-9.5-41.534-23.403-19.173-25.921-13.714-62.481 12.195-81.663 25.907-19.181 62.454-13.723 81.627 12.199 10.277 13.892 13.479 30.844 10.245 46.534l166.868 225.565c12.781 17.279 9.143 41.653-8.129 54.441s-41.634 9.148-54.421-8.131l-132.547-179.176z" />
<glyph unicode="&#xe947;" glyph-name="speedultra" d="M353.781 882.259c76.844 25.023 158.506 31.465 238.312 18.798 48.575-7.711 95.621-22.369 139.748-43.394 28.316-13.492 55.474-29.631 81.102-48.291 39.981-29.11 75.288-63.676 105.029-102.469 11.95-15.584 23.003-31.849 33.097-48.717 6.058-10.119 11.771-20.454 17.125-30.989 1.485-2.917 2.937-5.849 4.366-8.796 10.244-21.142 19.069-43.053 26.382-65.597 1.039-3.215 2.050-6.438 3.029-9.672 14.56-48.12 22.028-98.28 22.028-148.892 0-53.521-8.351-107.042-25.057-158.573-28.298-87.279-79.333-165.063-147.427-225.524-40.795-36.217-99.592-23.803-128.12 15.549l-125.33 172.885c-30.472 42.036-16.233 92.882 6.917 122.384 1.471 1.88 2.891 3.801 4.247 5.768l85.45-33.275c-5.483-9.987-11.762-19.478-18.756-28.394-2.988-3.81-4.513-7.956-4.853-10.929-0.156-1.36-0.028-2.128 0.028-2.371l0.018-0.069 123.868-170.872c54.44 49.371 95.281 112.327 118.128 182.803 13.761 42.445 20.64 86.535 20.64 130.62 0 29.286-3.033 58.39-8.999 86.856l-200.484-65.287c-1.576-0.515-3.148-0.979-4.711-1.401 0.648-6.687 0.974-13.421 0.974-20.168 0-8.893-0.57-17.754-1.687-26.528l-88.837 34.59c-1.080 15.921-5.364 31.488-12.616 45.756-2.091 4.115-4.417 8.091-6.959 11.914l-0.165 0.25c-3.852 5.761-8.204 11.178-13.011 16.188s-10.065 9.609-15.733 13.735c-5.286 3.851-10.861 7.237-16.651 10.138-16.339 8.183-34.429 12.503-52.873 12.503-24.979 0-49.316-7.925-69.525-22.64-13.893-10.116-25.345-23.085-33.653-37.94-3.776-6.75-6.904-13.892-9.316-21.333-7.719-23.812-7.719-49.458 0-73.266 4.328-13.351 10.959-25.738 19.513-36.644 23.147-29.502 37.391-80.348 6.916-122.384l-125.33-172.885c-28.528-39.351-87.324-51.765-128.118-15.549-68.098 60.461-119.13 138.24-147.427 225.524-33.412 103.062-33.412 214.078 0 317.137 24.968 77.014 67.769 147.015 124.902 204.276s126.978 100.156 203.822 125.18zM99.244 481.095c-15.087-72.011-11.206-146.999 11.641-217.476s63.69-133.432 118.128-182.803l123.887 170.94c0.057 0.243 0.183 1.007 0.027 2.371-0.342 2.973-1.867 7.119-4.854 10.929-15.079 19.216-26.768 41.057-34.399 64.598-8.892 27.424-11.973 56.238-9.246 84.623l-205.185 66.817zM127.132 567.114l205.224-66.749c8.903 15.138 19.706 29.142 32.189 41.652 23.269 23.321 51.716 40.792 83.013 50.984 6.365 2.073 12.812 3.833 19.315 5.277v216.221c-72.995-7.872-142.959-34.745-202.776-78.301-49.451-36.008-90.225-82.15-119.837-134.997-6.213-11.088-11.929-22.461-17.128-34.088zM557.122 814.5v-216.221c17.194-3.819 33.809-9.801 49.458-17.784 9.72-4.958 19.083-10.695 27.99-17.181 11.219-8.17 21.537-17.395 30.83-27.512 7.289-7.932 13.958-16.424 19.947-25.401 2.675-3.934 6.080-6.613 8.765-7.842 1.241-0.57 2.009-0.685 2.257-0.706l0.074-0.005 200.42 65.266c-2.868 6.421-5.897 12.764-9.077 19.020l-0.092 0.179c-4.605 9.046-9.528 17.913-14.758 26.585-9.004 14.928-18.922 29.279-29.686 42.97-23.826 30.304-51.825 57.376-83.35 80.331-23.44 17.068-48.438 31.573-74.566 43.378-40.546 18.321-83.818 30.137-128.211 34.923zM630.006 402.3l-61.918 24.111c-5.639 15.029-17.392 27.684-33.5 33.956-30.040 11.699-63.858-3.226-75.531-33.335s3.217-64.005 33.262-75.702c16.114-6.273 33.312-4.89 47.601 2.386l261.442-101.807c20.029-7.8 42.577 2.151 50.359 22.227 7.781 20.071-2.146 42.665-22.176 50.465l-199.537 77.701z" />
<glyph unicode="&#xe948;" glyph-name="googleplay" d="M59.24 952c-1.26-3.906-2.52-7.77-2.52-12.936v-975.618c0-9.114 2.562-14.28 7.728-19.446l479.43 507.906zM576.218 418.264l123.942-127.89-176.946-100.8c0 0-224.91-127.848-348.936-199.038zM609.86 453.166l132.972-138.264c20.832 11.592 183.582 104.664 206.808 117.6 24.528 14.196 22.050 33.6 1.218 43.932-19.278 10.71-182.028 103.95-206.64 119.070l-134.526-142.464zM576.134 486.766l125.328 133.098-178.878 102.102c0 0-291.606 166.824-388.626 222.516l442.26-457.716z" />
<glyph unicode="&#xe949;" glyph-name="facebook" d="M750.043 384l28.413 185.321h-177.643v120.26c0 50.7 24.813 100.12 104.374 100.12h80.759v157.78c0 0-73.285 12.52-143.355 12.52-146.296 0-241.921-88.76-241.921-249.44v-141.239h-162.618v-185.321h162.618v-448h200.142v448h149.23z" />
<glyph unicode="&#xe94a;" glyph-name="instagram" d="M512.114 710.405c-145.289 0-262.48-117.157-262.48-262.404 0-145.249 117.191-262.405 262.48-262.405 145.292 0 262.484 117.156 262.484 262.405 0 145.247-117.193 262.404-262.484 262.404zM512.114 277.404c-93.888 0-170.646 76.506-170.646 170.597s76.529 170.597 170.646 170.597c94.118 0 170.651-76.506 170.651-170.597s-76.758-170.597-170.651-170.597zM846.556 721.138c0-34.028-27.414-61.205-61.221-61.205-34.037 0-61.226 27.405-61.226 61.205s27.414 61.205 61.226 61.205c33.807 0 61.221-27.405 61.221-61.205zM1020.401 659.020c-3.879 81.986-22.614 154.61-82.696 214.444-59.851 59.835-132.494 78.561-214.505 82.672-84.526 4.796-337.871 4.796-422.395 0-81.783-3.882-154.429-22.609-214.509-82.444s-78.585-132.458-82.697-214.444c-4.797-84.499-4.797-337.765 0-422.265 3.884-81.99 22.615-154.611 82.697-214.446s132.498-78.56 214.509-82.674c84.525-4.794 337.87-4.794 422.395 0 82.011 3.884 154.654 22.609 214.505 82.674 59.857 59.835 78.587 132.457 82.696 214.446 4.799 84.499 4.799 337.537 0 422.036zM911.206 146.316c-17.816-44.764-52.312-79.245-97.318-97.285-67.39-26.723-227.302-20.555-301.776-20.555-74.471 0-234.61-5.938-301.773 20.555-44.775 17.81-79.271 52.297-97.318 97.285-26.727 67.373-20.56 227.233-20.56 301.685s-5.939 234.542 20.56 301.685c17.819 44.762 52.314 79.247 97.318 97.288 67.391 26.72 227.301 20.554 301.773 20.554s234.616 5.937 301.776-20.554c44.774-17.814 79.272-52.298 97.318-97.288 26.729-67.371 20.56-227.234 20.56-301.685s6.168-234.542-20.56-301.685z" />
<glyph unicode="&#xe94b;" glyph-name="linkedin" d="M229.21-63.728h-212.296v683.308h212.296v-683.308zM122.948 712.791c-67.886 0-122.949 56.2-122.949 124.051 0 32.591 12.953 63.847 36.011 86.893s54.33 35.992 86.938 35.992c32.608 0 63.88-12.947 86.937-35.992s36.011-54.302 36.011-86.893c0-67.852-55.085-124.051-122.949-124.051zM1023.77-63.728h-211.838v332.631c0 79.275-1.601 180.936-110.378 180.936-110.378 0-127.289-86.125-127.289-175.225v-338.341h-212.070v683.308h203.612v-93.209h2.972c28.343 53.687 97.575 110.344 200.865 110.344 214.86 0 254.356-141.414 254.356-325.092v-375.351h-0.229z" />
<glyph unicode="&#xe94c;" glyph-name="twitter" d="M918.742 656.857c0.648-9.108 0.648-18.219 0.648-27.327 0-277.826-211.167-597.941-597.115-597.941-118.904 0-229.361 34.483-322.275 94.341 16.894-1.951 33.136-2.599 50.68-2.599 98.11 0 188.426 33.181 260.548 89.786-92.264 1.951-169.584 62.461-196.224 145.744 12.996-1.951 25.99-3.252 39.636-3.252 18.842 0 37.687 2.604 55.228 7.158-96.163 19.518-168.286 104.102-168.286 206.252v2.602c27.938-15.616 60.428-25.374 94.862-26.675-56.528 37.738-93.562 102.15-93.562 175.023 0 39.039 10.394 74.823 28.588 106.055 103.31-127.527 258.6-210.806 432.731-219.917-3.248 15.616-5.198 31.88-5.198 48.146 0 115.816 93.564 210.158 209.869 210.158 60.424 0 115.002-25.375 153.342-66.366 47.431 9.108 92.913 26.677 133.197 50.75-15.597-48.799-48.734-89.79-92.264-115.814 42.235 4.553 83.167 16.266 120.853 32.531-28.583-41.639-64.324-78.725-105.256-108.655z" />
<glyph unicode="&#xe94d;" glyph-name="coinflip" d="M249.682 771.121l-60.754 74.715c88.204 71.402 200.615 114.164 323.072 114.164 122.455 0 234.87-42.762 323.072-114.164l-60.754-74.794c-71.67 57.91-162.959 92.704-262.397 92.704s-190.727-34.793-262.397-92.704l0.158 0.079zM512.077 32.174c-99.435 0-190.724 34.796-262.395 92.703l-60.754-74.793c88.204-71.322 200.615-114.084 323.072-114.084 122.455 0 234.87 42.762 323.072 114.084l-60.754 74.793c-71.67-57.907-162.959-92.703-262.397-92.703h0.156zM409.409 601.434l-60.745 74.857c50.542 41.148 115.005 65.837 185.086 65.837 70.077 0 133.432-23.739 185.16-65.757l-60.744-74.936c-34.801 28.249-78.464 44.154-124.416 44.154-45.957 0-90.409-16.617-124.42-44.234l0.079 0.079zM533.827 250.332c-108.915 0-197.582 88.627-197.582 197.668 0 47.558 16.848 91.159 44.926 125.343h-113.344c-17.955-38.062-28.079-80.555-28.079-125.343 0-162.217 131.853-294.129 294.002-294.129 68.495 0 133.356 23.501 184.842 65.362l-60.662 75.018c-34.647-28.093-78.228-43.919-124.262-43.919h0.159z" />
<glyph unicode="&#xe94e;" glyph-name="usa" d="M512.897 126.952c-2.243 0-4.486 0.292-6.727 1.028l-61.579 19.106c-5.232 1.618-9.716 5.144-12.555 9.845l-34.377 57.464-24.063-7.497c-9.416-2.937-19.579 0.444-25.259 8.379l-24.362 34.095-45.586 24.542-55.6 1.028c-4.036 0-7.922 1.174-11.359 3.23l-64.568 39.239-45.885 10.288c-5.082 1.174-9.566 3.965-12.704 8.081l-52.014 66.135c-1.495 1.909-2.69 4.111-3.438 6.464l-15.395 44.823c-0.448 1.176-0.747 2.498-0.897 3.82l-16.292 104.636c-0.448 3.233-0.299 6.466 0.747 9.699l55.75 181.938c3.438 10.875 14.797 17.635 26.006 15.285 257.823-52.759 451.674-52.024 453.768-52.024 1.796 0 3.889-0.294 5.831-0.734l114.939-29.686c2.24-0.587 4.333-1.47 6.275-2.646l76.673-47.909c2.84-1.763 5.231-4.115 6.876-6.908l27.203-42.471 53.359 33.654 16.591 27.922c2.84 4.849 7.471 8.376 12.853 9.994l44.99 13.373 24.807 54.817c4.338 9.405 14.8 14.696 24.965 12.638l31.683-6.319c7.324-1.47 13.453-6.319 16.293-13.227l22.422-52.906c3.587-8.376 1.493-18.223-5.236-24.395l-28.394-26.6v-33.654c0-6.319-2.84-12.344-7.622-16.606l-31.093-26.6v-20.574c0-7.054-3.435-13.814-9.413-17.929l-19.431-13.667-4.636-22.338 16.591-39.386c3.138-7.2 1.942-15.579-2.84-21.898l-79.362-101.988 19.431-34.242c1.791-3.235 2.84-6.762 2.84-10.434l1.639-89.645c0-7.936-4.036-15.287-11.057-19.398-7.027-3.97-15.547-4.116-22.568 0l-53.959 30.714c-4.782 2.646-8.369 7.053-10.013 12.046l-13.302 39.386-69.651 6.172-57.394-27.333c-3.587-1.618-7.471-2.499-11.36-2.202l-64.117 4.409-25.857-18.517v-42.183c0-7.053-3.44-13.664-9.12-17.78-3.884-2.791-8.515-4.263-13.302-4.263l-0.146-0.292zM466.263 186.618l24.213-7.497v23.368c0 7.053 3.438 13.669 9.267 17.78l41.7 29.833c4.333 3.089 9.564 4.56 14.794 4.116l66.362-4.555 57.546 27.48c3.738 1.763 7.773 2.499 11.809 2.061l90.424-7.936c8.818-0.735 16.44-6.616 19.279-14.995l15.249-45.115 12.253-6.908-0.747 45.12-23.915 42.031c-4.333 7.638-3.733 17.191 1.796 24.099l80.562 103.46-14.351 33.948c-1.644 4.115-2.093 8.524-1.196 12.786l7.773 37.328c1.196 5.438 4.333 10.287 8.969 13.52l17.185 12.051v19.252c0 6.319 2.84 12.344 7.622 16.606l31.088 26.6v33.213c0 6.025 2.542 11.757 7.027 16.018l24.212 22.633-11.809 28.070-2.391 0.441-21.67-47.909c-2.694-5.878-7.773-10.287-14.054-12.198l-46.483-13.814-14.947-24.984c-1.791-2.939-4.333-5.585-7.173-7.348l-76.824-48.497c-5.080-3.233-11.209-4.262-17.040-2.939-5.826 1.323-10.911 4.85-14.049 9.7l-36.616 57.021-69.5 43.353-108.81 28.070c-25.409 0-204.765 2.646-440.019 48.938l-48.426-158.129 15.096-97.876 13.602-39.533 44.839-57.021 41.7-9.407c2.392-0.584 4.783-1.466 6.876-2.791l62.475-38.060 54.853-1.028c3.587 0 7.174-1.028 10.313-2.646l55.003-29.54c2.989-1.618 5.68-3.97 7.623-6.616l17.936-25.126 25.408 7.936c10.014 3.083 20.924-0.882 26.156-9.845l39.159-65.4-0.149 0.882z" />
<glyph unicode="&#xe94f;" glyph-name="kiosks" d="M994.825 620.305h-375.663l21.7 339.694h332.263l21.7-339.694zM677.335 674.948h259.134l-14.773 230.409h-229.59l-14.773-230.409zM898.357 460.931h-182.547v-54.642h182.547v54.642zM994.825 577.319l-36.533-586.673h-54.647l33.009 532.032h-259.134l33.003-532.032h-54.826l-36.533 586.673h375.663zM903.645-9.354v0zM1007.774-64.001v54.647h-401.376v-54.647h401.376zM339.735 369.862h-182.544v-54.642h182.544v54.642zM382.408 959.999h-267.707l-96.287-339.511c-2.188-7.832-2.736-15.846-1.642-23.861l94.828-658.988h273.725l94.828 658.988c1.094 8.014 0.548 16.211-1.642 23.861l-96.104 339.511zM156.098 905.357h184.915l82.61-291.427-78.962-123.673h-192.209l-78.963 123.673 82.61 291.427zM337.912-7.72h-178.715l-80.968 510.544 40.119-67.213h260.413l40.119 67.213-80.968-510.544z" />
<glyph unicode="&#xe950;" glyph-name="calendar" d="M663.241 848.436v-54.892h-302.482v54.892h302.482zM950.612 848.436h-158.074v-54.892h158.074c10.377 0 18.756-8.416 18.756-18.846v-715.242c0-10.431-8.378-18.846-18.756-18.846h-877.221c-10.38 0-18.757 8.415-18.757 18.846v715.242c0 10.43 8.377 18.846 18.757 18.846h158.071v54.892h-158.071c-40.429 0-73.39-32.935-73.39-73.738v-715.242c0-40.622 32.962-73.738 73.39-73.738h877.221c40.426 0 73.388 33.116 73.388 73.738v715.242c0 40.62-32.963 73.738-73.388 73.738zM915.465 429.794h-159.349v-54.892h159.349v54.892zM699.483 429.794h-159.349v-54.892h159.349v54.892zM483.5 429.794h-159.346v-54.892h159.346v54.892zM267.519 429.794h-159.163v-54.892h159.345v54.892h-0.182zM322.151 722.735v160.101c0 15.187-12.201 27.446-27.316 27.446s-27.316-12.259-27.316-27.446v-160.101c0-15.187 12.201-27.446 27.316-27.446s27.316 12.259 27.316 27.446zM755.755 722.735v160.101c0 15.187-12.202 27.446-27.319 27.446s-27.314-12.259-27.314-27.446v-160.101c0-15.187 12.197-27.446 27.314-27.446s27.319 12.259 27.319 27.446zM915.279 309.401h-159.344v-54.892h159.344v54.892zM699.298 309.401h-159.344v-54.892h159.344v54.892zM483.318 309.401h-159.346v-54.892h159.346v54.892zM267.337 309.401h-158.981v-54.892h159.345v54.892h-0.364zM755.57 133.93h159.344v54.892h-159.344v-54.892zM539.589 133.93h159.344v54.892h-159.344v-54.892zM323.607 133.93h159.346v54.892h-159.346v-54.892zM107.626 133.93h159.346v54.892h-158.617v-54.892h-0.729zM187.39 553.666h647.762v54.892h-647.034v-54.892h-0.728z" />
<glyph unicode="&#xe951;" glyph-name="laptop" d="M1011.881 184.816h-999.766v-36.803h999.766v36.803zM0 196.928v-61.030h1024v61.030h-1024zM1011.881 184.816v-36.803h-999.766v36.803h999.766zM906.819 232.026h-36.695v453.646c0 14.107-11.372 25.516-25.437 25.516h-665.372c-14.067 0-25.441-11.409-25.441-25.516v-453.646h-36.693v453.646c0 34.348 27.886 62.317 62.134 62.317h665.372c34.247 0 62.132-27.969 62.132-62.317v-453.646zM918.931 219.912h-60.921v465.758c0 7.45-5.986 13.401-13.323 13.401h-665.372c-7.342 0-13.325-5.951-13.325-13.401v-465.758h-60.924v465.758c0 41.005 33.277 74.432 74.249 74.432h665.372c40.969 0 74.245-33.427 74.245-74.432v-465.758zM906.819 232.026v453.646c0 34.348-27.885 62.317-62.132 62.317h-665.372c-34.247 0-62.134-27.969-62.134-62.317v-453.646h36.693v453.646c0 14.107 11.375 25.516 25.441 25.516h665.372c14.065 0 25.437-11.409 25.437-25.516v-453.646h36.695z" />
<glyph unicode="&#xe952;" glyph-name="monitor" d="M938.67 958.574h-853.337c-47.111 0-85.333-42.88-85.333-95.733v-638.216c0-52.855 38.223-95.737 85.333-95.737h341.334l-28.445-95.732h-128c-23.645 0-42.667-21.342-42.667-47.863 0-26.527 19.022-47.869 42.667-47.869h483.556c23.646 0 42.665 21.342 42.665 47.869 0 26.521-19.020 47.863-42.665 47.863h-128.003l-28.443 95.732h341.337c47.11 0 85.332 42.882 85.332 95.737v638.216c0 52.852-38.222 95.733-85.332 95.733zM910.226 256.531h-796.448v574.399h796.448v-574.399z" />
<glyph unicode="&#xe953;" glyph-name="people" d="M512 582.093c-59.649 0-106.387 49.425-106.387 112.61v30.469c0 63.184 46.737 112.61 106.387 112.61 59.648 0 106.385-49.425 106.385-112.61v-30.469c0-63.184-46.737-112.61-106.385-112.61zM512 795.66c-36.071 0-64.281-30.891-64.281-70.486v-30.469c0-39.456 28.21-70.486 64.281-70.486 36.069 0 64.282 30.891 64.282 70.486v30.469c0 39.456-28.213 70.486-64.282 70.486zM693.192 442.525h-42.104v65.011c0 36.788-84.354 64.309-139.090 64.309-54.737 0-139.087-27.661-139.087-64.309v-65.011h-42.105v65.011c0 75.26 118.035 106.432 181.192 106.432 63.16 0 181.192-31.172 181.192-106.432v-65.011zM512 197.788c-59.649 0-106.387 49.427-106.387 112.609v30.471c0 63.187 46.737 112.609 106.387 112.609 59.648 0 106.385-49.422 106.385-112.609v-30.471c0-63.181-46.737-112.609-106.385-112.609zM512 411.353c-36.071 0-64.281-30.888-64.281-70.484v-30.471c0-39.455 28.21-70.484 64.281-70.484 36.069 0 64.282 30.888 64.282 70.484v30.471c0 39.455-28.213 70.484-64.282 70.484zM693.192 58.219h-42.104v65.009c0 36.79-84.354 64.309-139.090 64.309-54.737 0-139.087-27.66-139.087-64.309v-65.009h-42.105v65.009c0 75.26 118.035 106.433 181.192 106.433 63.16 0 181.192-31.172 181.192-106.433v-65.009zM842.808 389.869c-59.648 0-106.385 49.427-106.385 112.612v30.469c0 63.184 46.737 112.61 106.385 112.61s106.385-49.425 106.385-112.61v-30.469c0-63.183-46.737-112.612-106.385-112.612zM842.808 603.436c-36.069 0-64.282-30.891-64.282-70.486v-30.469c0-39.456 28.213-70.487 64.282-70.487s64.282 30.891 64.282 70.487v30.469c0 39.456-28.213 70.486-64.282 70.486zM1024 250.443h-42.109v65.009c0 36.79-84.348 64.309-139.084 64.309s-139.090-27.66-139.090-64.309v-65.009h-42.104v65.009c0 75.26 118.032 106.433 181.192 106.433 63.155 0 181.192-31.172 181.192-106.433v-65.009zM181.193 389.869c-59.649 0-106.387 49.427-106.387 112.612v30.469c0 63.184 46.737 112.61 106.387 112.61s106.386-49.425 106.386-112.61v-30.469c0-63.183-46.737-112.612-106.386-112.612zM181.193 603.436c-36.071 0-64.281-30.891-64.281-70.486v-30.469c0-39.456 28.21-70.487 64.281-70.487s64.28 30.891 64.28 70.487v30.469c0 39.456-28.21 70.486-64.28 70.486zM362.246 250.443h-42.106v65.009c0 36.79-84.351 64.309-139.087 64.309s-139.087-27.66-139.087-64.309v-65.009h-41.965v65.009c0 75.26 118.035 106.433 181.193 106.433s181.192-31.172 181.192-106.433v-65.009h-0.14z" />
<glyph unicode="&#xe954;" glyph-name="snap" d="M988.685 483.288c-5.929 5.712-14.125 9.001-22.671 9.001h-414.201c0.868 7.442 2.093 15.231 3.486 23.884 11.164 67.673 16.392 139.672 15.699 214.095v11.769c0 39.115-25.464 73.038-61.742 82.904-44.821 11.942-89.294-12.635-105.163-58.5-1.222-3.634-1.919-7.787-1.919-12.115v-15.576c0.174-59.539-23.544-117-65.401-157.672-17.441-16.961-32.787-28.557-48.309-36.346-23.022-11.596-44.473-26.654-64.006-44.481-10.988 21.634-33.486 36-58.949 36h-165.508v-536.882h231.431v70.094c52.669-44.824 120.164-70.094 189.052-70.094h267.535c8.022 0 15.693 3.118 21.103 8.48 42.031 41.193 41.681 83.773 26.682 113.018 34.184 11.079 58.249 42.58 58.249 79.273 0 17.823-5.579 34.957-16.043 49.154 22.147 15.573 35.402 40.499 35.402 67.845 0 2.594 0 5.192-0.524 7.961h126.793c34.528 0 65.227 20.597 78.134 52.266 14.3 34.963 3.486 74.598-29.131 106.271v-0.346zM50.928 49.733v435.978h129.756v-435.978h-129.756zM709.817 283.73h-78.827c-14.825 14.022-20.059 30.119-14.475 44.83 4.879 12.979 17.442 21.633 31.393 21.633h81.27c13.951 0 26.514-8.654 31.393-21.633 5.585-14.71 0.174-30.807-14.475-44.83h-36.278zM548.321 94.557c4.885 12.985 17.442 21.64 31.393 21.64h81.276c13.951 0 26.506-8.654 31.393-21.64 5.579-14.71 0.174-30.807-14.475-44.824h-115.11c-14.649 14.017-20.054 30.113-14.475 44.824zM726.734 166.732h-114.93c-14.825 14.022-20.054 30.113-14.475 44.83 4.885 12.979 17.442 21.633 31.393 21.633h81.27c13.956 0 26.514-8.654 31.393-21.633 5.585-14.716 0.174-30.807-14.475-44.83h-0.174zM621.745 400.727c-8.722 0-17.092-3.287-23.021-9.167-28.95-28.213-35.228-56.078-35.228-74.425 0-18.003 5.579-34.963 16.043-49.328-22.147-15.579-35.402-40.499-35.402-67.845 0-13.154 3.143-25.965 9.42-37.731-34.010-11.079-58.077-42.574-58.077-79.267 0-11.598 2.442-22.847 7.15-33.231h-81.968c-73.249 0-143.707 34.269-189.053 91.903v292.323c21.452 27.347 49.182 49.848 80.051 65.598 20.231 10.212 39.589 24.749 60.866 45.346 51.449 50.192 80.922 120.807 80.748 193.845v14.538c8.72 18.692 24.94 27.519 42.904 22.673 13.952-3.808 24.069-18.174 24.069-34.269v-18.347c0.694-67.673-4.185-133.788-14.651-196.614-3.662-22.5-6.104-40.846-7.325-57.807l-9.069-114.75c0-61.964-50.751-112.324-113.188-112.324-13.952 0-25.463-11.254-25.463-25.271 0-14.022 11.337-25.271 25.463-25.271 43.601 0 84.759 16.959 115.804 47.598 31.040 30.632 48.133 71.131 47.958 113.192l7.153 89.653h392.929c13.951 0 26.506-8.654 31.393-21.633 5.579-14.716 0.174-30.813-14.475-44.83h-167.6c-15.874 16.097-37.502 25.271-59.998 25.271h-107.433v0.168zM772.607 732.69c2.612-0.866 5.229-1.212 8.022-1.212 10.983 0 20.753 6.923 24.065 17.308l37.845 114.75c2.093 6.403 1.568 13.327-1.394 19.211-2.967 5.885-8.372 10.558-14.825 12.635-13.257 4.327-27.732-2.943-32.092-16.097l-37.845-114.75c-2.093-6.403-1.568-13.326 1.399-19.211 3.136-6.058 8.372-10.558 14.825-12.635zM859.456 641.48c-6.453 2.077-13.257 1.557-19.36-1.385-6.103-3.115-10.639-8.307-12.731-14.712s-1.568-13.327 1.399-19.211c3.136-6.058 8.372-10.558 14.825-12.635l115.63-37.557c2.612-0.866 5.229-1.212 8.022-1.212 10.989 0 20.753 6.923 24.065 17.308 2.093 6.403 1.574 13.327-1.394 19.211-3.143 6.058-8.372 10.558-14.825 12.634l-115.63 37.558zM822.31 690.286c4.361-8.48 13.081-13.846 22.671-13.846 4.011 0 8.022 0.866 11.513 2.769l108.476 54.519c12.557 6.23 17.442 21.461 11.164 33.923-3.143 6.058-8.372 10.558-14.825 12.634s-13.257 1.557-19.36-1.557l-108.476-54.519c-12.557-6.23-17.618-21.461-11.164-33.923zM673.021 738.921c4.361-8.48 13.081-13.846 22.671-13.846 4.011 0 7.846 0.866 11.513 2.769 12.557 6.23 17.436 21.461 11.158 33.923l-54.932 107.826c-6.284 12.462-21.627 17.308-34.184 11.076s-17.442-21.461-11.164-33.923l54.938-107.653v-0.173zM115.805 164.656c-13.953 0-25.463-11.254-25.463-25.271v-47.942c0-13.848 11.337-25.271 25.463-25.271s25.463 11.248 25.463 25.271v47.942c0 13.848-11.337 25.271-25.463 25.271z" />
<glyph unicode="&#xe955;" glyph-name="graph" d="M999.998 185.438c13.203 0 24.002-11.078 24.002-24.619v-82.053c0-13.535-10.801-24.612-24.002-24.612h-975.998c-13.2 0-24 11.078-24 24.612v738.465c0 13.538 10.8 24.615 24 24.615h80c13.2 0 24-11.077 24-24.615v-631.793h871.998zM745.401 645.949l-169.399-115.897-170.602 233.231c-10.2 13.949-31 12.923-39.8-2.051l-173.6-296.821v-213.333h768.003l-179.805 385.231c-6.395 13.333-22.798 17.846-34.797 9.641z" />
<glyph unicode="&#xe956;" glyph-name="trending" d="M459.513 639.619h-54.769v156.483h-157.735v54.334h212.504v-210.816zM47.314 479.973l38.728-38.422 318.702 316.173v38.377h-38.771l-318.659-316.127zM1024 99.9h-1024v-54.335h1024v54.335zM539.478 529.32h-244.090v-255.006h54.769v200.673h134.549v-64.477h54.771v118.812zM484.707 474.987v0zM295.205 219.979v-120.079h54.952v174.414h-244.271v-174.414h54.587v120.079h134.731zM728.795 99.9v0zM918.113 691.236h-244.089v-280.727h54.771v226.393h134.547v-537.002h54.771v591.336zM484.707 410.51v-310.61h54.771v256.275h134.547v-256.275h54.771v310.61h-244.089z" />
<glyph unicode="&#xe957;" glyph-name="switch" d="M769.585 818.539h-658.738v-215.355h658.738v215.355zM752.691 461.724l223.802 249.138-223.802 249.138v-498.274zM911.041 292.815h-656.624v-215.352h656.624v215.352zM271.308 434.277l-223.801-249.135 223.801-249.141v498.276z" />
<glyph unicode="&#xe958;" glyph-name="sell" d="M626.631 58.298h-395.816v115.012h395.816c60.004 0 108.859 48.693 108.859 108.494 0 59.807-58.471 108.499-108.859 108.499h-228.874c-123.861 0-224.257 100.443-224.257 223.507s100.396 224.275 223.872 224.275h365.81v-115.013h-365.81c-60.006 0-108.859-48.689-108.859-108.496s48.852-108.495 108.859-108.495h228.871c119.631 0 224.258-104.663 224.258-223.508s-100.781-223.506-224.258-223.506l0.387-0.769zM569.697 960h-115.395v-121.914h115.395v121.914zM569.697 58.298h-115.395v-122.298h115.395v122.298z" />
<glyph unicode="&#xe959;" glyph-name="sellall" d="M187.418 724.839l7.871 10.368-60.776 47.378-8.072-10.655c-65.719-86.742-100.573-190.498-100.573-299.939 0-109.433 34.85-213.362 100.573-300.109l8.072-10.654 60.764 47.369-7.852 10.364c-55.516 73.292-84.811 160.724-84.811 253.030 0 92.311 29.297 179.739 84.803 252.847zM557.509 537.273h64.227c100.322 0 187.821-85.425 187.821-190.241 0-104.666-84.15-190.247-187.821-190.247h-64.227v-66.244h114.055l-152.432-154.541-152.424 154.541h114.053v66.244h-226.86v77.446h226.86v225.597h-64.225c-103.671 0-187.823 85.582-187.823 190.245s84.152 190.243 187.823 190.243h64.225v119.684h76.746v-119.684h200.162v-77.446h-200.162v-225.597zM416.538 762.871c-61.059 0-111.075-50.447-111.075-112.799s50.016-112.799 111.075-112.799h64.225v225.597h-64.225zM557.509 459.827v-225.597h64.227c61.247 0 111.075 47.909 111.075 112.802 0 31.928-14.504 60.106-36.036 80.484-21.657 20.503-49.585 32.311-75.039 32.311h-64.227zM897.551 771.944l-8.076 10.632-60.752-47.36 7.852-10.366c55.518-73.288 84.81-160.72 84.81-253.029 0-92.314-29.298-179.74-84.803-252.847l-7.871-10.371 60.778-47.375 8.070 10.654c65.716 86.741 100.573 190.326 100.573 299.939 0 109.595-34.678 213.361-100.579 300.122z" />
</font>
</defs>
</svg>
