<svg width="233" height="44" viewBox="0 0 233 44" fill="none" xmlns="http://www.w3.org/2000/svg">
<path d="M57.2109 22.6438V21.611C57.2109 11.9283 63.5369 5.08594 73.155 5.08594C81.4175 5.08594 86.9689 10.3146 87.4853 18.1252H80.5138C79.9974 13.6066 77.2862 10.831 73.0259 10.831C67.4745 10.831 64.3115 15.1559 64.3115 21.611V22.6438C64.3115 29.0988 67.5391 33.3592 73.0259 33.3592C77.4799 33.3592 80.2556 30.3253 80.5138 25.7422H87.4853C86.9689 33.5529 81.6757 39.1042 73.155 39.1042C63.3433 39.1688 57.2109 32.3909 57.2109 22.6438Z" fill="#101142"/>
<path d="M92.843 38.5908V5.73438H106.786C113.628 5.73438 118.663 9.34922 118.663 16.0625V16.6435C118.663 23.4213 113.693 26.9716 106.786 26.9716H99.5563V38.5908H92.843ZM99.5563 21.2911H106.076C109.303 21.2911 111.627 19.871 111.627 16.6435V16.0625C111.627 12.7704 109.303 11.4148 106.076 11.4148H99.5563V21.2911Z" fill="#101142"/>
<path d="M120.987 26.1301V25.4846C120.987 17.803 126.151 12.4453 134.091 12.4453C142.031 12.4453 147.195 17.803 147.195 25.5491V26.1301C147.195 33.8762 142.031 39.2339 134.091 39.2339C126.151 39.2339 120.987 33.8762 120.987 26.1301ZM140.159 26.1301V25.5491C140.159 20.5787 138.158 17.8676 134.091 17.8676C130.024 17.8676 128.023 20.5787 128.023 25.5491V26.1946C128.023 31.1651 130.024 33.8762 134.091 33.8762C138.093 33.8116 140.159 31.1005 140.159 26.1301Z" fill="#101142"/>
<path d="M155.134 38.5249L147.646 13.0273H154.618L159.201 31.2307L163.784 13.0273H170.626L175.209 31.2952L179.922 13.0273H186.764L179.147 38.5249H171.917L167.141 20.7089L162.428 38.5249H155.134Z" fill="#101142"/>
<path d="M187.345 26.1301V25.4846C187.345 17.7385 192.445 12.4453 200.514 12.4453C209.228 12.4453 213.488 18.5776 213.036 27.4857H194.381C194.704 31.8106 196.77 33.9407 200.449 33.9407C203.547 33.9407 205.355 32.4561 206 30.455H212.843C211.616 35.8127 207.098 39.1694 200.449 39.1694C192.316 39.1694 187.345 33.9407 187.345 26.1301ZM206 22.9025C205.678 19.675 203.935 17.7385 200.449 17.7385C197.028 17.7385 195.091 19.4168 194.51 22.9025H206Z" fill="#101142"/>
<path d="M217.168 38.5235V13.0904H223.816L223.946 18.0608C225.172 15.027 227.69 12.7031 231.433 12.7031C231.95 12.7031 232.595 12.7677 232.983 12.8322V19.481C232.466 19.4164 231.692 19.3519 231.046 19.3519C226.463 19.3519 224.01 21.8048 224.01 26.3234V38.6526H217.168V38.5235Z" fill="#101142"/>
<path d="M31.7139 0.699219H23.7742V8.63897H31.7139V0.699219Z" fill="url(#paint0_linear_1663_8517)"/>
<path d="M20.159 0.699219H12.2192V8.63897H20.159V0.699219Z" fill="url(#paint1_linear_1663_8517)"/>
<path d="M43.3331 0.699219H35.3933V8.63897H43.3331V0.699219Z" fill="url(#paint2_linear_1663_8517)"/>
<path d="M31.7139 12.3867H23.7742V20.3265H31.7139V12.3867Z" fill="url(#paint3_linear_1663_8517)"/>
<path d="M20.159 12.3867H12.2192V20.3265H20.159V12.3867Z" fill="url(#paint4_linear_1663_8517)"/>
<path d="M43.3331 12.3867H35.3933V20.3265H43.3331V12.3867Z" fill="url(#paint5_linear_1663_8517)"/>
<path d="M31.7139 24H23.7742V31.9398H31.7139V24Z" fill="url(#paint6_linear_1663_8517)"/>
<path d="M43.3331 24H35.3933V31.9398H43.3331V24Z" fill="url(#paint7_linear_1663_8517)"/>
<path d="M8.53985 12.3203H0.600098V20.2601H8.53985V12.3203Z" fill="url(#paint8_linear_1663_8517)"/>
<path d="M20.159 24.0664H12.2192V32.0062H20.159V24.0664Z" fill="url(#paint9_linear_1663_8517)"/>
<path d="M8.53985 24.0664H0.600098V32.0062H8.53985V24.0664Z" fill="url(#paint10_linear_1663_8517)"/>
<path d="M20.159 35.6875H12.2192V43.6273H20.159V35.6875Z" fill="url(#paint11_linear_1663_8517)"/>
<path d="M8.53985 35.6875H0.600098V43.6273H8.53985V35.6875Z" fill="url(#paint12_linear_1663_8517)"/>
<path d="M31.7139 35.6875H23.7742V43.6273H31.7139V35.6875Z" fill="url(#paint13_linear_1663_8517)"/>
<defs>
<linearGradient id="paint0_linear_1663_8517" x1="6.56118" y1="26.3213" x2="19.225" y2="13.3719" gradientUnits="userSpaceOnUse">
<stop stop-color="#F15722"/>
<stop offset="1" stop-color="#FFCA0B"/>
</linearGradient>
<linearGradient id="paint1_linear_1663_8517" x1="0.639463" y1="20.5305" x2="13.3032" y2="7.58111" gradientUnits="userSpaceOnUse">
<stop stop-color="#F15722"/>
<stop offset="1" stop-color="#FFCA0B"/>
</linearGradient>
<linearGradient id="paint2_linear_1663_8517" x1="12.4826" y1="32.112" x2="25.1463" y2="19.1627" gradientUnits="userSpaceOnUse">
<stop stop-color="#F15722"/>
<stop offset="1" stop-color="#FFCA0B"/>
</linearGradient>
<linearGradient id="paint3_linear_1663_8517" x1="12.4195" y1="32.0541" x2="25.0832" y2="19.1047" gradientUnits="userSpaceOnUse">
<stop stop-color="#F15722"/>
<stop offset="1" stop-color="#FFCA0B"/>
</linearGradient>
<linearGradient id="paint4_linear_1663_8517" x1="6.49771" y1="26.2633" x2="19.1615" y2="13.3139" gradientUnits="userSpaceOnUse">
<stop stop-color="#F15722"/>
<stop offset="1" stop-color="#FFCA0B"/>
</linearGradient>
<linearGradient id="paint5_linear_1663_8517" x1="18.3409" y1="37.8449" x2="31.0046" y2="24.8955" gradientUnits="userSpaceOnUse">
<stop stop-color="#F15722"/>
<stop offset="1" stop-color="#FFCA0B"/>
</linearGradient>
<linearGradient id="paint6_linear_1663_8517" x1="18.2301" y1="37.7307" x2="30.8939" y2="24.7813" gradientUnits="userSpaceOnUse">
<stop stop-color="#F15722"/>
<stop offset="1" stop-color="#FFCA0B"/>
</linearGradient>
<linearGradient id="paint7_linear_1663_8517" x1="24.1515" y1="43.5215" x2="36.8152" y2="30.5721" gradientUnits="userSpaceOnUse">
<stop stop-color="#F15722"/>
<stop offset="1" stop-color="#FFCA0B"/>
</linearGradient>
<linearGradient id="paint8_linear_1663_8517" x1="0.55517" y1="20.45" x2="13.2189" y2="7.50062" gradientUnits="userSpaceOnUse">
<stop stop-color="#F15722"/>
<stop offset="1" stop-color="#FFCA0B"/>
</linearGradient>
<linearGradient id="paint9_linear_1663_8517" x1="12.3348" y1="31.9677" x2="24.9986" y2="19.0183" gradientUnits="userSpaceOnUse">
<stop stop-color="#F15722"/>
<stop offset="1" stop-color="#FFCA0B"/>
</linearGradient>
<linearGradient id="paint10_linear_1663_8517" x1="6.41342" y1="26.1769" x2="19.0772" y2="13.2275" gradientUnits="userSpaceOnUse">
<stop stop-color="#F15722"/>
<stop offset="1" stop-color="#FFCA0B"/>
</linearGradient>
<linearGradient id="paint11_linear_1663_8517" x1="18.1455" y1="37.6521" x2="30.8092" y2="24.7027" gradientUnits="userSpaceOnUse">
<stop stop-color="#F15722"/>
<stop offset="1" stop-color="#FFCA0B"/>
</linearGradient>
<linearGradient id="paint12_linear_1663_8517" x1="12.2241" y1="31.8613" x2="24.8878" y2="18.9119" gradientUnits="userSpaceOnUse">
<stop stop-color="#F15722"/>
<stop offset="1" stop-color="#FFCA0B"/>
</linearGradient>
<linearGradient id="paint13_linear_1663_8517" x1="24.0672" y1="43.4429" x2="36.731" y2="30.4935" gradientUnits="userSpaceOnUse">
<stop stop-color="#F15722"/>
<stop offset="1" stop-color="#FFCA0B"/>
</linearGradient>
</defs>
</svg>
