<svg viewBox="0 0 575 575" class="roots-wrapper"><g transform="rotate(0 287.4995 287.5)"><svg viewBoxSize="575" data-root-id="5488967528869" xmlns="http://www.w3.org/2000/svg" xmlns:xlink="http://www.w3.org/1999/xlink" version="1.1" id="Layer_1" x="150.15546464914982" y="169.398" viewBox="197.01998901367188 255.02000427246094 298.489990234375 256.66998291015625" xml:space="preserve" height="236.2037397609464" width="274.68907070170036" preserveAspectRatio="xMinYMin" zoom="1" editorType="buyer" data-layer-role="icon" style="position: absolute; height: 236.204px; width: 274.689px; top: 169.398px; left: 150.155px; transform: rotate(0deg);"><path class="st0" d="M325.34,255.02c35.43,0,67.52,14.37,90.74,37.59c5.78,5.78,11.01,12.1,15.6,18.89l-14.76,8.52   c-3.82-5.52-8.13-10.67-12.86-15.4c-20.15-20.15-47.99-32.61-78.73-32.61c-30.75,0-58.58,12.46-78.73,32.61   C226.46,324.76,214,352.6,214,383.35c0,30.74,12.46,58.58,32.61,78.73c20.15,20.15,47.98,32.61,78.73,32.61   c30.74,0,58.58-12.46,78.73-32.61c20.15-20.15,32.61-47.99,32.61-78.73c0-17.05-3.83-33.2-10.68-47.64l68.8-39.72l0.71-0.28   l-49.91,42.75c5.22,13.97,8.08,29.11,8.08,44.9c0,35.43-14.37,67.52-37.59,90.74c-23.22,23.22-55.31,37.59-90.74,37.59   s-67.52-14.37-90.74-37.59c-23.22-23.22-37.59-55.31-37.59-90.74s14.37-67.52,37.59-90.74   C257.81,269.38,289.9,255.02,325.34,255.02z" name="Layer 1" zoom="1" data-layer-id="8624380428869" style="fill-rule: evenodd; clip-rule: evenodd; fill: rgb(252, 220, 84); fill-opacity: 1;"></path><path class="st0" d="M325.34,292.37c25.12,0,47.87,10.18,64.33,26.65c3.47,3.47,6.67,7.23,9.55,11.22l-14.81,8.55   c-2.07-2.74-4.33-5.34-6.75-7.76c-13.39-13.39-31.89-21.67-52.32-21.67s-38.93,8.28-52.32,21.67   c-13.39,13.39-21.67,31.89-21.67,52.32c0,20.43,8.28,38.93,21.67,52.32c13.39,13.39,31.89,21.67,52.32,21.67   s38.93-8.28,52.32-21.67c13.39-13.39,21.67-31.89,21.67-52.32c0-10.24-2.08-20-5.84-28.87l28.5-16.45l-10.01,17.45   c2.82,8.78,4.35,18.15,4.35,27.87c0,25.12-10.18,47.87-26.65,64.33c-16.46,16.46-39.21,26.65-64.33,26.65s-47.87-10.19-64.33-26.65   c-16.46-16.46-26.65-39.21-26.65-64.33c0-25.12,10.18-47.87,26.65-64.33C277.47,302.55,300.21,292.37,325.34,292.37z" name="Layer 2" zoom="1" data-layer-id="2527693528869" style="fill-rule: evenodd; clip-rule: evenodd; fill: rgb(252, 220, 84); fill-opacity: 1;"></path><path class="st1" d="M325.34,340.31c12.66,0,24.03,5.46,31.91,14.16l-35.81,20.67c-3.06,1.46-5.18,4.59-5.18,8.2   c0,5.01,4.07,9.08,9.08,9.08c1.41,0,2.75-0.33,3.94-0.9l0.01,0.01l0.17-0.1c0.28-0.14,0.54-0.29,0.8-0.46l49.17-28.39l-11.35,14.28   l0.29,6.47c0,23.77-19.27,43.03-43.03,43.03s-43.03-19.27-43.03-43.03C282.3,359.58,301.57,340.31,325.34,340.31z" name="Layer 3" zoom="1" data-layer-id="9486912528869" style="fill-rule: evenodd; clip-rule: evenodd; fill: rgb(252, 220, 84); fill-opacity: 1;"></path></svg></g><g transform="rotate(0 287.5 446.379)"><svg viewBoxSize="575" data-root-id="6514190228869" xmlns="http://www.w3.org/2000/svg" y="430.38448741286754" viewBox="3.380000114440918 15.569999694824219 414.0899963378906 31.990001678466797" x="80.45500183105469" height="31.990001678466797" width="414.0899963378906" fontUrl="http://fonts.gstatic.com/s/poppins/v15/pxiByp8kv8JHgFVrLCz7V1tvFP-KUEg.ttf" zoom="1" editorType="buyer" data-layer-role="brandName" style="position: absolute; top: 430.384px; width: 414.09px; height: 31.99px; left: 80.455px; transform: rotate(0deg);"><g data-horizontal-grow="center" zoom="1" root="[object Object]" style="fill: rgb(51, 51, 51); fill-opacity: 1;"><path d="M30.82 15.98L36.31 15.98L36.31 47.25L31.18 47.25L31.18 25.83L21.64 47.25L18.09 47.25L8.50 25.83L8.50 47.25L3.38 47.25L3.38 15.98L8.91 15.98L19.89 40.50L30.82 15.98ZM64.17 47.25L61.92 40.86L48.82 40.86L46.57 47.25L41.22 47.25L52.42 15.93L58.36 15.93L69.57 47.25L64.17 47.25ZM50.27 36.67L60.48 36.67L55.39 22.14L50.27 36.67ZM96.79 47.25L90.67 47.25L83.47 34.74L79.56 34.74L79.56 47.25L74.43 47.25L74.43 15.98L85.23 15.98Q88.83 15.98 91.33 17.23Q93.82 18.50 95.06 20.61Q96.30 22.73 96.30 25.34L96.30 25.34Q96.30 28.39 94.52 30.89Q92.74 33.39 89.05 34.29L89.05 34.29L96.79 47.25ZM79.56 20.16L79.56 30.64L85.23 30.64Q88.11 30.64 89.57 29.21Q91.03 27.77 91.03 25.34L91.03 25.34Q91.03 22.91 89.59 21.53Q88.15 20.16 85.23 20.16L85.23 20.16L79.56 20.16ZM126.81 47.25L120.10 47.25L108.00 33.26L108.00 47.25L102.87 47.25L102.87 15.98L108.00 15.98L108.00 30.24L120.15 15.98L126.58 15.98L112.99 31.63L126.81 47.25ZM148.63 20.12L136.48 20.12L136.48 29.30L147.28 29.30L147.28 33.48L136.48 33.48L136.48 43.06L148.63 43.06L148.63 47.25L131.35 47.25L131.35 15.93L148.63 15.93L148.63 20.12ZM153.31 15.98L175.14 15.98L175.14 20.16L166.81 20.16L166.81 47.25L161.69 47.25L161.69 20.16L153.31 20.16L153.31 15.98ZM194.58 47.56Q190.22 47.56 186.55 45.52Q182.88 43.47 180.74 39.80Q178.60 36.13 178.60 31.55L178.60 31.55Q178.60 26.96 180.74 23.31Q182.88 19.67 186.55 17.62Q190.22 15.57 194.58 15.57L194.58 15.57Q198.99 15.57 202.66 17.62Q206.32 19.67 208.44 23.31Q210.56 26.96 210.56 31.55L210.56 31.55Q210.56 36.13 208.44 39.80Q206.32 43.47 202.66 45.52Q198.99 47.56 194.58 47.56L194.58 47.56ZM194.58 43.11Q197.69 43.11 200.12 41.69Q202.54 40.27 203.92 37.64Q205.29 35.01 205.29 31.55L205.29 31.55Q205.29 28.08 203.92 25.47Q202.54 22.86 200.12 21.46Q197.69 20.07 194.58 20.07L194.58 20.07Q191.47 20.07 189.04 21.46Q186.62 22.86 185.24 25.47Q183.87 28.08 183.87 31.55L183.87 31.55Q183.87 35.01 185.24 37.64Q186.62 40.27 189.04 41.69Q191.47 43.11 194.58 43.11L194.58 43.11ZM215.59 15.98L234 15.98L234 20.16L220.72 20.16L220.72 29.39L231.07 29.39L231.07 33.57L220.72 33.57L220.72 47.25L215.59 47.25L215.59 15.98ZM253.04 47.56Q248.67 47.56 245.00 45.52Q241.34 43.47 239.20 39.80Q237.06 36.13 237.06 31.55L237.06 31.55Q237.06 26.96 239.20 23.31Q241.34 19.67 245.00 17.62Q248.67 15.57 253.04 15.57L253.04 15.57Q257.44 15.57 261.11 17.62Q264.78 19.67 266.89 23.31Q269.01 26.96 269.01 31.55L269.01 31.55Q269.01 36.13 266.89 39.80Q264.78 43.47 261.11 45.52Q257.44 47.56 253.04 47.56L253.04 47.56ZM253.04 43.11Q256.14 43.11 258.57 41.69Q261 40.27 262.37 37.64Q263.75 35.01 263.75 31.55L263.75 31.55Q263.75 28.08 262.37 25.47Q261 22.86 258.57 21.46Q256.14 20.07 253.04 20.07L253.04 20.07Q249.93 20.07 247.50 21.46Q245.07 22.86 243.70 25.47Q242.33 28.08 242.33 31.55L242.33 31.55Q242.33 35.01 243.70 37.64Q245.07 40.27 247.50 41.69Q249.93 43.11 253.04 43.11L253.04 43.11ZM272.34 31.55Q272.34 26.96 274.48 23.31Q276.62 19.67 280.28 17.62Q283.95 15.57 288.31 15.57L288.31 15.57Q293.31 15.57 297.20 18.02Q301.10 20.48 302.85 24.98L302.85 24.98L296.69 24.98Q295.47 22.50 293.31 21.29Q291.15 20.07 288.31 20.07L288.31 20.07Q285.21 20.07 282.78 21.46Q280.35 22.86 278.98 25.47Q277.61 28.08 277.61 31.55L277.61 31.55Q277.61 35.01 278.98 37.62Q280.35 40.23 282.78 41.65Q285.21 43.06 288.31 43.06L288.31 43.06Q291.15 43.06 293.31 41.85Q295.47 40.63 296.69 38.16L296.69 38.16L302.85 38.16Q301.10 42.66 297.20 45.09Q293.31 47.52 288.31 47.52L288.31 47.52Q283.91 47.52 280.26 45.47Q276.62 43.42 274.48 39.78Q272.34 36.13 272.34 31.55L272.34 31.55ZM308.79 15.98L313.92 15.98L313.92 35.91Q313.92 39.47 315.79 41.27Q317.66 43.06 320.99 43.06L320.99 43.06Q324.36 43.06 326.23 41.27Q328.10 39.47 328.10 35.91L328.10 35.91L328.10 15.98L333.23 15.98L333.23 35.82Q333.23 39.65 331.56 42.30Q329.90 44.95 327.11 46.26Q324.32 47.56 320.94 47.56L320.94 47.56Q317.57 47.56 314.80 46.26Q312.03 44.95 310.41 42.30Q308.79 39.65 308.79 35.82L308.79 35.82L308.79 15.98ZM350.19 47.56Q347.04 47.56 344.52 46.46Q342.00 45.36 340.56 43.34Q339.12 41.31 339.12 38.61L339.12 38.61L344.61 38.61Q344.79 40.63 346.21 41.94Q347.63 43.24 350.19 43.24L350.19 43.24Q352.85 43.24 354.33 41.96Q355.82 40.68 355.82 38.66L355.82 38.66Q355.82 37.08 354.89 36.09Q353.97 35.10 352.60 34.56Q351.23 34.02 348.80 33.39L348.80 33.39Q345.74 32.58 343.82 31.75Q341.91 30.91 340.56 29.16Q339.21 27.41 339.21 24.48L339.21 24.48Q339.21 21.78 340.56 19.76Q341.91 17.73 344.34 16.65Q346.77 15.57 349.97 15.57L349.97 15.57Q354.51 15.57 357.41 17.84Q360.32 20.12 360.63 24.07L360.63 24.07L354.96 24.07Q354.83 22.37 353.34 21.15Q351.86 19.94 349.43 19.94L349.43 19.94Q347.22 19.94 345.83 21.06Q344.43 22.19 344.43 24.30L344.43 24.30Q344.43 25.74 345.31 26.66Q346.19 27.59 347.54 28.13Q348.89 28.66 351.23 29.30L351.23 29.30Q354.33 30.15 356.29 31.00Q358.25 31.86 359.62 33.64Q360.99 35.41 360.99 38.38L360.99 38.38Q360.99 40.77 359.71 42.88Q358.43 45 355.97 46.28Q353.52 47.56 350.19 47.56L350.19 47.56ZM384.35 20.12L372.20 20.12L372.20 29.30L383.00 29.30L383.00 33.48L372.20 33.48L372.20 43.06L384.35 43.06L384.35 47.25L367.07 47.25L367.07 15.93L384.35 15.93L384.35 20.12ZM400.86 15.98Q405.86 15.98 409.61 17.89Q413.37 19.80 415.42 23.38Q417.47 26.96 417.47 31.73L417.47 31.73Q417.47 36.50 415.42 40.01Q413.37 43.52 409.61 45.38Q405.86 47.25 400.86 47.25L400.86 47.25L390.65 47.25L390.65 15.98L400.86 15.98ZM400.86 43.06Q406.35 43.06 409.28 40.09Q412.20 37.13 412.20 31.73L412.20 31.73Q412.20 26.28 409.28 23.22Q406.35 20.16 400.86 20.16L400.86 20.16L395.78 20.16L395.78 43.06L400.86 43.06Z" transform="translate(0, 0)"></path></g></svg></g></svg>